<svg width="18" height="18" viewBox="0 0 18 18" fill="none" xmlns="http://www.w3.org/2000/svg">
<path d="M1.7274 9.6588H7.41604C7.9375 9.6588 8.36415 9.23215 8.36415 8.71069V1.12584C8.36415 0.604382 7.9375 0.177734 7.41604 0.177734H1.7274C1.20594 0.177734 0.779297 0.604382 0.779297 1.12584V8.71069C0.779297 9.23215 1.20594 9.6588 1.7274 9.6588ZM1.7274 17.2437H7.41604C7.9375 17.2437 8.36415 16.817 8.36415 16.2955V12.5031C8.36415 11.9817 7.9375 11.555 7.41604 11.555H1.7274C1.20594 11.555 0.779297 11.9817 0.779297 12.5031V16.2955C0.779297 16.817 1.20594 17.2437 1.7274 17.2437ZM11.2085 17.2437H16.8971C17.4186 17.2437 17.8452 16.817 17.8452 16.2955V8.71069C17.8452 8.18923 17.4186 7.76259 16.8971 7.76259H11.2085C10.687 7.76259 10.2604 8.18923 10.2604 8.71069V16.2955C10.2604 16.817 10.687 17.2437 11.2085 17.2437ZM10.2604 1.12584V4.91827C10.2604 5.43973 10.687 5.86637 11.2085 5.86637H16.8971C17.4186 5.86637 17.8452 5.43973 17.8452 4.91827V1.12584C17.8452 0.604382 17.4186 0.177734 16.8971 0.177734H11.2085C10.687 0.177734 10.2604 0.604382 10.2604 1.12584Z" fill="#333333"/>
</svg>
