<svg width="17" height="17" viewBox="0 0 17 17" fill="none" xmlns="http://www.w3.org/2000/svg">
<path d="M15.1607 4.29434H13.3246C13.4172 4.03324 13.4762 3.74687 13.4762 3.45208C13.4762 2.05392 12.3475 0.925293 10.9494 0.925293C10.065 0.925293 9.29856 1.38011 8.84374 2.06234L8.42261 2.62666L8.00148 2.05392C7.54666 1.38011 6.7802 0.925293 5.89582 0.925293C4.49767 0.925293 3.36904 2.05392 3.36904 3.45208C3.36904 3.74687 3.428 4.03324 3.52065 4.29434H1.68452C0.749612 4.29434 0.0084226 5.04395 0.0084226 5.97886L0 15.2437C0 16.1786 0.749612 16.9282 1.68452 16.9282H15.1607C16.0956 16.9282 16.8452 16.1786 16.8452 15.2437V5.97886C16.8452 5.04395 16.0956 4.29434 15.1607 4.29434ZM10.9494 2.60981C11.4126 2.60981 11.7916 2.98883 11.7916 3.45208C11.7916 3.91532 11.4126 4.29434 10.9494 4.29434C10.4861 4.29434 10.1071 3.91532 10.1071 3.45208C10.1071 2.98883 10.4861 2.60981 10.9494 2.60981ZM5.89582 2.60981C6.35907 2.60981 6.73809 2.98883 6.73809 3.45208C6.73809 3.91532 6.35907 4.29434 5.89582 4.29434C5.43258 4.29434 5.05356 3.91532 5.05356 3.45208C5.05356 2.98883 5.43258 2.60981 5.89582 2.60981ZM15.1607 15.2437H1.68452V13.5592H15.1607V15.2437ZM15.1607 11.0324H1.68452V6.82112C1.68452 6.35787 2.06354 5.97886 2.52678 5.97886H5.96321L4.71666 7.68022C4.43871 8.05924 4.52294 8.58987 4.90196 8.85939C5.27255 9.12891 5.80318 9.04469 6.0727 8.67409L8.42261 5.4735L10.7725 8.67409C11.042 9.04469 11.5727 9.12891 11.9433 8.85939C12.3223 8.58987 12.4065 8.05924 12.1286 7.68022L10.882 5.97886H14.3184C14.7817 5.97886 15.1607 6.35787 15.1607 6.82112V11.0324Z" fill="#323232"/>
</svg>
