<svg width="17" height="17" viewBox="0 0 17 17" fill="none" xmlns="http://www.w3.org/2000/svg">
<path d="M14.9946 9.333C15.0296 9.061 15.0558 8.789 15.0558 8.5C15.0558 8.211 15.0296 7.939 14.9946 7.667L16.8384 6.2645C17.0044 6.137 17.0481 5.9075 16.9433 5.7205L15.1956 2.7795C15.0907 2.5925 14.8548 2.5245 14.6625 2.5925L12.4867 3.4425C12.0323 3.1025 11.5429 2.822 11.0099 2.6095L10.6778 0.357C10.6516 0.153 10.4681 0 10.2496 0H6.75424C6.53578 0 6.35227 0.153 6.32606 0.357L5.99399 2.6095C5.46095 2.822 4.9716 3.111 4.5172 3.4425L2.34132 2.5925C2.14034 2.516 1.91314 2.5925 1.80828 2.7795L0.0605851 5.7205C-0.0530148 5.9075 -0.000583993 6.137 0.165447 6.2645L2.00926 7.667C1.97431 7.939 1.94809 8.2195 1.94809 8.5C1.94809 8.7805 1.97431 9.061 2.00926 9.333L0.165447 10.7355C-0.000583993 10.863 -0.0442764 11.0925 0.0605851 11.2795L1.80828 14.2205C1.91314 14.4075 2.14908 14.4755 2.34132 14.4075L4.5172 13.5575C4.9716 13.8975 5.46095 14.178 5.99399 14.3905L6.32606 16.643C6.35227 16.847 6.53578 17 6.75424 17H10.2496C10.4681 17 10.6516 16.847 10.6778 16.643L11.0099 14.3905C11.5429 14.178 12.0323 13.889 12.4867 13.5575L14.6625 14.4075C14.8635 14.484 15.0907 14.4075 15.1956 14.2205L16.9433 11.2795C17.0481 11.0925 17.0044 10.863 16.8384 10.7355L14.9946 9.333ZM8.50193 11.475C6.81541 11.475 5.44347 10.1405 5.44347 8.5C5.44347 6.8595 6.81541 5.525 8.50193 5.525C10.1885 5.525 11.5604 6.8595 11.5604 8.5C11.5604 10.1405 10.1885 11.475 8.50193 11.475Z" fill="#323232"/>
</svg>
