<svg width="19" height="17" viewBox="0 0 19 17" fill="none" xmlns="http://www.w3.org/2000/svg">
<path d="M7.885 4.43889C7.5145 4.80722 7.5145 5.39278 7.885 5.76111L9.69 7.55556H0.95C0.4275 7.55556 0 7.98056 0 8.5C0 9.01944 0.4275 9.44444 0.95 9.44444H9.69L7.885 11.2389C7.5145 11.6072 7.5145 12.1928 7.885 12.5611C8.2555 12.9294 8.8445 12.9294 9.215 12.5611L12.6255 9.17056C12.996 8.80222 12.996 8.20722 12.6255 7.83889L9.215 4.43889C8.8445 4.07056 8.2555 4.07056 7.885 4.43889ZM17.1 15.1111H10.45C9.9275 15.1111 9.5 15.5361 9.5 16.0556C9.5 16.575 9.9275 17 10.45 17H17.1C18.145 17 19 16.15 19 15.1111V1.88889C19 0.85 18.145 0 17.1 0H10.45C9.9275 0 9.5 0.425 9.5 0.944444C9.5 1.46389 9.9275 1.88889 10.45 1.88889H17.1V15.1111Z" fill="#323232"/>
</svg>
