<svg width="54" height="79" viewBox="0 0 54 79" fill="none" xmlns="http://www.w3.org/2000/svg">
<path d="M48.2353 43.8044L41.1405 41.0676L37.5152 37.4423C37.2745 37.2016 36.9511 37.0911 36.6343 37.1129V34.0205C38.3477 32.2108 39.5646 29.908 40.0418 27.3098C40.0481 27.2865 40.0861 27.2482 40.1123 27.2376C40.4292 27.2594 40.7498 27.2377 41.066 27.1731C42.7168 26.8352 43.9151 25.3007 43.9151 23.5245V22.5788C43.9151 21.5184 43.4717 20.5478 42.7549 19.8707C43.922 13.6422 42.9982 8.57302 40.0721 5.19385C37.2598 1.94682 32.7199 0.395515 26.9435 0.707805C21.5212 1.00087 18.0578 3.52628 17.0292 4.38429C15.5842 4.56457 11.3081 5.60165 11.3081 11.5491C11.3081 14.914 11.8646 17.7001 12.2418 19.203C10.9621 19.7644 10.0947 21.0791 10.0947 22.5932V23.5246C10.0947 25.3007 11.293 26.8352 12.9437 27.1733C13.26 27.238 13.5809 27.2597 13.8974 27.2377C13.9234 27.2483 13.9616 27.2865 13.9676 27.3087C14.4449 29.9074 15.662 32.2105 17.3754 34.0203V37.1129C17.0585 37.0911 16.7351 37.2018 16.4946 37.4423L12.8694 41.0675L5.77455 43.8042C2.41202 45.1012 0.249609 48.3921 0.394022 51.9932L1.39886 77.0833C1.42338 77.6944 1.92641 78.1732 2.53252 78.1732C2.54796 78.1732 2.5634 78.1729 2.57884 78.1723C3.20539 78.1472 3.69282 77.619 3.66784 76.9925L2.663 51.9024C2.63348 51.1666 2.73612 50.4486 2.95274 49.7751L7.08153 53.9039C8.24229 55.0647 8.88155 56.608 8.88155 58.2495V77.038C8.88155 77.665 9.38987 78.1733 10.0169 78.1733C10.6439 78.1733 11.1522 77.665 11.1522 77.038V58.2492C11.1522 56.0012 10.2768 53.8877 8.68718 52.2981L4.09533 47.7064C4.74836 46.9277 5.59834 46.306 6.59198 45.9227L13.2677 43.3478L18.3512 50.9733C18.9455 51.8649 19.898 52.4366 20.9643 52.5421C21.0829 52.5539 21.2013 52.5597 21.3191 52.5597C22.0375 52.5597 22.7326 52.3429 23.3212 51.9409L22.2307 76.9884C22.2034 77.6148 22.689 78.1447 23.3156 78.172C23.3324 78.1727 23.3492 78.173 23.3659 78.173C23.9701 78.173 24.4727 77.6968 24.4992 77.0871L25.5069 53.9419H28.5039L29.5116 77.0871C29.5381 77.6967 30.0406 78.173 30.6449 78.173C30.6616 78.173 30.6784 78.1727 30.6952 78.172C31.3216 78.1446 31.8074 77.6148 31.7801 76.9884L30.6896 51.9412C31.278 52.3434 31.9731 52.56 32.6917 52.56C32.8095 52.56 32.928 52.5541 33.0465 52.5424C34.1127 52.4369 35.0651 51.865 35.6596 50.9736L40.7431 43.3481L47.4188 45.923C48.4125 46.3063 49.2624 46.9282 49.9155 47.7067L45.3236 52.2984C43.734 53.888 42.8586 56.0015 42.8586 58.2495V77.038C42.8586 77.665 43.3669 78.1733 43.9939 78.1733C44.6209 78.1733 45.1292 77.665 45.1292 77.038V58.2495C45.1292 56.608 45.7685 55.0647 46.9293 53.9039L51.0581 49.7751C51.2747 50.4486 51.3773 51.1666 51.3478 51.9024L50.3431 76.9925C50.318 77.619 50.8056 78.1472 51.4321 78.1723C51.4477 78.1729 51.463 78.1732 51.4784 78.1732C52.0844 78.1732 52.5876 77.6944 52.6121 77.0833L53.6169 51.9934C53.7603 48.3923 51.5979 45.1014 48.2353 43.8044ZM16.2001 26.8982C15.9866 25.7328 14.9088 24.887 13.745 24.9721C13.6317 24.9804 13.5153 24.9724 13.3988 24.9486C12.8093 24.828 12.3649 24.2158 12.3649 23.5246V22.5932C12.3649 21.9041 12.8158 21.3053 13.4139 21.2002C13.9068 21.1138 14.3803 21.2953 14.6799 21.6859C14.8972 21.9694 15.1867 22.1719 15.517 22.2718C16.0008 22.4179 16.5344 22.3322 16.9443 22.0428C17.9373 21.3419 18.7791 20.4527 19.4461 19.4001C19.7817 18.8704 19.6246 18.1691 19.0949 17.8333C18.5653 17.4977 17.8638 17.655 17.5282 18.1845C17.1223 18.8248 16.6334 19.3843 16.0706 19.8533C15.6346 19.4503 15.1083 19.168 14.5414 19.0225C14.2129 17.7985 13.5783 14.9885 13.5783 11.5492C13.5783 6.81236 17.1051 6.62314 17.499 6.61724C17.7923 6.61724 18.0742 6.50371 18.2857 6.30041C18.3171 6.27028 21.4929 3.27636 27.0655 2.97512C32.1153 2.70234 36.0193 3.98344 38.3548 6.68051C40.7328 9.42633 41.5083 13.6467 40.617 18.9226C40.2083 18.8948 39.7415 18.9255 39.2811 19.0125L38.0126 15.9664C37.7949 15.4437 37.2242 15.1617 36.677 15.3046C36.5557 15.3362 24.4785 18.3999 19.3895 12.0647C18.997 11.5759 18.2825 11.4978 17.7934 11.8904C17.3046 12.2831 17.2265 12.9978 17.6193 13.4866C22.7608 19.8878 33.0618 18.3828 36.2839 17.7218L37.2774 20.1072C37.6517 21.0065 38.6093 21.4977 39.5544 21.2752C39.9719 21.1769 40.4013 21.1647 40.5937 21.2028C41.1924 21.3219 41.6438 21.9134 41.6438 22.5787V23.5243C41.6438 24.2155 41.1994 24.8277 40.6099 24.9483C40.4933 24.9722 40.3771 24.98 40.2639 24.9718C39.103 24.8864 38.0223 25.7325 37.8082 26.8982C36.8506 32.1119 32.3069 35.8962 27.0042 35.8962C21.7016 35.8962 17.1579 32.1119 16.2001 26.8982ZM22.228 49.9106C21.9534 50.1853 21.5745 50.3211 21.1874 50.2827C20.8008 50.2444 20.4555 50.037 20.2399 49.7138L15.1177 42.0303L17.3488 39.7991L25.3437 46.7947L22.228 49.9106ZM25.6052 51.6714L25.6928 49.6569L27.0048 48.3449L28.3166 49.6569L28.4043 51.6714H25.6052ZM27.0048 45.2309L19.6459 38.792V35.9349C21.7647 37.3501 24.3023 38.1673 27.0048 38.1673C29.7073 38.1673 32.2448 37.3501 34.3637 35.9351V38.792L27.0048 45.2309ZM33.7695 49.7138C33.5539 50.037 33.2087 50.2444 32.822 50.2827C32.435 50.3213 32.0562 50.1852 31.7815 49.9106L28.6657 46.7947L36.6606 39.7991L38.8918 42.0303L33.7695 49.7138Z" fill="#FFAD00"/>
</svg>
