<svg width="76" height="85" viewBox="0 0 76 85" fill="none" xmlns="http://www.w3.org/2000/svg">
<path d="M46.9462 43.1687L40.702 40.7602L37.1181 37.1764C36.885 36.9433 36.58 36.8237 36.2725 36.8183V33.8896C37.9686 32.0875 39.1738 29.7999 39.6507 27.2206C39.6517 27.2195 39.6528 27.2182 39.654 27.2172C39.9662 27.2357 40.2813 27.2128 40.5928 27.149C42.2774 26.8041 43.5001 25.2403 43.5001 23.4304V22.4917C43.5001 21.4307 43.0641 20.4583 42.3566 19.7697C43.5062 13.5797 42.5781 8.53789 39.661 5.16934C36.8487 1.92174 32.3146 0.370595 26.5484 0.681641C21.178 0.97193 17.7289 3.45916 16.6705 4.33607C15.1812 4.52959 10.9336 5.60297 10.9336 11.5424C10.9336 14.8312 11.4679 17.5664 11.8432 19.0826C10.5792 19.6735 9.72913 20.9927 9.72913 22.5056V23.4302C9.72913 25.2401 10.9517 26.804 12.6366 27.1489C12.9478 27.2126 13.2634 27.2355 13.5753 27.217C13.5764 27.2182 13.5776 27.2195 13.5786 27.2206C14.0555 29.7997 15.2606 32.0874 16.9567 33.8894V36.8181C16.6493 36.8235 16.3443 36.9432 16.1112 37.1762L12.5274 40.76L5.50409 43.4691C2.12655 44.7718 -0.0452197 48.0772 0.0995975 51.6944L1.09714 76.6008C1.12362 77.2607 1.66676 77.7777 2.32122 77.7777C2.33789 77.7777 2.35456 77.7774 2.37123 77.7767C3.04776 77.7496 3.57407 77.1793 3.5471 76.5028L2.54956 51.5967C2.52308 50.9347 2.6066 50.2876 2.78525 49.6755L6.76724 53.6574C7.90077 54.791 8.52499 56.2982 8.52499 57.9011V76.5521C8.52499 77.2291 9.07385 77.778 9.75086 77.778C10.4279 77.778 10.9767 77.2291 10.9767 76.5521V57.9011C10.9767 55.6432 10.0975 53.5203 8.50079 51.9237L4.0077 47.4306C4.63731 46.7025 5.44558 46.1199 6.38656 45.7569L12.9395 43.2293L17.942 50.733C18.5484 51.6428 19.5203 52.2263 20.6084 52.334C20.7295 52.3459 20.8503 52.3518 20.9706 52.3518C21.6393 52.3518 22.2865 52.1647 22.8511 51.8211L21.7767 76.4987C21.7473 77.175 22.2717 77.7473 22.9482 77.7767C22.9663 77.7775 22.9845 77.7778 23.0025 77.7778C23.655 77.7778 24.1976 77.2636 24.2262 76.6053L25.2224 53.724H28.0081L29.0044 76.6053C29.033 77.2635 29.5756 77.7778 30.2281 77.7778C30.2461 77.7778 30.2642 77.7775 30.2824 77.7767C30.9587 77.7473 31.4833 77.175 31.4538 76.4987L30.3795 51.8211C30.944 52.1647 31.5911 52.3518 32.2598 52.3518C32.3799 52.3518 32.5009 52.3459 32.6219 52.334C33.709 52.2266 34.6808 51.6429 35.2874 50.7332L40.29 43.2295L46.0635 45.4565C46.2087 45.5124 46.3577 45.5389 46.5045 45.5389C46.9965 45.5389 47.4609 45.2404 47.6485 44.7538C47.8924 44.1221 47.5777 43.4125 46.9462 43.1687ZM15.9868 26.7615C15.7652 25.5557 14.6478 24.6811 13.4447 24.7687C13.3414 24.7761 13.2348 24.7689 13.1281 24.7471C12.588 24.6366 12.1809 24.0704 12.1809 23.4304V22.5057C12.1809 21.8794 12.6024 21.3148 13.1405 21.2204C13.5934 21.1409 14.0271 21.3073 14.302 21.6658C14.5303 21.9634 14.8347 22.1762 15.183 22.2815C15.6918 22.435 16.2534 22.3449 16.6851 22.0401C17.6815 21.3367 18.526 20.4446 19.195 19.3887C19.5574 18.8168 19.3876 18.0594 18.8158 17.697C18.2436 17.3343 17.4865 17.5045 17.1241 18.0762C16.7426 18.6782 16.2863 19.2071 15.7627 19.6545C15.3456 19.2871 14.8526 19.0241 14.3231 18.8791C13.9947 17.6426 13.3854 14.8964 13.3854 11.5423C13.3854 9.54573 14.0042 8.14169 15.2248 7.36971C16.175 6.76854 17.1782 6.74549 17.1786 6.74533C17.4921 6.74533 17.797 6.62193 18.0247 6.4065C18.0561 6.37659 21.2352 3.42402 26.6806 3.1298C31.6622 2.85995 35.5097 4.12081 37.8073 6.7741C40.1349 9.46204 40.9019 13.5919 40.0453 18.7588C39.6769 18.7416 39.2684 18.7684 38.8622 18.8397L37.6337 15.8892C37.3985 15.3244 36.7825 15.0195 36.1908 15.1748C36.0712 15.2062 24.1564 18.2462 19.1326 11.9921C18.7088 11.4643 17.9371 11.38 17.4092 11.8041C16.8814 12.2281 16.7971 12.9996 17.2212 13.5275C22.3171 19.8719 32.4651 18.4495 35.7663 17.783L36.7212 20.0762C37.1117 21.0138 38.1104 21.5258 39.0955 21.2937C39.4817 21.2027 39.9019 21.1862 40.0853 21.2226C40.6342 21.3318 41.0481 21.8773 41.0481 22.4915V23.4302C41.0481 24.0704 40.6407 24.6365 40.101 24.747C39.994 24.7689 39.8877 24.7761 39.7843 24.7685C38.5816 24.6806 37.4636 25.5555 37.2423 26.7615C36.3001 31.8902 31.8306 35.6127 26.6146 35.6127C21.3984 35.6127 16.9288 31.8902 15.9868 26.7615ZM21.8029 49.5535C21.551 49.8052 21.2034 49.9296 20.8493 49.8943C20.4951 49.8593 20.1789 49.6694 19.9814 49.3732L14.9416 41.8133L17.0337 39.7212L24.8212 46.5351L21.8029 49.5535ZM25.3284 51.2724L25.4093 49.4143L26.6144 48.209L27.8197 49.4143L27.9006 51.2724H25.3284ZM26.6144 44.8465L19.4082 38.541V35.9345C21.4958 37.2872 23.9768 38.0646 26.6144 38.0646C29.252 38.0646 31.733 37.2872 33.8204 35.9345V38.541L26.6144 44.8465ZM33.2477 49.3731C33.0501 49.6694 32.7338 49.8593 32.3796 49.8943C32.1714 49.9154 31.7709 49.8979 31.4264 49.5535L28.4081 46.5351L36.1954 39.7212L38.2875 41.8133L33.2477 49.3731Z" fill="#FFAD00"/>
<path d="M75.9177 58.2086C75.9177 55.3652 73.6045 53.0521 70.7612 53.0521H62.8153V50.3473C62.8153 48.2264 61.0898 46.501 58.969 46.501H51.1074C48.9864 46.501 47.2611 48.2265 47.2611 50.3473V53.0521H39.3152C36.4718 53.0521 34.1587 55.3652 34.1587 58.2086V61.8482C34.1587 63.1899 34.6105 64.4784 35.4689 65.67V79.3057C35.4689 82.0755 37.7224 84.329 40.4922 84.329H69.5843C72.3541 84.329 74.6076 82.0755 74.6076 79.3057V65.67C75.4661 64.4783 75.9179 63.1898 75.9179 61.848L75.9177 58.2086ZM49.7127 50.3471C49.7128 49.5781 50.3385 48.9526 51.1074 48.9526H58.9689C59.7379 48.9526 60.3634 49.5783 60.3634 50.3471V53.0519H49.7127V50.3471ZM73.4658 61.8483C73.4658 63.9526 71.4746 66.0394 68.0561 67.5982V67.3805C68.0561 66.7035 67.5072 66.1546 66.8302 66.1546H61.5893C60.9123 66.1546 60.3634 66.7035 60.3634 67.3805V71.3111C60.3634 73.4321 62.089 75.1575 64.2097 75.1575C66.3305 75.1575 68.0561 73.4319 68.0561 71.3111V70.2628C69.6477 69.626 71.0219 68.8849 72.1556 68.0616V79.3058C72.1557 80.7238 71.0022 81.8772 69.5842 81.8772H40.4922C39.0743 81.8772 37.9207 80.7236 37.9207 79.3057V68.0614C39.0544 68.8847 40.4283 69.6258 42.0202 70.2628V71.3111C42.0202 73.4321 43.7457 75.1575 45.8665 75.1575C47.6882 75.1575 49.2171 73.884 49.6125 72.1809C51.3727 72.4161 53.1912 72.537 55.0382 72.537C55.4861 72.537 55.94 72.5298 56.3872 72.5156C57.0638 72.4942 57.5951 71.9282 57.5735 71.2515C57.5521 70.5748 56.9909 70.0418 56.3093 70.0652C55.8878 70.0786 55.4602 70.0853 55.038 70.0853C53.2206 70.0853 51.4346 69.9615 49.7127 69.7204V67.3805C49.7127 66.7035 49.1638 66.1546 48.4868 66.1546H43.2459C42.5689 66.1546 42.02 66.7035 42.02 67.3805V67.5982C38.6014 66.0394 36.6103 63.9524 36.6103 61.8483V58.2088C36.6103 56.7173 37.8236 55.504 39.3151 55.504H70.761C72.2525 55.504 73.4658 56.7173 73.4658 58.2088V61.8483ZM65.6046 68.6062V71.311C65.6046 72.08 64.9789 72.7055 64.2101 72.7055C63.4412 72.7055 62.8155 72.0798 62.8155 71.311V68.6062H65.6046ZM44.4718 71.311V68.6062H47.2609V71.311C47.2609 72.08 46.6352 72.7055 45.8663 72.7055C45.0975 72.7055 44.4718 72.08 44.4718 71.311Z" fill="#FFAD00"/>
</svg>
