<svg width="313" height="89" viewBox="0 0 313 89" fill="none" xmlns="http://www.w3.org/2000/svg">
<path d="M115.947 27.5275C113.05 25.9376 109.599 25.1426 105.587 25.1426H91.3313V65.0231H105.469C109.521 65.0231 113.002 64.2246 115.918 62.6277C118.832 61.0316 121.07 58.7401 122.636 55.7539C124.2 52.7677 124.981 49.1978 124.981 45.044C124.981 40.9024 124.2 37.3447 122.636 34.3734C121.069 31.4003 118.84 29.1183 115.947 27.5275ZM115.275 52.3174C114.411 54.1936 113.126 55.5759 111.419 56.4651C109.71 57.3543 107.61 57.7985 105.118 57.7985H99.7627V32.3672H105.138C107.63 32.3672 109.728 32.8078 111.428 33.6918C113.128 34.5741 114.412 35.9502 115.275 37.8194C116.136 39.6895 116.569 42.0971 116.569 45.044C116.569 48.0162 116.136 50.4413 115.275 52.3174Z" fill="#05164E"/>
<path d="M149.294 37.1185C148.105 36.3009 146.749 35.6961 145.224 35.3069C143.698 34.9177 142.105 34.7231 140.443 34.7231C138.054 34.7231 135.954 35.0835 134.144 35.8035C132.333 36.5243 130.855 37.5505 129.713 38.8804C128.571 40.2112 127.806 41.7854 127.417 43.6031L135.089 44.2271C135.374 43.2401 135.959 42.4189 136.843 41.7636C137.724 41.1074 138.911 40.7793 140.406 40.7793C141.82 40.7793 142.914 41.117 143.686 41.7924C144.458 42.4669 144.844 43.4216 144.844 44.6555V44.7716C144.844 45.4086 144.605 45.8886 144.126 46.2132C143.644 46.5378 142.872 46.7813 141.807 46.9427C140.742 47.1059 139.339 47.2778 137.601 47.4593C136.122 47.6024 134.709 47.8485 133.366 48.1993C132.023 48.5492 130.825 49.0693 129.773 49.7578C128.72 50.4464 127.89 51.3539 127.279 52.4831C126.669 53.6132 126.364 55.0085 126.364 56.67C126.364 58.6439 126.797 60.2889 127.661 61.6065C128.522 62.9242 129.7 63.9173 131.195 64.5849C132.688 65.2533 134.388 65.5875 136.296 65.5875C137.775 65.5875 139.08 65.3886 140.209 64.9941C141.34 64.598 142.306 64.0473 143.113 63.3387C143.915 62.631 144.559 61.8107 145.04 60.8753H145.272V65.0229H153.14V44.8492C153.14 43.0708 152.796 41.5428 152.109 40.2644C151.418 38.9851 150.481 37.9362 149.294 37.1185ZM144.903 54.3313C144.903 55.3837 144.635 56.3253 144.105 57.1552C143.572 57.986 142.839 58.6457 141.905 59.1317C140.97 59.6178 139.893 59.8621 138.672 59.8621C137.4 59.8621 136.351 59.5663 135.526 58.9755C134.703 58.3856 134.289 57.5252 134.289 56.396C134.289 55.6159 134.49 54.9649 134.894 54.4378C135.295 53.9125 135.86 53.4936 136.588 53.1829C137.316 52.8705 138.166 52.6445 139.139 52.5014C139.594 52.4368 140.1 52.3618 140.658 52.2772C141.215 52.1925 141.773 52.0956 142.333 51.9848C142.891 51.874 143.394 51.7518 143.841 51.6157C144.29 51.4787 144.642 51.3268 144.903 51.1576V54.3313Z" fill="#05164E"/>
<path d="M170.548 58.6456C170.158 58.7172 169.769 58.7529 169.378 58.7529C168.821 58.7529 168.33 58.6683 167.908 58.4999C167.487 58.3314 167.158 58.0356 166.926 57.6141C166.692 57.1927 166.576 56.5975 166.576 55.8313V41.3438H172.204V35.1131H166.576V27.947H158.28V35.1131H154.19V41.3438H158.28V56.9221C158.267 58.8821 158.676 60.5052 159.507 61.7906C160.337 63.076 161.502 64.0228 163.001 64.6337C164.5 65.2436 166.25 65.5098 168.249 65.4312C169.327 65.3937 170.242 65.2864 170.996 65.1101C171.749 64.9347 172.333 64.7829 172.748 64.6528L171.442 58.4798C171.235 58.5182 170.938 58.574 170.548 58.6456Z" fill="#05164E"/>
<path d="M198.648 40.2635C197.958 38.9851 197.021 37.9362 195.834 37.1185C194.645 36.3009 193.289 35.6961 191.764 35.3069C190.238 34.9177 188.644 34.7231 186.983 34.7231C184.594 34.7231 182.493 35.0835 180.684 35.8035C178.873 36.5243 177.395 37.5505 176.253 38.8804C175.111 40.2112 174.345 41.7854 173.957 43.6031L181.628 44.2271C181.914 43.2401 182.498 42.4189 183.382 41.7636C184.264 41.1074 185.451 40.7793 186.945 40.7793C188.36 40.7793 189.453 41.117 190.226 41.7924C190.998 42.4669 191.384 43.4216 191.384 44.6555V44.7716C191.384 45.4086 191.145 45.8886 190.666 46.2132C190.184 46.5378 189.412 46.7813 188.347 46.9427C187.282 47.1059 185.879 47.2778 184.141 47.4593C182.662 47.6024 181.249 47.8485 179.906 48.1993C178.563 48.5492 177.365 49.0693 176.313 49.7578C175.26 50.4464 174.43 51.3539 173.818 52.4831C173.209 53.6132 172.904 55.0085 172.904 56.67C172.904 58.6439 173.337 60.2889 174.201 61.6065C175.062 62.9242 176.24 63.9173 177.735 64.5849C179.228 65.2533 180.928 65.5875 182.835 65.5875C184.314 65.5875 185.62 65.3886 186.749 64.9941C187.88 64.598 188.846 64.0473 189.652 63.3387C190.455 62.631 191.098 61.8107 191.58 60.8753H191.812V65.0229H199.68V44.8492C199.679 43.0708 199.335 41.5419 198.648 40.2635ZM191.443 54.3313C191.443 55.3837 191.175 56.3253 190.645 57.1552C190.111 57.986 189.379 58.6457 188.445 59.1317C187.51 59.6178 186.432 59.8621 185.212 59.8621C183.94 59.8621 182.891 59.5663 182.066 58.9755C181.242 58.3856 180.829 57.5252 180.829 56.396C180.829 55.6159 181.03 54.9649 181.434 54.4378C181.835 53.9125 182.4 53.4936 183.128 53.1829C183.855 52.8705 184.705 52.6445 185.678 52.5014C186.134 52.4368 186.64 52.3618 187.198 52.2772C187.755 52.1925 188.313 52.0956 188.873 51.9848C189.431 51.874 189.933 51.7518 190.381 51.6157C190.83 51.4787 191.182 51.3268 191.443 51.1576V54.3313Z" fill="#05164E"/>
<path d="M234.718 45.8616C233.653 44.9131 232.395 44.1155 230.94 43.4662C229.486 42.817 227.891 42.2978 226.15 41.9077L222.567 41.0508C221.697 40.8571 220.88 40.6206 220.114 40.3405C219.347 40.0612 218.673 39.7314 218.088 39.3474C217.503 38.9643 217.046 38.507 216.716 37.9756C216.384 37.4433 216.232 36.8202 216.259 36.1055C216.259 35.2486 216.509 34.4833 217.009 33.807C217.509 33.1325 218.231 32.6036 219.18 32.2205C220.126 31.8375 221.288 31.6463 222.665 31.6463C224.691 31.6463 226.294 32.0818 227.476 32.9509C228.657 33.821 229.326 35.0418 229.48 36.6125H237.561C237.524 34.2363 236.887 32.1464 235.654 30.3418C234.42 28.538 232.697 27.1287 230.484 26.1164C228.271 25.1033 225.684 24.5972 222.724 24.5972C219.816 24.5972 217.219 25.1033 214.934 26.1164C212.65 27.1287 210.856 28.5371 209.55 30.3418C208.245 32.1472 207.6 34.2564 207.614 36.671C207.601 39.6188 208.567 41.9609 210.515 43.701C212.462 45.441 215.118 46.7203 218.48 47.538L222.822 48.6279C224.275 48.9778 225.506 49.3688 226.513 49.7972C227.517 50.2257 228.284 50.7441 228.809 51.3549C229.335 51.9649 229.598 52.718 229.598 53.6142C229.598 54.5749 229.306 55.4249 228.721 56.1649C228.137 56.9049 227.315 57.4826 226.258 57.8988C225.2 58.3142 223.958 58.521 222.529 58.521C221.074 58.521 219.773 58.2968 218.624 57.8491C217.475 57.4014 216.56 56.7321 215.877 55.8429C215.196 54.9537 214.811 53.8402 214.719 52.5042H206.559C206.623 55.3734 207.322 57.7775 208.654 59.7191C209.984 61.659 211.84 63.1233 214.223 64.1103C216.604 65.0964 219.404 65.5894 222.624 65.5894C225.87 65.5894 228.646 65.0981 230.949 64.119C233.254 63.1399 235.019 61.7576 236.246 59.9722C237.473 58.1868 238.093 56.0741 238.106 53.6334C238.093 51.9719 237.79 50.4988 237.201 49.2134C236.611 47.9263 235.783 46.8093 234.718 45.8616Z" fill="#FFAD00"/>
<path d="M261.834 37.1185C260.645 36.3009 259.289 35.6961 257.764 35.3069C256.238 34.9177 254.645 34.7231 252.983 34.7231C250.594 34.7231 248.494 35.0835 246.684 35.8035C244.873 36.5243 243.396 37.5505 242.253 38.8804C241.111 40.2112 240.346 41.7854 239.957 43.6031L247.629 44.2271C247.914 43.2401 248.499 42.4189 249.383 41.7636C250.264 41.1074 251.451 40.7793 252.946 40.7793C254.36 40.7793 255.454 41.117 256.226 41.7924C256.998 42.4669 257.384 43.4216 257.384 44.6555V44.7716C257.384 45.4086 257.145 45.8886 256.666 46.2132C256.184 46.5378 255.412 46.7813 254.347 46.9427C253.283 47.1059 251.879 47.2778 250.141 47.4593C248.662 47.6024 247.249 47.8485 245.906 48.1993C244.563 48.5492 243.365 49.0693 242.313 49.7578C241.26 50.4464 240.43 51.3539 239.819 52.4831C239.209 53.6132 238.904 55.0085 238.904 56.67C238.904 58.6439 239.337 60.2889 240.201 61.6065C241.062 62.9242 242.24 63.9173 243.735 64.5849C245.228 65.2533 246.928 65.5875 248.836 65.5875C250.315 65.5875 251.62 65.3886 252.749 64.9941C253.88 64.598 254.846 64.0473 255.653 63.3387C256.456 62.631 257.099 61.8107 257.58 60.8753H257.812V65.0229H265.68V44.8492C265.68 43.0708 265.336 41.5428 264.65 40.2644C263.959 38.9851 263.022 37.9362 261.834 37.1185ZM257.443 54.3313C257.443 55.3837 257.175 56.3253 256.645 57.1552C256.112 57.986 255.379 58.6457 254.445 59.1317C253.51 59.6178 252.433 59.8621 251.212 59.8621C249.94 59.8621 248.891 59.5663 248.066 58.9755C247.243 58.3856 246.829 57.5252 246.829 56.396C246.829 55.6159 247.03 54.9649 247.434 54.4378C247.836 53.9125 248.4 53.4936 249.128 53.1829C249.856 52.8705 250.706 52.6445 251.679 52.5014C252.134 52.4368 252.64 52.3618 253.198 52.2772C253.756 52.1925 254.313 52.0956 254.873 51.9848C255.431 51.874 255.934 51.7518 256.381 51.6157C256.83 51.4787 257.182 51.3268 257.443 51.1576V54.3313Z" fill="#FFAD00"/>
<path d="M284.919 41.3438V35.1132H278.962V33.107C278.962 32.0938 279.201 31.305 279.683 30.7404C280.163 30.1758 281.012 29.8939 282.233 29.8939C282.726 29.8939 283.211 29.9393 283.684 30.03C284.157 30.1217 284.556 30.2185 284.882 30.3224L286.361 24.0917C285.841 23.9355 285.054 23.7601 283.996 23.5655C282.938 23.3718 281.772 23.2732 280.499 23.2732C278.619 23.2732 276.936 23.631 275.456 24.3439C273.977 25.0586 272.811 26.1302 271.96 27.557C271.11 28.9864 270.686 30.7831 270.686 32.9508V35.1132H266.459V41.3438H270.686V65.0229H278.962V41.3438H284.919Z" fill="#FFAD00"/>
<path d="M313 52.1899V49.9114C313 47.3677 312.643 45.1442 311.929 43.2418C311.215 41.3412 310.22 39.76 308.941 38.5008C307.663 37.2416 306.17 36.2974 304.463 35.6673C302.753 35.0382 300.916 34.7231 298.941 34.7231C296.007 34.7231 293.455 35.3724 291.279 36.67C289.106 37.9685 287.421 39.7792 286.226 42.1031C285.032 44.4269 284.436 47.1268 284.436 50.2038C284.436 53.3584 285.032 56.088 286.226 58.3926C287.422 60.6964 289.124 62.4748 291.337 63.7279C293.551 64.981 296.197 65.6076 299.274 65.6076C301.739 65.6076 303.917 65.228 305.808 64.4688C307.695 63.7087 309.241 62.645 310.442 61.2749C311.643 59.9049 312.437 58.2984 312.827 56.4553L305.154 55.9492C304.869 56.7023 304.453 57.3385 303.909 57.8577C303.362 58.376 302.708 58.7661 301.941 59.0261C301.176 59.2862 300.332 59.4153 299.41 59.4153C298.02 59.4153 296.819 59.123 295.807 58.5392C294.794 57.9545 294.013 57.1238 293.462 56.0461C292.909 54.9692 292.634 53.69 292.634 52.2108V52.1908H313V52.1899ZM295.739 41.7819C296.705 41.2042 297.819 40.9154 299.077 40.9154C300.286 40.9154 301.346 41.1789 302.261 41.7043C303.178 42.2296 303.895 42.9539 304.414 43.8754C304.931 44.7978 305.192 45.8554 305.192 47.0492H292.64C292.689 45.975 292.967 44.9915 293.469 44.0997C294.014 43.1319 294.77 42.3596 295.739 41.7819Z" fill="#FFAD00"/>
<path d="M38.486 88.8801L0 66.66V22.2209L38.486 0L76.972 22.2209V66.66L38.486 88.8801ZM9.62172 61.1057L38.486 77.7705L67.3503 61.1057V27.7761L38.486 11.1104L9.62172 27.7761V61.1057Z" fill="#FFAD00"/>
<path d="M52.5164 41.151C51.7554 41.151 51.0285 41.2723 50.3217 41.4494C49.7815 35.3837 44.6923 30.627 38.4861 30.627C32.2799 30.627 27.1915 35.3837 26.6513 41.4494C25.9454 41.2731 25.2176 41.151 24.4566 41.151C19.4521 41.151 15.3943 45.2079 15.3943 50.2133V57.773L38.4861 71.1052L61.5778 57.773V50.2133C61.5778 45.2079 57.521 41.151 52.5164 41.151Z" fill="#05164E"/>
<path d="M0 22.2207L9.62172 27.7759V61.1055L0 66.6599V22.2207Z" fill="#F49600"/>
<path d="M76.9719 22.2207L67.3511 27.7759V61.1055L76.9719 66.6599V22.2207Z" fill="#F49600"/>
<path d="M61.5769 57.7669L38.4851 71.1026L15.3933 57.7669L38.4851 44.4321L61.5769 57.7669Z" fill="#0B2C7B"/>
</svg>
