<svg width="26" height="33" viewBox="0 0 26 33" fill="none" xmlns="http://www.w3.org/2000/svg">
<path d="M21.9532 11.4633L20.4425 14.8051H0.0406537L1.27667 11.4633H21.9532ZM19.0386 17.857L17.3753 21.2751H0.0406537L1.27667 17.857H19.0386ZM25.9206 3.11638L23.4791 8.3351C23.0722 8.05025 22.5788 7.73998 21.9989 7.40427C21.4293 7.05839 20.7731 6.76846 20.0305 6.53449C19.298 6.29034 18.4842 6.16826 17.589 6.16826C16.1749 6.16826 14.944 6.52431 13.8962 7.23642C12.8484 7.94853 12.0346 9.05738 11.4547 10.563C10.885 12.0686 10.6002 14.0014 10.6002 16.3615C10.6002 18.742 10.885 20.68 11.4547 22.1754C12.0346 23.6606 12.8484 24.7542 13.8962 25.4562C14.944 26.1479 16.1749 26.4938 17.589 26.4938C18.4842 26.4938 19.298 26.3768 20.0305 26.1428C20.7629 25.9089 21.4038 25.6291 21.9532 25.3036C22.5127 24.978 22.9806 24.6779 23.357 24.4033L25.8291 29.622C24.7202 30.5375 23.4639 31.2293 22.06 31.6973C20.6561 32.155 19.1658 32.3839 17.589 32.3839C14.9237 32.3839 12.5635 31.7532 10.5086 30.4918C8.46385 29.2201 6.86161 27.3941 5.7019 25.0136C4.54218 22.623 3.96232 19.739 3.96232 16.3615C3.96232 12.9943 4.54218 10.1103 5.7019 7.70946C6.86161 5.30865 8.46385 3.47243 10.5086 2.20081C12.5635 0.919022 14.9237 0.278127 17.589 0.278127C19.2268 0.278127 20.7426 0.522277 22.1363 1.01058C23.53 1.49888 24.7914 2.20081 25.9206 3.11638Z" fill="#FFAD00"/>
</svg>
