<svg width="75" height="72" viewBox="0 0 75 72" fill="none" xmlns="http://www.w3.org/2000/svg">
<path fill-rule="evenodd" clip-rule="evenodd" d="M28.0381 58.4436L51.3267 71.8894L74.6154 58.4436V31.5526L51.3267 18.1063L28.0381 31.5526V58.4436Z" fill="#FFAD00" fill-opacity="0.1"/>
<path d="M43.0177 4.79498L28.6321 0.438693C28.3006 0.336447 27.9411 0.351939 27.6189 0.478971L1.72594 10.6447C1.13416 10.8771 0.743763 11.4472 0.743763 12.0854V39.6577C0.740665 39.9211 0.802632 40.1751 0.932763 40.4013C0.935861 40.4044 0.935861 40.4044 0.935861 40.4075V40.4106V40.4137C0.935861 40.4168 0.935861 40.4168 0.935861 40.4168C0.948254 40.4416 0.963746 40.4664 0.979238 40.4912C0.979238 40.4943 0.979238 40.4943 0.979238 40.4973C0.982336 40.4973 0.982336 40.5005 0.982336 40.5005C0.982336 40.5035 0.982336 40.5035 0.982336 40.5035C0.982336 40.5035 0.982336 40.5035 0.982336 40.5066C0.982336 40.5066 0.982336 40.5066 0.982336 40.5097C1.15584 40.7855 1.41301 41.0055 1.73524 41.1294C1.75693 41.1387 1.78171 41.1449 1.8065 41.1542L27.6933 49.8637C27.8544 49.9164 28.0186 49.9442 28.1859 49.9442C28.3377 49.9442 28.4895 49.9226 28.6352 49.8792L43.0208 45.5229C43.6715 45.3246 44.1208 44.7235 44.1208 44.0388V6.276C44.1208 5.59436 43.6715 4.99018 43.0177 4.79498ZM41.0224 42.8893L28.2107 46.7684L16.849 42.945L28.0062 44.2526C28.4121 44.2928 28.8861 44.1627 29.2146 43.8684C29.5461 43.574 29.7351 43.1557 29.7351 42.7127V10.6354C29.7351 10.1799 29.5337 9.74616 29.1867 9.45181C28.8397 9.16057 28.3811 9.03973 27.9287 9.10789L10.6678 12.0111C9.9211 12.135 9.37579 12.7825 9.37579 13.5385V35.6639L3.84212 37.5291V13.142L28.2541 3.55874L41.0224 7.42549V42.8893ZM9.33241 38.9482L11.4207 38.2448C12.0497 38.0311 12.4741 37.4424 12.4741 36.7762V14.8492L26.6367 12.4665V40.9714L9.33241 38.9482Z" fill="#FFAD00"/>
</svg>
