<svg width="78" height="75" viewBox="0 0 78 75" fill="none" xmlns="http://www.w3.org/2000/svg">
<path fill-rule="evenodd" clip-rule="evenodd" d="M30.7354 60.8609L54.024 74.3066L77.3127 60.8609V33.9699L54.024 20.5236L30.7354 33.9699V60.8609Z" fill="#FFAD00" fill-opacity="0.1"/>
<path d="M56.0565 45.4291L50.8021 15.6299C50.4402 13.5776 49.0724 11.8817 47.1431 11.0937L34.605 5.97214C34.0651 5.75161 33.5025 5.61519 32.9356 5.55893L32.2587 1.71976C32.101 0.825138 31.2484 0.227917 30.3532 0.385502C29.4585 0.543197 28.8611 1.39637 29.0189 2.291L29.696 6.1306C29.1902 6.37394 28.7151 6.68933 28.2882 7.07381L26.868 8.3528L26.6575 8.16177C26.2255 7.76984 25.7435 7.44918 25.2301 7.20244L26.0961 2.291C26.2538 1.39637 25.6565 0.543197 24.7619 0.385502C23.8673 0.227259 23.0141 0.825029 22.8564 1.71976L21.9902 6.63154C21.4317 6.68725 20.8774 6.82115 20.3447 7.03652L7.69356 12.1491C5.75287 12.9334 4.37716 14.6323 4.01362 16.6938L0.0941822 38.9226C-0.4833 42.1979 1.71148 45.3323 4.98666 45.9097L21.0061 48.7344L21.4978 51.5228C22.0131 54.4454 24.564 56.5075 27.4345 56.5075C27.781 56.5075 28.1322 56.4775 28.4849 56.4153L51.1642 52.4163C54.4392 51.8388 56.634 48.7044 56.0565 45.4291ZM50.5928 49.1764L27.9135 53.1753C27.1923 53.3024 26.4649 53.1412 25.8649 52.7211C25.2651 52.3011 24.8647 51.6725 24.7375 50.9514L24.4538 49.3423L27.6657 49.9087C28.0196 49.9711 28.3739 50.0019 28.7258 50.0019C29.952 50.0019 31.1472 49.6275 32.1725 48.9096C33.4923 47.9855 34.3731 46.6028 34.6529 45.0163L38.5743 22.7768C38.9362 20.7244 38.2307 18.663 36.6874 17.2628L29.3166 10.5748L30.4894 9.51851C31 9.05881 31.6617 8.81634 32.3302 8.81634C32.6787 8.81634 33.0292 8.88236 33.3608 9.01779L45.8988 14.1394C46.7758 14.4976 47.3976 15.2683 47.5621 16.2012L52.8166 46.0003C53.0792 47.4891 52.0815 48.9138 50.5928 49.1764ZM3.33394 39.4938L7.2536 17.2651C7.41886 16.328 8.04416 15.5558 8.92628 15.1992L21.3657 10.1721L21.0092 12.1943C20.8515 13.0889 21.4488 13.9421 22.3435 14.0998C22.4401 14.1169 22.5361 14.125 22.631 14.125C23.4142 14.125 24.1083 13.5634 24.249 12.7654L24.6057 10.7425L34.4768 19.6991C35.1782 20.3356 35.4989 21.2726 35.3345 22.2055L31.4131 44.445C31.2859 45.1661 30.8855 45.7946 30.2857 46.2146C29.6858 46.6347 28.9583 46.7959 28.2371 46.6688L5.55778 42.6699C4.06911 42.4074 3.07152 40.9826 3.33394 39.4938Z" fill="#FFAD00"/>
<path d="M16.5727 38.6154L16.3101 40.1049C16.2049 40.7013 16.6032 41.27 17.1997 41.3752C17.2641 41.3866 17.3281 41.392 17.3914 41.392C17.9135 41.392 18.3762 41.0176 18.47 40.4856L18.7472 38.9137C19.8742 38.9102 20.9499 38.597 21.9044 37.9871C23.0406 37.261 23.9153 36.1601 24.3672 34.8869C25.2873 32.295 24.2985 29.7256 21.8482 28.3412C21.4433 28.1124 21.0709 27.896 20.7264 27.6895L21.8221 21.4759C22.5922 21.7596 23.0355 22.2268 23.3306 22.5385C23.4146 22.6272 23.494 22.7111 23.5751 22.7861C24.0199 23.1972 24.7136 23.1699 25.1248 22.7253C25.5359 22.2807 25.5087 21.5868 25.064 21.1757C25.0365 21.1503 24.9789 21.0895 24.9233 21.0307C24.5257 20.6106 23.6945 19.733 22.2064 19.2961L22.4329 18.0115C22.538 17.4151 22.1397 16.8463 21.5433 16.7412C20.9468 16.6361 20.3781 17.0342 20.273 17.6308L20.0237 19.0442C19.7978 19.0526 19.5641 19.0695 19.32 19.0985C17.5146 19.3127 15.9744 20.5556 15.3002 22.3423C14.6874 23.9664 14.9369 25.6779 15.9514 26.8088C16.5175 27.44 17.2568 28.0566 18.3104 28.7601L16.9536 36.4552C15.8855 36.209 15.2344 35.8641 14.19 34.8837C13.7485 34.4692 13.0544 34.491 12.6399 34.9326C12.2254 35.3741 12.2472 36.0682 12.6888 36.4827C14.1104 37.817 15.1413 38.2965 16.5727 38.6154ZM22.3003 34.1534C21.8724 35.3589 20.7433 36.5248 19.138 36.6978L20.3199 29.9945C20.4655 30.0784 20.6152 30.1639 20.7691 30.2508C23.0232 31.5243 22.5111 33.5599 22.3003 34.1534ZM17.584 25.3443C17.1184 24.8252 17.0296 23.9716 17.3522 23.1165C17.6531 22.3189 18.396 21.4167 19.5783 21.2765C19.5961 21.2744 19.6132 21.273 19.631 21.271L18.7318 26.3709C18.2519 26.0071 17.8771 25.6708 17.584 25.3443Z" fill="#FFAD00"/>
</svg>
