<svg width="69" height="69" viewBox="0 0 69 69" fill="none" xmlns="http://www.w3.org/2000/svg">
<path fill-rule="evenodd" clip-rule="evenodd" d="M22.0547 55.4435L45.3433 68.8893L68.632 55.4435V28.5525L45.3433 15.1062L22.0547 28.5525V55.4435Z" fill="#FFAD00" fill-opacity="0.1"/>
<path d="M9.20126 6.88456C8.93954 6.88456 8.67783 6.78437 8.47746 6.58604L5.112 3.21853L1.74653 6.58604C1.34783 6.98474 0.699683 6.98474 0.30098 6.58604C-0.0977226 6.18734 -0.0977226 5.53919 0.30098 5.14049L4.39024 1.05122C4.78894 0.652522 5.43709 0.652522 5.8358 1.05122L9.92506 5.14049C10.3238 5.53919 10.3238 6.18734 9.92506 6.58604C9.72468 6.78437 9.46297 6.88456 9.20126 6.88456Z" fill="#FFAD00"/>
<path d="M43.9603 49.8219C43.6986 49.8219 43.4369 49.7217 43.2365 49.5234C42.8378 49.1246 42.8378 48.4765 43.2365 48.0778L46.602 44.7123L43.2365 41.3469C42.8378 40.9482 42.8378 40.3 43.2365 39.9013C43.6352 39.5026 44.2834 39.5026 44.6821 39.9013L48.7713 43.9906C49.17 44.3893 49.17 45.0374 48.7713 45.4361L44.6821 49.5254C44.4838 49.7217 44.222 49.8219 43.9603 49.8219Z" fill="#FFAD00"/>
<path d="M5.11216 49.8219C4.54784 49.8219 4.08984 49.3639 4.08984 48.7996V2.28428C4.08984 1.71996 4.54784 1.26196 5.11216 1.26196C5.67648 1.26196 6.13447 1.71996 6.13447 2.28428V48.7996C6.13447 49.3639 5.67648 49.8219 5.11216 49.8219Z" fill="#FFAD00"/>
<path d="M47.5377 45.7326H1.02232C0.457997 45.7326 0 45.2746 0 44.7103C0 44.146 0.457997 43.688 1.02232 43.688H47.5377C48.102 43.688 48.56 44.146 48.56 44.7103C48.56 45.2746 48.102 45.7326 47.5377 45.7326Z" fill="#FFAD00"/>
<path d="M26.58 21.1972C26.4553 21.1972 26.3305 21.1747 26.212 21.1298L12.9219 16.0182C12.5272 15.8669 12.2676 15.4866 12.2676 15.0633C12.2676 14.6401 12.5272 14.2598 12.9219 14.1085L26.212 8.99692C26.4471 8.90695 26.7108 8.90695 26.946 8.99692L40.2361 14.1085C40.6327 14.2598 40.8924 14.6401 40.8924 15.0633C40.8924 15.4866 40.6327 15.8669 40.2381 16.0182L26.948 21.1298C26.8294 21.1747 26.7047 21.1972 26.58 21.1972ZM16.1381 15.0633L26.58 19.079L37.0219 15.0633L26.58 11.0477L16.1381 15.0633Z" fill="#FFAD00"/>
<path d="M26.58 37.5543C26.4553 37.5543 26.3305 37.5318 26.212 37.4868L12.9219 32.3752C12.5272 32.2239 12.2676 31.8436 12.2676 31.4204V15.0633C12.2676 14.499 12.7256 14.041 13.2899 14.041C13.8542 14.041 14.3122 14.499 14.3122 15.0633V30.7191L26.58 35.4381L38.8478 30.7191V15.0633C38.8478 14.499 39.3058 14.041 39.8701 14.041C40.4344 14.041 40.8924 14.499 40.8924 15.0633V31.4204C40.8924 31.8436 40.6327 32.2239 40.2381 32.3752L26.948 37.4868C26.8294 37.5318 26.7047 37.5543 26.58 37.5543Z" fill="#FFAD00"/>
<path d="M26.5809 37.5543C26.0166 37.5543 25.5586 37.0963 25.5586 36.5319V20.1749C25.5586 19.6106 26.0166 19.1526 26.5809 19.1526C27.1452 19.1526 27.6032 19.6106 27.6032 20.1749V36.5319C27.6032 37.0963 27.1452 37.5543 26.5809 37.5543Z" fill="#FFAD00"/>
</svg>
