<svg width="313" height="90" viewBox="0 0 313 90" fill="none" xmlns="http://www.w3.org/2000/svg">
<path d="M115.947 27.8717C113.051 26.2818 109.599 25.4868 105.587 25.4868H91.3315V65.3673H105.469C109.521 65.3673 113.002 64.5688 115.918 62.9719C118.832 61.3759 121.07 59.0843 122.637 56.0981C124.2 53.112 124.981 49.542 124.981 45.3882C124.981 41.2467 124.2 37.6889 122.637 34.7176C121.069 31.7445 118.841 29.4626 115.947 27.8717ZM115.275 52.6617C114.411 54.5379 113.127 55.9201 111.42 56.8093C109.71 57.6986 107.611 58.1427 105.118 58.1427H99.763V32.7114H105.138C107.631 32.7114 109.729 33.1521 111.428 34.0361C113.128 34.9183 114.412 36.2945 115.275 38.1636C116.136 40.0337 116.569 42.4413 116.569 45.3882C116.569 48.3604 116.136 50.7855 115.275 52.6617Z" fill="white"/>
<path d="M149.295 37.4628C148.105 36.6451 146.749 36.0404 145.225 35.6512C143.698 35.262 142.105 35.0674 140.443 35.0674C138.054 35.0674 135.955 35.4278 134.145 36.1477C132.333 36.8685 130.856 37.8947 129.713 39.2246C128.571 40.5554 127.806 42.1296 127.418 43.9474L135.089 44.5713C135.374 43.5843 135.959 42.7632 136.843 42.1078C137.724 41.4516 138.911 41.1235 140.406 41.1235C141.82 41.1235 142.914 41.4612 143.686 42.1366C144.458 42.8112 144.844 43.7658 144.844 44.9998V45.1158C144.844 45.7528 144.605 46.2328 144.126 46.5574C143.644 46.882 142.872 47.1255 141.807 47.287C140.743 47.4501 139.34 47.622 137.601 47.8035C136.122 47.9467 134.709 48.1927 133.366 48.5435C132.023 48.8935 130.825 49.4136 129.774 50.1021C128.72 50.7906 127.891 51.6981 127.279 52.8273C126.67 53.9574 126.364 55.3528 126.364 57.0143C126.364 58.9882 126.797 60.6331 127.661 61.9508C128.522 63.2685 129.7 64.2615 131.195 64.9291C132.688 65.5975 134.388 65.9318 136.296 65.9318C137.775 65.9318 139.08 65.7328 140.21 65.3384C141.341 64.9422 142.307 64.3915 143.113 63.683C143.916 62.9753 144.559 62.155 145.04 61.2195H145.273V65.3672H153.14V45.1935C153.14 43.415 152.797 41.8871 152.11 40.6086C151.419 39.3294 150.481 38.2804 149.295 37.4628ZM144.903 54.6756C144.903 55.728 144.636 56.6696 144.105 57.4994C143.572 58.3302 142.84 58.9899 141.905 59.476C140.971 59.962 139.893 60.2064 138.672 60.2064C137.401 60.2064 136.352 59.9105 135.526 59.3198C134.703 58.7299 134.29 57.8694 134.29 56.7403C134.29 55.9601 134.49 55.3091 134.894 54.782C135.296 54.2567 135.86 53.8378 136.588 53.5272C137.316 53.2148 138.166 52.9888 139.139 52.8457C139.594 52.7811 140.1 52.706 140.658 52.6214C141.216 52.5368 141.773 52.4399 142.334 52.3291C142.891 52.2182 143.394 52.0961 143.841 51.9599C144.29 51.8229 144.643 51.6711 144.903 51.5018V54.6756V54.6756Z" fill="white"/>
<path d="M170.548 58.9898C170.158 59.0614 169.77 59.0972 169.379 59.0972C168.821 59.0972 168.33 59.0125 167.908 58.8441C167.487 58.6757 167.159 58.3799 166.927 57.9584C166.693 57.5369 166.577 56.9418 166.577 56.1756V41.688H172.204V35.4574H166.577V28.2913H158.28V35.4574H154.19V41.688H158.28V57.2664C158.267 59.2263 158.676 60.8494 159.507 62.1348C160.337 63.4202 161.502 64.367 163.001 64.9779C164.501 65.5879 166.25 65.854 168.25 65.7755C169.327 65.738 170.242 65.6306 170.997 65.4543C171.749 65.2789 172.333 65.1271 172.748 64.9971L171.443 58.824C171.235 58.8624 170.938 58.9183 170.548 58.9898Z" fill="white"/>
<path d="M198.648 40.6078C197.959 39.3294 197.021 38.2804 195.835 37.4628C194.645 36.6451 193.289 36.0404 191.765 35.6512C190.238 35.262 188.645 35.0674 186.983 35.0674C184.594 35.0674 182.494 35.4278 180.685 36.1477C178.873 36.8685 177.396 37.8947 176.253 39.2246C175.111 40.5554 174.346 42.1296 173.958 43.9474L181.629 44.5713C181.914 43.5843 182.499 42.7632 183.383 42.1078C184.264 41.4516 185.451 41.1235 186.946 41.1235C188.36 41.1235 189.454 41.4612 190.226 42.1366C190.998 42.8112 191.384 43.7658 191.384 44.9998V45.1158C191.384 45.7528 191.145 46.2328 190.666 46.5574C190.184 46.882 189.412 47.1255 188.347 47.287C187.283 47.4501 185.88 47.622 184.141 47.8035C182.662 47.9467 181.249 48.1927 179.906 48.5435C178.563 48.8935 177.365 49.4136 176.314 50.1021C175.26 50.7906 174.431 51.6981 173.819 52.8273C173.21 53.9574 172.904 55.3528 172.904 57.0143C172.904 58.9882 173.337 60.6331 174.201 61.9508C175.062 63.2685 176.24 64.2615 177.735 64.9291C179.228 65.5975 180.928 65.9318 182.836 65.9318C184.315 65.9318 185.62 65.7328 186.75 65.3384C187.881 64.9422 188.847 64.3915 189.653 63.683C190.456 62.9753 191.099 62.155 191.581 61.2195H191.813V65.3672H199.68V45.1935C199.679 43.415 199.336 41.8862 198.648 40.6078ZM191.444 54.6756C191.444 55.728 191.176 56.6696 190.645 57.4994C190.112 58.3302 189.38 58.9899 188.445 59.476C187.511 59.962 186.433 60.2064 185.212 60.2064C183.941 60.2064 182.892 59.9105 182.066 59.3198C181.242 58.7299 180.83 57.8694 180.83 56.7403C180.83 55.9601 181.03 55.3091 181.434 54.782C181.836 54.2567 182.4 53.8378 183.128 53.5272C183.856 53.2148 184.706 52.9888 185.679 52.8457C186.134 52.7811 186.641 52.706 187.198 52.6214C187.756 52.5368 188.313 52.4399 188.874 52.3291C189.431 52.2182 189.934 52.0961 190.382 51.9599C190.83 51.8229 191.183 51.6711 191.444 51.5018V54.6756V54.6756Z" fill="white"/>
<path d="M234.718 46.2059C233.654 45.2573 232.395 44.4597 230.941 43.8105C229.486 43.1612 227.891 42.642 226.15 42.2519L222.567 41.395C221.697 41.2013 220.88 40.9648 220.115 40.6847C219.347 40.4054 218.673 40.0756 218.088 39.6916C217.504 39.3085 217.046 38.8513 216.717 38.3198C216.384 37.7875 216.232 37.1645 216.259 36.4498C216.259 35.5928 216.509 34.8275 217.009 34.1512C217.509 33.4767 218.232 32.9479 219.18 32.5648C220.126 32.1817 221.288 31.9906 222.665 31.9906C224.692 31.9906 226.294 32.426 227.476 33.2952C228.657 34.1652 229.326 35.386 229.48 36.9568H237.561C237.524 34.5806 236.888 32.4906 235.654 30.686C234.42 28.8822 232.697 27.4729 230.484 26.4607C228.271 25.4475 225.685 24.9414 222.724 24.9414C219.816 24.9414 217.219 25.4475 214.935 26.4607C212.65 27.4729 210.856 28.8814 209.55 30.686C208.245 32.4915 207.6 34.6006 207.614 37.0152C207.601 39.963 208.567 42.3052 210.515 44.0452C212.462 45.7853 215.118 47.0646 218.48 47.8822L222.822 48.9721C224.275 49.3221 225.507 49.713 226.513 50.1415C227.517 50.5699 228.284 51.0883 228.809 51.6991C229.335 52.3091 229.599 53.0622 229.599 53.9584C229.599 54.9192 229.306 55.7691 228.722 56.5091C228.137 57.2491 227.316 57.8268 226.258 58.2431C225.2 58.6584 223.958 58.8653 222.529 58.8653C221.075 58.8653 219.773 58.641 218.624 58.1933C217.475 57.7457 216.56 57.0763 215.877 56.1871C215.196 55.2979 214.811 54.1844 214.719 52.8484H206.559C206.624 55.7176 207.322 58.1218 208.654 60.0634C209.984 62.0033 211.84 63.4676 214.223 64.4545C216.604 65.4406 219.404 65.9336 222.624 65.9336C225.871 65.9336 228.646 65.4423 230.949 64.4632C233.254 63.4841 235.019 62.1019 236.246 60.3165C237.473 58.531 238.094 56.4184 238.107 53.9776C238.094 52.3161 237.79 50.8431 237.201 49.5577C236.611 48.2705 235.783 47.1536 234.718 46.2059Z" fill="#FFAD00"/>
<path d="M261.835 37.4628C260.645 36.6451 259.289 36.0404 257.765 35.6512C256.238 35.262 254.645 35.0674 252.983 35.0674C250.594 35.0674 248.495 35.4278 246.685 36.1477C244.873 36.8685 243.396 37.8947 242.253 39.2246C241.111 40.5554 240.346 42.1296 239.958 43.9474L247.629 44.5713C247.914 43.5843 248.499 42.7632 249.383 42.1078C250.264 41.4516 251.451 41.1235 252.946 41.1235C254.36 41.1235 255.454 41.4612 256.226 42.1366C256.998 42.8112 257.384 43.7658 257.384 44.9998V45.1158C257.384 45.7528 257.145 46.2328 256.666 46.5574C256.184 46.882 255.412 47.1255 254.347 47.287C253.283 47.4501 251.88 47.622 250.141 47.8035C248.662 47.9467 247.249 48.1927 245.906 48.5435C244.563 48.8935 243.365 49.4136 242.314 50.1021C241.26 50.7906 240.431 51.6981 239.819 52.8273C239.21 53.9574 238.904 55.3528 238.904 57.0143C238.904 58.9882 239.337 60.6331 240.201 61.9508C241.062 63.2685 242.24 64.2615 243.735 64.9291C245.228 65.5975 246.928 65.9318 248.836 65.9318C250.315 65.9318 251.62 65.7328 252.75 65.3384C253.881 64.9422 254.847 64.3915 255.653 63.683C256.457 62.9753 257.099 62.155 257.581 61.2195H257.813V65.3672H265.68V45.1935C265.68 43.415 265.337 41.8871 264.65 40.6086C263.96 39.3294 263.022 38.2804 261.835 37.4628ZM257.444 54.6756C257.444 55.728 257.176 56.6696 256.645 57.4994C256.112 58.3302 255.38 58.9899 254.445 59.476C253.511 59.962 252.433 60.2064 251.212 60.2064C249.941 60.2064 248.892 59.9105 248.066 59.3198C247.243 58.7299 246.83 57.8694 246.83 56.7403C246.83 55.9601 247.03 55.3091 247.434 54.782C247.836 54.2567 248.4 53.8378 249.128 53.5272C249.856 53.2148 250.706 52.9888 251.679 52.8457C252.134 52.7811 252.641 52.706 253.198 52.6214C253.756 52.5368 254.313 52.4399 254.874 52.3291C255.431 52.2182 255.934 52.0961 256.382 51.9599C256.83 51.8229 257.183 51.6711 257.444 51.5018V54.6756V54.6756Z" fill="#FFAD00"/>
<path d="M284.919 41.688V35.4574H278.962V33.4512C278.962 32.4381 279.201 31.6492 279.683 31.0846C280.163 30.52 281.012 30.2381 282.233 30.2381C282.726 30.2381 283.211 30.2835 283.684 30.3743C284.157 30.4659 284.556 30.5628 284.882 30.6666L286.361 24.436C285.841 24.2798 285.054 24.1044 283.996 23.9098C282.938 23.716 281.772 23.6174 280.499 23.6174C278.619 23.6174 276.936 23.9752 275.456 24.6882C273.977 25.4029 272.811 26.4745 271.96 27.9012C271.11 29.3306 270.686 31.1274 270.686 33.295V35.4574H266.459V41.688H270.686V65.3671H278.962V41.688H284.919Z" fill="#FFAD00"/>
<path d="M313 52.5341V50.2557C313 47.7119 312.643 45.4884 311.929 43.5861C311.216 41.6855 310.22 40.1043 308.941 38.845C307.663 37.5858 306.17 36.6416 304.463 36.0116C302.754 35.3824 300.916 35.0674 298.941 35.0674C296.007 35.0674 293.455 35.7166 291.279 37.0142C289.106 38.3127 287.421 40.1235 286.226 42.4473C285.032 44.7711 284.436 47.4711 284.436 50.548C284.436 53.7026 285.032 56.4322 286.226 58.7369C287.422 61.0406 289.124 62.8191 291.338 64.0722C293.552 65.3253 296.197 65.9518 299.274 65.9518C301.74 65.9518 303.918 65.5722 305.808 64.813C307.695 64.053 309.242 62.9892 310.442 61.6192C311.643 60.2491 312.437 58.6426 312.827 56.7996L305.154 56.2935C304.869 57.0465 304.453 57.6827 303.909 58.2019C303.363 58.7203 302.708 59.1103 301.941 59.3704C301.176 59.6304 300.332 59.7596 299.411 59.7596C298.02 59.7596 296.82 59.4672 295.807 58.8834C294.794 58.2988 294.013 57.468 293.463 56.3903C292.909 55.3135 292.634 54.0342 292.634 52.5551V52.535H313V52.5341ZM295.739 42.1262C296.705 41.5485 297.819 41.2596 299.077 41.2596C300.287 41.2596 301.346 41.5232 302.261 42.0485C303.179 42.5738 303.895 43.2981 304.414 44.2196C304.932 45.142 305.193 46.1996 305.193 47.3934H292.641C292.689 46.3192 292.967 45.3357 293.47 44.4439C294.014 43.4761 294.771 42.7038 295.739 42.1262Z" fill="#FFAD00"/>
<path d="M38.486 89.2243L0 67.0043V22.5651L38.486 0.344238L76.972 22.5651V67.0043L38.486 89.2243ZM9.62172 61.4499L38.486 78.1147L67.3503 61.4499V28.1203L38.486 11.4547L9.62172 28.1203V61.4499Z" fill="#FFAD00"/>
<path d="M52.5161 41.4952C51.7552 41.4952 51.0283 41.6165 50.3214 41.7937C49.7813 35.7279 44.692 30.9712 38.4858 30.9712C32.2796 30.9712 27.1913 35.7279 26.6511 41.7937C25.9451 41.6174 25.2173 41.4952 24.4564 41.4952C19.4518 41.4952 15.394 45.5521 15.394 50.5576V58.1173L38.4858 71.4494L61.5776 58.1173V50.5576C61.5776 45.5521 57.5207 41.4952 52.5161 41.4952Z" fill="white"/>
<path d="M0 22.5649L9.62172 28.1202V61.4497L0 67.0041V22.5649Z" fill="#F49600"/>
<path d="M76.9719 22.5649L67.3511 28.1202V61.4497L76.9719 67.0041V22.5649Z" fill="#F49600"/>
<path d="M61.5771 58.1112L38.4853 71.4468L15.3936 58.1112L38.4853 44.7764L61.5771 58.1112Z" fill="#E0E0E0"/>
</svg>
