<svg width="23" height="22" viewBox="0 0 23 22" fill="none" xmlns="http://www.w3.org/2000/svg">
<path d="M21.8859 20.2322C21.9521 13.0437 21.9153 6.43028 22.002 0.109863C14.8181 0.182615 8.19216 0.137726 1.87966 0.225959C1.85683 1.86986 1.8518 3.12246 1.8309 4.69364C6.14028 4.67275 10.5967 4.65417 14.335 4.63521L0.82241 18.1478C0.408729 18.5615 0.406799 19.3119 0.816993 19.7232L2.38808 21.2943C2.79943 21.7056 3.54983 21.7037 3.96343 21.2889L17.4761 7.77623C17.4393 11.9401 17.4621 16.1043 17.4052 20.2685C18.9215 20.2685 20.5579 20.2356 21.8853 20.2317L21.8859 20.2322Z" fill="white"/>
</svg>
