<svg width="291" height="270" viewBox="0 0 291 270" fill="none" xmlns="http://www.w3.org/2000/svg">
<path fill-rule="evenodd" clip-rule="evenodd" d="M78.7827 184.145L184.71 245.302L290.637 184.145L290.637 61.8322L184.71 0.672365L78.7827 61.8322L78.7827 184.145Z" fill="#FFAD00" fill-opacity="0.1"/>
<path d="M8.08496 205.904V210.041C8.08496 216.844 13.6521 222.379 20.4929 222.379H226.135C232.976 222.379 238.543 216.844 238.543 210.041V205.904H8.08496Z" fill="white"/>
<path d="M123.317 48.8436C109.466 57.4439 93.7297 62.9789 76.459 65.3284C78.297 87.3051 83.8352 106.524 92.9337 122.495C98.5684 132.387 108.352 145.706 123.312 154.009C138.272 145.701 148.055 132.387 153.695 122.495C162.798 106.524 168.331 87.3051 170.169 65.3284C152.904 62.9741 137.172 57.4391 123.317 48.8436Z" fill="#F9AF38"/>
<path d="M226.13 50.7895H192.447C192.452 50.1841 192.462 49.5787 192.462 48.9685C192.462 46.8641 190.759 45.1488 188.646 45.1248C163.854 44.8557 142.69 37.8168 125.743 24.2003C124.329 23.0664 122.308 23.0664 120.895 24.2003C103.947 37.8168 82.7832 44.8557 57.9915 45.1248C55.8785 45.1488 54.1755 46.8641 54.1755 48.9685C54.1755 49.5787 54.1852 50.1841 54.19 50.7895H20.4929C9.39715 50.7895 0.366211 59.7791 0.366211 70.825V210.041C0.366211 221.082 9.39232 230.067 20.4929 230.067H100.884L98.9443 247.609C98.1965 254.374 93.5798 261.658 85.2146 261.658H67.6351C65.5028 261.658 63.7757 263.378 63.7757 265.501C63.7757 267.625 65.5028 269.345 67.6351 269.345H178.993C181.125 269.345 182.852 267.625 182.852 265.501C182.852 263.378 181.125 261.658 178.993 261.658H161.423C153.053 261.658 148.441 254.374 147.693 247.609L145.754 230.067H226.13C237.226 230.067 246.257 221.082 246.257 210.041V70.825C246.257 59.7791 237.231 50.7895 226.13 50.7895ZM123.316 32.0656C140.307 44.8749 160.931 51.8081 184.709 52.7162C183.6 119.645 152.739 156.68 123.316 169.412C93.8885 156.68 63.0328 119.645 61.9232 52.7162C85.7066 51.8081 106.33 44.8749 123.316 32.0656ZM20.4929 58.477H54.383C55.6132 86.8246 62.3767 112.467 74.1285 133.108C86.0781 154.085 102.582 169.316 121.859 177.148C122.327 177.34 122.819 177.431 123.316 177.431C123.813 177.431 124.305 177.335 124.773 177.148C144.051 169.316 160.559 154.09 172.504 133.108C184.256 112.472 191.019 86.8294 192.25 58.477H226.13C232.971 58.477 238.538 64.0168 238.538 70.825V198.217H8.08496V70.825C8.08496 64.0168 13.6473 58.477 20.4929 58.477ZM140.018 248.45C140.587 253.591 142.541 258.131 145.445 261.658H101.188C104.092 258.131 106.046 253.591 106.615 248.45L108.646 230.067H137.987L140.018 248.45ZM226.13 222.379H20.4929C13.6521 222.379 8.08496 216.844 8.08496 210.041V205.904H238.543V210.041C238.538 216.844 232.976 222.379 226.13 222.379ZM130.326 214.144C130.326 216.268 128.599 217.988 126.466 217.988H120.166C118.034 217.988 116.307 216.268 116.307 214.144C116.307 212.02 118.034 210.3 120.166 210.3H126.466C128.599 210.3 130.326 212.02 130.326 214.144ZM121.546 161.787C122.101 162.071 122.708 162.215 123.316 162.215C123.924 162.215 124.532 162.071 125.087 161.787C139.058 154.604 151.268 142.328 160.41 126.29C170.589 108.427 176.556 86.8679 178.143 62.2054C178.274 60.1538 176.764 58.3617 174.709 58.1407C156.309 56.1371 139.728 50.3955 125.434 41.0648C124.151 40.2288 122.491 40.2288 121.203 41.0648C106.909 50.3955 90.3282 56.1371 71.9239 58.1359C69.8736 58.3569 68.3588 60.149 68.489 62.2006C70.0762 86.8583 76.0437 108.422 86.2228 126.286C95.3647 142.328 107.58 154.6 121.546 161.787ZM76.4634 65.3285C93.7341 62.9742 109.471 57.444 123.321 48.8436C137.171 57.444 152.908 62.979 170.179 65.3285C168.341 87.3051 162.802 106.524 153.704 122.495C148.064 132.387 138.281 145.706 123.321 154.009C108.361 145.701 98.5777 132.387 92.943 122.495C83.8348 106.519 78.3015 87.3051 76.4634 65.3285ZM114.522 113.433L100.816 100.316C99.2772 98.846 99.2289 96.41 100.705 94.8821C102.181 93.3542 104.622 93.3014 106.161 94.7716L117.016 105.155L140.293 79.7906C141.73 78.2243 144.171 78.1137 145.744 79.5455C147.317 80.9773 147.428 83.4085 145.99 84.9748L120.045 113.25C119.341 114.014 118.362 114.466 117.32 114.5C117.276 114.5 117.238 114.5 117.194 114.5C116.201 114.504 115.245 114.125 114.522 113.433Z" fill="black"/>
<path d="M123.317 169.412C152.745 156.68 183.6 119.645 184.71 52.7162C160.931 51.8081 140.308 44.8749 123.317 32.0656C106.326 44.8749 85.7024 51.8081 61.9238 52.7162C63.0382 119.645 93.8939 156.68 123.317 169.412ZM68.4896 62.2054C68.3593 60.1538 69.8693 58.3617 71.9244 58.1406C90.3288 56.1419 106.905 50.3955 121.204 41.0696C122.487 40.2288 124.151 40.2336 125.435 41.0696C139.734 50.4003 156.31 56.1419 174.714 58.1406C176.764 58.3617 178.279 60.1538 178.149 62.2054C176.562 86.8631 170.594 108.427 160.415 126.29C151.273 142.328 139.058 154.604 125.092 161.787C124.537 162.071 123.93 162.215 123.322 162.215C122.714 162.215 122.106 162.071 121.551 161.787C107.58 154.604 95.3653 142.328 86.2282 126.29C76.0443 108.427 70.0816 86.8631 68.4896 62.2054Z" fill="#FFAD00"/>
<path d="M238.538 70.8249C238.538 64.0167 232.971 58.4769 226.13 58.4769H192.25C191.019 86.8245 184.256 112.467 172.504 133.108C160.554 154.085 144.051 169.316 124.773 177.148C124.305 177.34 123.813 177.431 123.316 177.431C122.819 177.431 122.327 177.335 121.859 177.148C102.582 169.316 86.0733 154.09 74.1285 133.108C62.3767 112.472 55.6132 86.8293 54.383 58.4769H20.4929C13.6521 58.4769 8.08496 64.0167 8.08496 70.8249V198.216H238.543V70.8249H238.538Z" fill="#05164D"/>
<path d="M30.1413 58.4769H20.4929C13.6521 58.4769 8.08496 64.0167 8.08496 70.8249V198.216H17.7334V70.8249C17.7334 64.0167 23.2957 58.4769 30.1413 58.4769Z" fill="#05164D"/>
<path d="M17.7334 210.041V205.904H8.08496V210.041C8.08496 216.844 13.6521 222.379 20.4929 222.379H30.1413C23.2957 222.379 17.7334 216.844 17.7334 210.041Z" fill="white"/>
<path d="M137.987 230.067H108.646L106.615 248.449C106.046 253.59 104.092 258.131 101.188 261.658H145.446C142.541 258.131 140.588 253.59 140.018 248.449L137.987 230.067Z" fill="white"/>
</svg>
