<svg width="76" height="79" viewBox="0 0 76 79" fill="none" xmlns="http://www.w3.org/2000/svg">
<path fill-rule="evenodd" clip-rule="evenodd" d="M29.1855 64.8607L52.4742 78.3065L75.7628 64.8607V37.9697L52.4742 24.5234L29.1855 37.9697V64.8607Z" fill="#FFAD00" fill-opacity="0.1"/>
<path d="M50.1225 7.36455L50.1221 7.36452C48.0495 7.22954 44.436 6.87398 40.5541 5.94808C36.6709 5.02186 32.5279 3.52688 29.3897 1.118C27.9851 0.0213345 26.0144 0.0213453 24.6098 1.11803C21.4717 3.52848 17.3282 5.02345 13.4448 5.94928C9.56287 6.87477 5.94959 7.22954 3.87853 7.36452L3.8782 7.36455C1.85847 7.50284 0.289621 9.17955 0.285742 11.204V11.2042L0.285742 25.0523L0.285742 25.0523C0.291051 41.8515 10.1188 57.0959 25.4175 64.0358C26.4247 64.493 27.5802 64.493 28.5874 64.0358L28.5876 64.0357C43.8663 57.0734 53.6835 41.8427 53.7149 25.0525V25.0523V11.2042V11.204C53.7111 9.17955 52.1422 7.50284 50.1225 7.36455ZM26.0297 2.96165L26.0304 2.96112C26.6002 2.51547 27.4004 2.51547 27.9703 2.96112L27.971 2.96164C31.2496 5.48087 35.4022 7.07386 39.4052 8.08134C43.409 9.08902 47.2696 9.51255 49.9694 9.68899C50.766 9.74409 51.3845 10.4058 51.3858 11.2044V25.0521C51.3544 40.9297 42.0692 55.3316 27.6202 61.9139C27.2251 62.0895 26.7741 62.0895 26.379 61.9138C11.9127 55.3521 2.61962 40.9373 2.61491 25.0523C2.61491 25.0523 2.61491 25.0523 2.61491 25.0523V11.2044C2.61616 10.4058 3.23462 9.7441 4.03127 9.68899C6.73102 9.51255 10.5911 9.08902 14.5947 8.08134C18.5974 7.07386 22.75 5.48087 26.0297 2.96165Z" fill="#FFAD00" stroke="#FFAD00" stroke-width="0.2"/>
<path d="M28.1714 5.58538L28.2261 5.50171C34.1321 9.36866 41.9361 10.8518 47.4505 11.4135C48.5895 11.528 49.4566 12.4867 49.4566 13.6315V25.0524V25.0528C49.3839 39.6898 41.0909 53.0437 28.0032 59.5981L28.0026 59.5984C27.3705 59.9091 26.6301 59.9091 25.9981 59.5984L25.9977 59.5982C19.9253 56.5801 14.75 52.0231 10.9878 46.3814L11.071 46.3259L10.9877 46.3814C6.77787 40.0654 4.53545 32.6428 4.54407 25.0523M28.1714 5.58538L6.57842 11.513M28.1714 5.58538L28.2261 5.50171C27.4871 5.01795 26.5317 5.01795 25.7926 5.50171M28.1714 5.58538H25.8474M4.54407 25.0523C4.54407 25.0523 4.54407 25.0523 4.54407 25.0522L4.64407 25.0524H4.54407V25.0523ZM4.54407 25.0523V13.6315V13.6314C4.54499 12.4802 5.42241 11.5191 6.56873 11.4134M6.56873 11.4134C6.56858 11.4135 6.56843 11.4135 6.56827 11.4135L6.57842 11.513M6.56873 11.4134C6.56891 11.4134 6.56909 11.4134 6.56927 11.4134L6.57842 11.513M6.56873 11.4134C12.0778 10.8518 19.8825 9.36856 25.7926 5.50171M6.57842 11.513C12.0919 10.9509 19.9166 9.46578 25.8474 5.58538M25.7926 5.50171L25.8474 5.58538M25.7926 5.50171C25.7926 5.5017 25.7926 5.5017 25.7926 5.50169L25.8474 5.58538M6.87323 25.0525V25.0524L6.88063 13.7218C12.6169 13.1293 20.7389 11.5668 27.0004 7.48586C33.2712 11.5668 41.387 13.1293 47.1274 13.7218V25.0518C47.0575 38.7934 39.2772 51.3304 26.9975 57.4937C21.3054 54.6565 16.4539 50.3802 12.9246 45.0888C8.97044 39.1554 6.86456 32.1827 6.87323 25.0525Z" fill="#FFAD00" stroke="#FFAD00" stroke-width="0.2"/>
<path d="M15.3896 23.8217C15.3896 23.2122 14.9214 22.7121 14.325 22.6614V17.4342V17.4342C14.3249 16.9632 14.0412 16.5387 13.6061 16.3585C13.1709 16.1783 12.6701 16.2779 12.3371 16.6108L12.337 16.6108L11.2725 17.6754L11.2725 17.6754C10.9395 18.0085 10.8399 18.5093 11.0201 18.9444C11.1875 19.3485 11.5656 19.622 11.9958 19.6591V22.6614C11.3995 22.7121 10.9312 23.2122 10.9312 23.8217C10.9312 24.4649 11.4527 24.9863 12.0958 24.9863H14.225C14.8682 24.9863 15.3896 24.4649 15.3896 23.8217Z" fill="#FFAD00" stroke="#FFAD00" stroke-width="0.2"/>
<path d="M43.0693 23.8217C43.0693 23.2122 42.6011 22.7121 42.0047 22.6614V17.4342V17.4342C42.0046 16.9632 41.7208 16.5387 41.2857 16.3585C40.8506 16.1783 40.3498 16.2779 40.0167 16.6108L40.0167 16.6108L38.9521 17.6754L38.9521 17.6754C38.6192 18.0085 38.5196 18.5093 38.6998 18.9444C38.8672 19.3485 39.2452 19.622 39.6755 19.6591V22.6614C39.0792 22.7121 38.6109 23.2122 38.6109 23.8217C38.6109 24.4649 39.1323 24.9863 39.7755 24.9863H41.9047C42.5479 24.9863 43.0693 24.4649 43.0693 23.8217Z" fill="#FFAD00" stroke="#FFAD00" stroke-width="0.2"/>
<path d="M19.5482 24.9862C21.3673 24.9862 22.842 23.5116 22.842 21.6925V19.5633C22.842 17.7442 21.3673 16.2696 19.5482 16.2696C17.7292 16.2696 16.2545 17.7442 16.2545 19.5633V21.6925C16.2545 23.5116 17.7292 24.9862 19.5482 24.9862ZM18.5837 19.5633C18.5837 19.0306 19.0155 18.5987 19.5482 18.5987C20.081 18.5987 20.5128 19.0306 20.5128 19.5633V21.6925C20.5128 22.2252 20.081 22.6571 19.5482 22.6571C19.0155 22.6571 18.5837 22.2252 18.5837 21.6925V19.5633Z" fill="#FFAD00" stroke="#FFAD00" stroke-width="0.2"/>
<path d="M25.1123 17.6754L25.1123 17.6754C24.7793 18.0085 24.6797 18.5093 24.86 18.9444C25.0273 19.3485 25.4054 19.622 25.8357 19.6591V22.6614C25.2393 22.7121 24.7711 23.2122 24.7711 23.8217C24.7711 24.4649 25.2925 24.9863 25.9357 24.9863H28.0648C28.708 24.9863 29.2294 24.4649 29.2294 23.8217C29.2294 23.2122 28.7612 22.7121 28.1648 22.6614V17.4342V17.4342C28.1647 16.9632 27.881 16.5387 27.4459 16.3585C27.0108 16.1783 26.51 16.2779 26.1769 16.6108L26.1769 16.6108L25.1123 17.6754Z" fill="#FFAD00" stroke="#FFAD00" stroke-width="0.2"/>
<path d="M42.0048 34.4675C42.0048 33.858 41.5366 33.3579 40.9402 33.3072V28.08V28.08C40.9401 27.609 40.6564 27.1845 40.2213 27.0043C39.7862 26.8241 39.2854 26.9237 38.9523 27.2566L38.9523 27.2566L37.8877 28.3212L37.8877 28.3212C37.5547 28.6543 37.4551 29.1551 37.6353 29.5902C37.8027 29.9943 38.1808 30.2678 38.6111 30.3049V33.3072C38.0147 33.3579 37.5465 33.858 37.5465 34.4675C37.5465 35.1107 38.0679 35.6321 38.7111 35.6321H40.8402C41.4834 35.6321 42.0048 35.1107 42.0048 34.4675Z" fill="#FFAD00" stroke="#FFAD00" stroke-width="0.2"/>
<path d="M33.3876 24.9862C35.2067 24.9862 36.6814 23.5116 36.6814 21.6925V19.5633C36.6814 17.7442 35.2067 16.2696 33.3876 16.2696C31.5685 16.2696 30.0938 17.7442 30.0938 19.5633V21.6925C30.0938 23.5116 31.5685 24.9862 33.3876 24.9862ZM32.423 19.5633C32.423 19.0306 32.8549 18.5987 33.3876 18.5987C33.9203 18.5987 34.3522 19.0306 34.3522 19.5633V21.6925C34.3522 22.2252 33.9203 22.6571 33.3876 22.6571C32.8549 22.6571 32.423 22.2252 32.423 21.6925V19.5633Z" fill="#FFAD00" stroke="#FFAD00" stroke-width="0.2"/>
<path d="M20.6132 37.5613C18.7941 37.5613 17.3194 39.0359 17.3194 40.855V42.9842C17.3194 44.8033 18.7941 46.2779 20.6132 46.2779C22.4323 46.2779 23.9069 44.8033 23.9069 42.9842V40.855C23.9069 39.0359 22.4323 37.5613 20.6132 37.5613ZM21.5778 42.9842C21.5778 43.5169 21.1459 43.9488 20.6132 43.9488C20.0805 43.9488 19.6486 43.5169 19.6486 42.9842V40.855C19.6486 40.3223 20.0805 39.8904 20.6132 39.8904C21.1459 39.8904 21.5778 40.3223 21.5778 40.855V42.9842Z" fill="#FFAD00" stroke="#FFAD00" stroke-width="0.2"/>
<path d="M30.2944 45.1134C30.2944 44.5039 29.8262 44.0038 29.2298 43.953V38.7259V38.7259C29.2297 38.2549 28.9459 37.8304 28.5108 37.6502C28.0757 37.47 27.5749 37.5695 27.2418 37.9025L27.2418 37.9025L26.1772 38.9671L26.1772 38.9671C25.8443 39.3002 25.7447 39.801 25.9249 40.2361C26.0923 40.6402 26.4703 40.9137 26.9006 40.9508V43.953C26.3043 44.0038 25.836 44.5039 25.836 45.1134C25.836 45.7566 26.3574 46.278 27.0006 46.278H29.1298C29.773 46.278 30.2944 45.7566 30.2944 45.1134Z" fill="#FFAD00" stroke="#FFAD00" stroke-width="0.2"/>
<path d="M31.1583 40.855V42.9842C31.1583 44.8033 32.633 46.2779 34.4521 46.2779C36.2711 46.2779 37.7458 44.8033 37.7458 42.9842V40.855C37.7458 39.0359 36.2711 37.5613 34.4521 37.5613C32.633 37.5613 31.1583 39.0359 31.1583 40.855ZM35.4166 40.855V42.9842C35.4166 43.5169 34.9848 43.9488 34.4521 43.9488C33.9193 43.9488 33.4875 43.5169 33.4875 42.9842V40.855C33.4875 40.3223 33.9193 39.8904 34.4521 39.8904C34.9848 39.8904 35.4166 40.3223 35.4166 40.855Z" fill="#FFAD00" stroke="#FFAD00" stroke-width="0.2"/>
<path d="M18.5837 32.3384V30.2092C18.5837 28.3901 17.109 26.9154 15.2899 26.9154C13.4709 26.9154 11.9962 28.3901 11.9962 30.2092V32.3384C11.9962 34.1574 13.4709 35.6321 15.2899 35.6321C17.109 35.6321 18.5837 34.1574 18.5837 32.3384ZM16.2545 32.3384C16.2545 32.8711 15.8227 33.3029 15.2899 33.3029C14.7572 33.3029 14.3254 32.8711 14.3254 32.3384V30.2092C14.3254 29.6765 14.7572 29.2446 15.2899 29.2446C15.8227 29.2446 16.2545 29.6765 16.2545 30.2092V32.3384Z" fill="#FFAD00" stroke="#FFAD00" stroke-width="0.2"/>
<path d="M27.1003 32.3384V30.2092C27.1003 28.3901 25.6256 26.9154 23.8065 26.9154C21.9875 26.9154 20.5128 28.3901 20.5128 30.2092V32.3384C20.5128 34.1574 21.9875 35.6321 23.8065 35.6321C25.6256 35.6321 27.1003 34.1574 27.1003 32.3384ZM24.7711 32.3384C24.7711 32.8711 24.3393 33.3029 23.8065 33.3029C23.2738 33.3029 22.842 32.8711 22.842 32.3384V30.2092C22.842 29.6765 23.2738 29.2446 23.8065 29.2446C24.3393 29.2446 24.7711 29.6765 24.7711 30.2092V32.3384Z" fill="#FFAD00" stroke="#FFAD00" stroke-width="0.2"/>
<path d="M29.0294 32.3384C29.0294 34.1574 30.5041 35.6321 32.3231 35.6321C34.1422 35.6321 35.6169 34.1574 35.6169 32.3384V30.2092C35.6169 28.3901 34.1422 26.9154 32.3231 26.9154C30.5041 26.9154 29.0294 28.3901 29.0294 30.2092V32.3384ZM31.3586 30.2092C31.3586 29.6765 31.7904 29.2446 32.3231 29.2446C32.8559 29.2446 33.2877 29.6765 33.2877 30.2092V32.3384C33.2877 32.8711 32.8559 33.3029 32.3231 33.3029C31.7904 33.3029 31.3586 32.8711 31.3586 32.3384V30.2092Z" fill="#FFAD00" stroke="#FFAD00" stroke-width="0.2"/>
</svg>
