<svg width="78" height="76" viewBox="0 0 78 76" fill="none" xmlns="http://www.w3.org/2000/svg">
<path fill-rule="evenodd" clip-rule="evenodd" d="M31.417 61.8615L54.7056 75.3073L77.9943 61.8615V34.9705L54.7056 21.5242L31.417 34.9705V61.8615Z" fill="#FFAD00" fill-opacity="0.1"/>
<path d="M1.50423 45.1709L1.50421 45.1709C1.22431 45.451 1.06699 45.8306 1.06699 46.2264V56.2256C1.06699 57.05 1.73528 57.7183 2.55969 57.7183H10.7999C11.1954 57.7183 11.5746 57.5615 11.8545 57.282L11.7839 57.2113L11.8545 57.282L14.6314 54.5093C14.912 54.2293 15.0695 53.8492 15.0695 53.4529V50.1431H18.375C19.1994 50.1431 19.8677 49.4749 19.8677 48.6504V47.3855H21.1328C21.9571 47.3855 22.6255 46.7172 22.6255 45.8928V42.996H25.5222C25.9181 42.996 26.2977 42.8387 26.5777 42.5588L26.507 42.4881L26.5777 42.5588L30.9628 38.1737C33.1184 38.9855 35.3867 39.3967 37.7203 39.3967C48.3132 39.3967 56.931 30.7789 56.931 20.186C56.9311 9.59341 48.3134 0.975562 37.7206 0.975562C27.1277 0.975562 18.5099 9.59341 18.5099 20.1862C18.5099 22.519 18.9205 24.787 19.7316 26.9423L1.50423 45.1709ZM37.7206 36.4113C35.4547 36.4113 33.2636 35.9537 31.2077 35.0511C30.6344 34.7995 29.9892 34.938 29.5666 35.3491C29.5664 35.3494 29.5661 35.3497 29.5658 35.3499L29.5628 35.3526C29.5604 35.3547 29.5562 35.3584 29.5517 35.363C29.5516 35.3632 29.5514 35.3633 29.5513 35.3635L24.9041 40.0106H21.133C20.3086 40.0106 19.6403 40.6789 19.6403 41.5033V44.4001H18.3752C17.5509 44.4001 16.8825 45.0684 16.8825 45.8928V47.1577H13.5769C12.7526 47.1577 12.0842 47.826 12.0842 48.6504V52.8339L10.1823 54.7328H4.05261V52.9062L21.0459 35.913C21.5745 35.3844 21.5745 34.5275 21.0459 33.999C20.5173 33.4705 19.6606 33.4703 19.1317 33.999L19.2024 34.0697L19.1317 33.999L4.05261 49.0781V46.8448L22.5428 28.3533C22.5468 28.3494 22.55 28.3458 22.5521 28.3435L22.5559 28.3393C22.9671 27.9171 23.106 27.272 22.8544 26.6983L22.7628 26.7385L22.8544 26.6983C21.9526 24.6424 21.4956 22.4515 21.4956 20.1864C21.4956 11.2398 28.7743 3.96107 37.7209 3.96107C46.6674 3.96107 53.946 11.2397 53.946 20.1864C53.9457 29.1327 46.6669 36.4113 37.7206 36.4113Z" fill="#FFAD00" stroke="#FFAD00" stroke-width="0.2"/>
<path d="M43.5364 9.0532C40.6047 9.0532 38.2198 11.4381 38.2198 14.3698C38.2198 17.3016 40.6047 19.6864 43.5364 19.6864C46.4682 19.6864 48.8531 17.3016 48.8531 14.3698C48.8531 11.4381 46.4683 9.0532 43.5364 9.0532ZM43.5364 16.701C42.2511 16.701 41.2052 15.6552 41.2052 14.3698C41.2052 13.0845 42.2511 12.0386 43.5364 12.0386C44.8218 12.0386 45.8677 13.0845 45.8677 14.3698C45.8677 15.6552 44.8218 16.701 43.5364 16.701Z" fill="#FFAD00" stroke="#FFAD00" stroke-width="0.2"/>
</svg>
