<svg width="74" height="78" viewBox="0 0 74 78" fill="none" xmlns="http://www.w3.org/2000/svg">
<path fill-rule="evenodd" clip-rule="evenodd" d="M26.5088 63.8618L49.7974 77.3076L73.0861 63.8618V36.9708L49.7974 23.5245L26.5088 36.9708V63.8618Z" fill="#FFAD00" fill-opacity="0.1"/>
<mask id="path-2-outside-1_380_391" maskUnits="userSpaceOnUse" x="-0.611816" y="-0.448975" width="49" height="63" fill="black">
<rect fill="white" x="-0.611816" y="-0.448975" width="49" height="63"/>
<path d="M1.24404 27.3163C1.70852 28.1123 1.89565 29.0399 1.77605 29.9537V29.9835C1.62443 31.0772 1.7673 32.1915 2.18994 33.2116C2.61258 34.2316 3.29969 35.1204 4.18039 35.7864C4.92594 36.3514 5.45957 37.1509 5.69529 38.0562C5.92554 38.927 6.34279 39.7372 6.91801 40.4304C7.49323 41.1235 8.21259 41.683 9.02603 42.0699L3.72437 54.2302C3.5217 54.7121 3.44141 55.2367 3.49068 55.7572C3.53994 56.2776 3.71723 56.7778 4.00673 57.2131C4.29623 57.6485 4.68895 58.0054 5.14987 58.2521C5.6108 58.4988 6.12561 58.6276 6.6484 58.6271H11.0565C11.1677 58.6272 11.2743 58.6711 11.3533 58.7493L13.8522 61.2481C14.2169 61.6116 14.6645 61.8809 15.1564 62.0329C15.6484 62.1849 16.1699 62.215 16.6761 62.1206C17.1822 62.0262 17.6579 61.8101 18.0619 61.491C18.466 61.1719 18.7865 60.7593 18.9956 60.2888L24.0097 49.25L29.0176 60.2744C29.2254 60.7468 29.5452 61.1615 29.9492 61.4825C30.3532 61.8035 30.8294 62.0213 31.3365 62.117C31.8436 62.2127 32.3664 62.1834 32.8596 62.0316C33.3528 61.8799 33.8017 61.6102 34.1673 61.246L36.6712 58.7482C36.7501 58.6706 36.8564 58.6271 36.967 58.6271H41.3752C41.899 58.6277 42.4149 58.4985 42.8766 58.2509C43.3383 58.0033 43.7314 57.6451 44.0207 57.2083C44.31 56.7716 44.4865 56.2699 44.5344 55.7482C44.5823 55.2265 44.5 54.7011 44.2951 54.2189L38.9975 42.0709C39.8116 41.6827 40.5314 41.1218 41.1067 40.4272C41.6821 39.7326 42.0993 38.9211 42.3293 38.049C42.566 37.1473 43.0993 36.3514 43.8432 35.7895C44.7237 35.1234 45.4107 34.2345 45.8333 33.2145C46.2559 32.1945 46.3989 31.0803 46.2475 29.9866V29.9609C46.1283 29.041 46.318 28.1075 46.7867 27.307C47.3428 26.354 47.6352 25.2702 47.6339 24.1669C47.6326 23.0635 47.3378 21.9804 46.7795 21.0286C46.315 20.2326 46.1279 19.305 46.2475 18.3912V18.3614C46.3991 17.2677 46.2563 16.1534 45.8336 15.1333C45.411 14.1133 44.7239 13.2245 43.8432 12.5585C43.0976 11.9935 42.564 11.194 42.3283 10.2887C42.0481 9.22199 41.489 8.24901 40.7086 7.46966C39.9282 6.6903 38.9544 6.13265 37.8873 5.85392C36.9855 5.61718 36.1897 5.08395 35.6278 4.34004C34.9629 3.45811 34.0742 2.77008 33.0539 2.34732C32.0335 1.92455 30.9187 1.78244 29.8249 1.93571H29.7992C28.8788 2.05757 27.944 1.86852 27.1433 1.39856C26.1903 0.842294 25.1065 0.549766 24.0031 0.551029C22.8997 0.552293 21.8165 0.847302 20.8649 1.40575C20.0693 1.87134 19.1413 2.05854 18.2274 1.93776H18.1976C17.1038 1.78361 15.9886 1.92532 14.9681 2.34815C13.9476 2.77099 13.059 3.4595 12.3948 4.34209C11.8298 5.08764 11.0302 5.62127 10.125 5.857C9.05823 6.13721 8.08525 6.69622 7.3059 7.47665C6.52654 8.25709 5.96889 9.23084 5.69016 10.298C5.45342 11.1997 4.92019 11.9956 4.17628 12.5575C3.29574 13.2236 2.60876 14.1124 2.18613 15.1324C1.76351 16.1524 1.62053 17.2667 1.77194 18.3604V18.386C1.8924 19.306 1.70266 20.2399 1.23274 21.0399C0.677693 21.9931 0.386208 23.0767 0.388194 24.1796C0.390179 25.2826 0.685563 26.3652 1.24404 27.3163ZM17.1202 59.4507C17.0463 59.617 16.9331 59.7628 16.7903 59.8756C16.6476 59.9884 16.4796 60.0648 16.3008 60.0984C16.122 60.1319 15.9377 60.1215 15.7638 60.0681C15.5899 60.0147 15.4315 59.9199 15.3024 59.7917L12.8005 57.296C12.3355 56.8363 11.7083 56.578 11.0545 56.577H6.64429C6.45921 56.5787 6.27669 56.5338 6.11353 56.4463C5.95038 56.3589 5.81185 56.2319 5.7107 56.0769C5.60854 55.927 5.54561 55.7539 5.52767 55.5734C5.50973 55.3929 5.53734 55.2107 5.60799 55.0437L10.9415 42.8125C11.5111 43.0944 12.008 43.5038 12.3937 44.009C13.0587 44.8908 13.9474 45.5788 14.9677 46.0016C15.988 46.4243 17.1028 46.5665 18.1966 46.4133H18.2223C19.1422 46.2935 20.0759 46.4832 20.8762 46.9525C21.3846 47.2473 21.9324 47.4683 22.503 47.6088L17.1202 59.4507ZM42.4073 55.0283C42.4771 55.1974 42.5042 55.381 42.4862 55.5631C42.4682 55.7451 42.4057 55.92 42.3042 56.0722C42.2028 56.2244 42.0654 56.3493 41.9043 56.4359C41.7432 56.5225 41.5632 56.5682 41.3803 56.5688H36.967C36.3132 56.5697 35.6859 56.828 35.2211 57.2878L32.7181 59.7845C32.588 59.9134 32.4285 60.0086 32.2533 60.0617C32.0781 60.1149 31.8925 60.1245 31.7128 60.0897C31.533 60.0549 31.3645 59.9767 31.2218 59.8619C31.0791 59.7472 30.9666 59.5993 30.8941 59.4312L25.5154 47.5996C26.0919 47.4582 26.6453 47.2351 27.1587 46.9371C27.9544 46.472 28.8823 46.2848 29.7961 46.4051H29.8259C30.9197 46.5583 32.0345 46.4161 33.0549 45.9933C34.0752 45.5706 34.9639 44.8826 35.6288 44.0008C36.0147 43.4957 36.5121 43.0866 37.0821 42.8053L42.4073 55.0283ZM3.01571 22.066C3.71779 20.8628 3.99624 19.459 3.80654 18.0789V18.0533C3.70992 17.3248 3.80838 16.5838 4.09186 15.9059C4.37533 15.228 4.83366 14.6375 5.42004 14.1946C6.53379 13.3509 7.33144 12.1572 7.6847 10.8053C7.8718 10.0924 8.24523 9.44218 8.76667 8.92128C9.28811 8.40039 9.93876 8.02763 10.6519 7.84127C12.0005 7.48812 13.1914 6.69244 14.0339 5.58175C14.476 4.99614 15.0655 4.53833 15.7423 4.25504C16.4192 3.97175 17.159 3.87314 17.8864 3.96927H17.9183C19.3022 4.15785 20.7094 3.87764 21.9156 3.17331C22.5528 2.8008 23.2779 2.60491 24.0161 2.60582C24.7542 2.60672 25.4788 2.80438 26.1152 3.17844C27.3185 3.88015 28.7222 4.15857 30.1022 3.96927H30.1279C30.8562 3.87265 31.5971 3.971 32.275 4.25428C32.9529 4.53757 33.5435 4.99564 33.9865 5.58175C34.8302 6.6955 36.024 7.49314 37.3758 7.8464C38.0887 8.0335 38.739 8.40694 39.2599 8.92838C39.7808 9.44981 40.1535 10.1005 40.3399 10.8136C40.693 12.1622 41.4887 13.3532 42.5994 14.1957C43.1848 14.6378 43.6425 15.2274 43.9258 15.9042C44.2091 16.581 44.3078 17.3208 44.2119 18.0481V18.08C44.0225 19.4639 44.3028 20.8714 45.0078 22.0773C45.3801 22.7124 45.5764 23.4352 45.5764 24.1714C45.5764 24.9076 45.3801 25.6305 45.0078 26.2656L45.8952 26.7853L45.0027 26.2718C44.3006 27.4749 44.0222 28.8787 44.2119 30.2588V30.2845C44.3096 31.0136 44.2117 31.7556 43.9284 32.4345C43.6451 33.1134 43.1864 33.7048 42.5994 34.1482C41.4876 34.9927 40.6918 36.1864 40.3399 37.5375C40.1524 38.251 39.7781 38.9017 39.2557 39.4227C38.7334 39.9436 38.0816 40.316 37.3676 40.5016C36.019 40.8547 34.828 41.6504 33.9855 42.7611C33.5427 43.3458 32.953 43.803 32.2764 44.0862C31.5998 44.3694 30.8603 44.4685 30.133 44.3736H30.1012C28.7172 44.1844 27.3098 44.4646 26.1039 45.1696C25.4671 45.5428 24.7422 45.7396 24.0041 45.7396C23.2659 45.7396 22.5411 45.5428 21.9043 45.1696C20.9514 44.6132 19.8679 44.3201 18.7646 44.3202C18.4811 44.3202 18.198 44.3397 17.9172 44.3787H17.8916C17.1628 44.4738 16.4219 44.3742 15.7442 44.0901C15.0664 43.806 14.476 43.3474 14.0329 42.7611C13.1884 41.6493 11.9948 40.8535 10.6436 40.5016C9.93012 40.3141 9.27943 39.9398 8.75848 39.4175C8.23753 38.8951 7.86512 38.2433 7.67956 37.5293C7.32641 36.1807 6.53073 34.9897 5.42004 34.1472C4.8346 33.705 4.3769 33.1155 4.09363 32.4387C3.81036 31.7619 3.71165 31.0221 3.80757 30.2947V30.2629C3.99695 28.8789 3.71668 27.4714 3.0116 26.2656C2.63873 25.6285 2.44255 24.9034 2.44327 24.1652C2.44399 23.427 2.6416 22.7024 3.01571 22.066Z"/>
</mask>
<path d="M1.24404 27.3163C1.70852 28.1123 1.89565 29.0399 1.77605 29.9537V29.9835C1.62443 31.0772 1.7673 32.1915 2.18994 33.2116C2.61258 34.2316 3.29969 35.1204 4.18039 35.7864C4.92594 36.3514 5.45957 37.1509 5.69529 38.0562C5.92554 38.927 6.34279 39.7372 6.91801 40.4304C7.49323 41.1235 8.21259 41.683 9.02603 42.0699L3.72437 54.2302C3.5217 54.7121 3.44141 55.2367 3.49068 55.7572C3.53994 56.2776 3.71723 56.7778 4.00673 57.2131C4.29623 57.6485 4.68895 58.0054 5.14987 58.2521C5.6108 58.4988 6.12561 58.6276 6.6484 58.6271H11.0565C11.1677 58.6272 11.2743 58.6711 11.3533 58.7493L13.8522 61.2481C14.2169 61.6116 14.6645 61.8809 15.1564 62.0329C15.6484 62.1849 16.1699 62.215 16.6761 62.1206C17.1822 62.0262 17.6579 61.8101 18.0619 61.491C18.466 61.1719 18.7865 60.7593 18.9956 60.2888L24.0097 49.25L29.0176 60.2744C29.2254 60.7468 29.5452 61.1615 29.9492 61.4825C30.3532 61.8035 30.8294 62.0213 31.3365 62.117C31.8436 62.2127 32.3664 62.1834 32.8596 62.0316C33.3528 61.8799 33.8017 61.6102 34.1673 61.246L36.6712 58.7482C36.7501 58.6706 36.8564 58.6271 36.967 58.6271H41.3752C41.899 58.6277 42.4149 58.4985 42.8766 58.2509C43.3383 58.0033 43.7314 57.6451 44.0207 57.2083C44.31 56.7716 44.4865 56.2699 44.5344 55.7482C44.5823 55.2265 44.5 54.7011 44.2951 54.2189L38.9975 42.0709C39.8116 41.6827 40.5314 41.1218 41.1067 40.4272C41.6821 39.7326 42.0993 38.9211 42.3293 38.049C42.566 37.1473 43.0993 36.3514 43.8432 35.7895C44.7237 35.1234 45.4107 34.2345 45.8333 33.2145C46.2559 32.1945 46.3989 31.0803 46.2475 29.9866V29.9609C46.1283 29.041 46.318 28.1075 46.7867 27.307C47.3428 26.354 47.6352 25.2702 47.6339 24.1669C47.6326 23.0635 47.3378 21.9804 46.7795 21.0286C46.315 20.2326 46.1279 19.305 46.2475 18.3912V18.3614C46.3991 17.2677 46.2563 16.1534 45.8336 15.1333C45.411 14.1133 44.7239 13.2245 43.8432 12.5585C43.0976 11.9935 42.564 11.194 42.3283 10.2887C42.0481 9.22199 41.489 8.24901 40.7086 7.46966C39.9282 6.6903 38.9544 6.13265 37.8873 5.85392C36.9855 5.61718 36.1897 5.08395 35.6278 4.34004C34.9629 3.45811 34.0742 2.77008 33.0539 2.34732C32.0335 1.92455 30.9187 1.78244 29.8249 1.93571H29.7992C28.8788 2.05757 27.944 1.86852 27.1433 1.39856C26.1903 0.842294 25.1065 0.549766 24.0031 0.551029C22.8997 0.552293 21.8165 0.847302 20.8649 1.40575C20.0693 1.87134 19.1413 2.05854 18.2274 1.93776H18.1976C17.1038 1.78361 15.9886 1.92532 14.9681 2.34815C13.9476 2.77099 13.059 3.4595 12.3948 4.34209C11.8298 5.08764 11.0302 5.62127 10.125 5.857C9.05823 6.13721 8.08525 6.69622 7.3059 7.47665C6.52654 8.25709 5.96889 9.23084 5.69016 10.298C5.45342 11.1997 4.92019 11.9956 4.17628 12.5575C3.29574 13.2236 2.60876 14.1124 2.18613 15.1324C1.76351 16.1524 1.62053 17.2667 1.77194 18.3604V18.386C1.8924 19.306 1.70266 20.2399 1.23274 21.0399C0.677693 21.9931 0.386208 23.0767 0.388194 24.1796C0.390179 25.2826 0.685563 26.3652 1.24404 27.3163ZM17.1202 59.4507C17.0463 59.617 16.9331 59.7628 16.7903 59.8756C16.6476 59.9884 16.4796 60.0648 16.3008 60.0984C16.122 60.1319 15.9377 60.1215 15.7638 60.0681C15.5899 60.0147 15.4315 59.9199 15.3024 59.7917L12.8005 57.296C12.3355 56.8363 11.7083 56.578 11.0545 56.577H6.64429C6.45921 56.5787 6.27669 56.5338 6.11353 56.4463C5.95038 56.3589 5.81185 56.2319 5.7107 56.0769C5.60854 55.927 5.54561 55.7539 5.52767 55.5734C5.50973 55.3929 5.53734 55.2107 5.60799 55.0437L10.9415 42.8125C11.5111 43.0944 12.008 43.5038 12.3937 44.009C13.0587 44.8908 13.9474 45.5788 14.9677 46.0016C15.988 46.4243 17.1028 46.5665 18.1966 46.4133H18.2223C19.1422 46.2935 20.0759 46.4832 20.8762 46.9525C21.3846 47.2473 21.9324 47.4683 22.503 47.6088L17.1202 59.4507ZM42.4073 55.0283C42.4771 55.1974 42.5042 55.381 42.4862 55.5631C42.4682 55.7451 42.4057 55.92 42.3042 56.0722C42.2028 56.2244 42.0654 56.3493 41.9043 56.4359C41.7432 56.5225 41.5632 56.5682 41.3803 56.5688H36.967C36.3132 56.5697 35.6859 56.828 35.2211 57.2878L32.7181 59.7845C32.588 59.9134 32.4285 60.0086 32.2533 60.0617C32.0781 60.1149 31.8925 60.1245 31.7128 60.0897C31.533 60.0549 31.3645 59.9767 31.2218 59.8619C31.0791 59.7472 30.9666 59.5993 30.8941 59.4312L25.5154 47.5996C26.0919 47.4582 26.6453 47.2351 27.1587 46.9371C27.9544 46.472 28.8823 46.2848 29.7961 46.4051H29.8259C30.9197 46.5583 32.0345 46.4161 33.0549 45.9933C34.0752 45.5706 34.9639 44.8826 35.6288 44.0008C36.0147 43.4957 36.5121 43.0866 37.0821 42.8053L42.4073 55.0283ZM3.01571 22.066C3.71779 20.8628 3.99624 19.459 3.80654 18.0789V18.0533C3.70992 17.3248 3.80838 16.5838 4.09186 15.9059C4.37533 15.228 4.83366 14.6375 5.42004 14.1946C6.53379 13.3509 7.33144 12.1572 7.6847 10.8053C7.8718 10.0924 8.24523 9.44218 8.76667 8.92128C9.28811 8.40039 9.93876 8.02763 10.6519 7.84127C12.0005 7.48812 13.1914 6.69244 14.0339 5.58175C14.476 4.99614 15.0655 4.53833 15.7423 4.25504C16.4192 3.97175 17.159 3.87314 17.8864 3.96927H17.9183C19.3022 4.15785 20.7094 3.87764 21.9156 3.17331C22.5528 2.8008 23.2779 2.60491 24.0161 2.60582C24.7542 2.60672 25.4788 2.80438 26.1152 3.17844C27.3185 3.88015 28.7222 4.15857 30.1022 3.96927H30.1279C30.8562 3.87265 31.5971 3.971 32.275 4.25428C32.9529 4.53757 33.5435 4.99564 33.9865 5.58175C34.8302 6.6955 36.024 7.49314 37.3758 7.8464C38.0887 8.0335 38.739 8.40694 39.2599 8.92838C39.7808 9.44981 40.1535 10.1005 40.3399 10.8136C40.693 12.1622 41.4887 13.3532 42.5994 14.1957C43.1848 14.6378 43.6425 15.2274 43.9258 15.9042C44.2091 16.581 44.3078 17.3208 44.2119 18.0481V18.08C44.0225 19.4639 44.3028 20.8714 45.0078 22.0773C45.3801 22.7124 45.5764 23.4352 45.5764 24.1714C45.5764 24.9076 45.3801 25.6305 45.0078 26.2656L45.8952 26.7853L45.0027 26.2718C44.3006 27.4749 44.0222 28.8787 44.2119 30.2588V30.2845C44.3096 31.0136 44.2117 31.7556 43.9284 32.4345C43.6451 33.1134 43.1864 33.7048 42.5994 34.1482C41.4876 34.9927 40.6918 36.1864 40.3399 37.5375C40.1524 38.251 39.7781 38.9017 39.2557 39.4227C38.7334 39.9436 38.0816 40.316 37.3676 40.5016C36.019 40.8547 34.828 41.6504 33.9855 42.7611C33.5427 43.3458 32.953 43.803 32.2764 44.0862C31.5998 44.3694 30.8603 44.4685 30.133 44.3736H30.1012C28.7172 44.1844 27.3098 44.4646 26.1039 45.1696C25.4671 45.5428 24.7422 45.7396 24.0041 45.7396C23.2659 45.7396 22.5411 45.5428 21.9043 45.1696C20.9514 44.6132 19.8679 44.3201 18.7646 44.3202C18.4811 44.3202 18.198 44.3397 17.9172 44.3787H17.8916C17.1628 44.4738 16.4219 44.3742 15.7442 44.0901C15.0664 43.806 14.476 43.3474 14.0329 42.7611C13.1884 41.6493 11.9948 40.8535 10.6436 40.5016C9.93012 40.3141 9.27943 39.9398 8.75848 39.4175C8.23753 38.8951 7.86512 38.2433 7.67956 37.5293C7.32641 36.1807 6.53073 34.9897 5.42004 34.1472C4.8346 33.705 4.3769 33.1155 4.09363 32.4387C3.81036 31.7619 3.71165 31.0221 3.80757 30.2947V30.2629C3.99695 28.8789 3.71668 27.4714 3.0116 26.2656C2.63873 25.6285 2.44255 24.9034 2.44327 24.1652C2.44399 23.427 2.6416 22.7024 3.01571 22.066Z" fill="#FFAD00"/>
<path d="M1.24404 27.3163C1.70852 28.1123 1.89565 29.0399 1.77605 29.9537V29.9835C1.62443 31.0772 1.7673 32.1915 2.18994 33.2116C2.61258 34.2316 3.29969 35.1204 4.18039 35.7864C4.92594 36.3514 5.45957 37.1509 5.69529 38.0562C5.92554 38.927 6.34279 39.7372 6.91801 40.4304C7.49323 41.1235 8.21259 41.683 9.02603 42.0699L3.72437 54.2302C3.5217 54.7121 3.44141 55.2367 3.49068 55.7572C3.53994 56.2776 3.71723 56.7778 4.00673 57.2131C4.29623 57.6485 4.68895 58.0054 5.14987 58.2521C5.6108 58.4988 6.12561 58.6276 6.6484 58.6271H11.0565C11.1677 58.6272 11.2743 58.6711 11.3533 58.7493L13.8522 61.2481C14.2169 61.6116 14.6645 61.8809 15.1564 62.0329C15.6484 62.1849 16.1699 62.215 16.6761 62.1206C17.1822 62.0262 17.6579 61.8101 18.0619 61.491C18.466 61.1719 18.7865 60.7593 18.9956 60.2888L24.0097 49.25L29.0176 60.2744C29.2254 60.7468 29.5452 61.1615 29.9492 61.4825C30.3532 61.8035 30.8294 62.0213 31.3365 62.117C31.8436 62.2127 32.3664 62.1834 32.8596 62.0316C33.3528 61.8799 33.8017 61.6102 34.1673 61.246L36.6712 58.7482C36.7501 58.6706 36.8564 58.6271 36.967 58.6271H41.3752C41.899 58.6277 42.4149 58.4985 42.8766 58.2509C43.3383 58.0033 43.7314 57.6451 44.0207 57.2083C44.31 56.7716 44.4865 56.2699 44.5344 55.7482C44.5823 55.2265 44.5 54.7011 44.2951 54.2189L38.9975 42.0709C39.8116 41.6827 40.5314 41.1218 41.1067 40.4272C41.6821 39.7326 42.0993 38.9211 42.3293 38.049C42.566 37.1473 43.0993 36.3514 43.8432 35.7895C44.7237 35.1234 45.4107 34.2345 45.8333 33.2145C46.2559 32.1945 46.3989 31.0803 46.2475 29.9866V29.9609C46.1283 29.041 46.318 28.1075 46.7867 27.307C47.3428 26.354 47.6352 25.2702 47.6339 24.1669C47.6326 23.0635 47.3378 21.9804 46.7795 21.0286C46.315 20.2326 46.1279 19.305 46.2475 18.3912V18.3614C46.3991 17.2677 46.2563 16.1534 45.8336 15.1333C45.411 14.1133 44.7239 13.2245 43.8432 12.5585C43.0976 11.9935 42.564 11.194 42.3283 10.2887C42.0481 9.22199 41.489 8.24901 40.7086 7.46966C39.9282 6.6903 38.9544 6.13265 37.8873 5.85392C36.9855 5.61718 36.1897 5.08395 35.6278 4.34004C34.9629 3.45811 34.0742 2.77008 33.0539 2.34732C32.0335 1.92455 30.9187 1.78244 29.8249 1.93571H29.7992C28.8788 2.05757 27.944 1.86852 27.1433 1.39856C26.1903 0.842294 25.1065 0.549766 24.0031 0.551029C22.8997 0.552293 21.8165 0.847302 20.8649 1.40575C20.0693 1.87134 19.1413 2.05854 18.2274 1.93776H18.1976C17.1038 1.78361 15.9886 1.92532 14.9681 2.34815C13.9476 2.77099 13.059 3.4595 12.3948 4.34209C11.8298 5.08764 11.0302 5.62127 10.125 5.857C9.05823 6.13721 8.08525 6.69622 7.3059 7.47665C6.52654 8.25709 5.96889 9.23084 5.69016 10.298C5.45342 11.1997 4.92019 11.9956 4.17628 12.5575C3.29574 13.2236 2.60876 14.1124 2.18613 15.1324C1.76351 16.1524 1.62053 17.2667 1.77194 18.3604V18.386C1.8924 19.306 1.70266 20.2399 1.23274 21.0399C0.677693 21.9931 0.386208 23.0767 0.388194 24.1796C0.390179 25.2826 0.685563 26.3652 1.24404 27.3163ZM17.1202 59.4507C17.0463 59.617 16.9331 59.7628 16.7903 59.8756C16.6476 59.9884 16.4796 60.0648 16.3008 60.0984C16.122 60.1319 15.9377 60.1215 15.7638 60.0681C15.5899 60.0147 15.4315 59.9199 15.3024 59.7917L12.8005 57.296C12.3355 56.8363 11.7083 56.578 11.0545 56.577H6.64429C6.45921 56.5787 6.27669 56.5338 6.11353 56.4463C5.95038 56.3589 5.81185 56.2319 5.7107 56.0769C5.60854 55.927 5.54561 55.7539 5.52767 55.5734C5.50973 55.3929 5.53734 55.2107 5.60799 55.0437L10.9415 42.8125C11.5111 43.0944 12.008 43.5038 12.3937 44.009C13.0587 44.8908 13.9474 45.5788 14.9677 46.0016C15.988 46.4243 17.1028 46.5665 18.1966 46.4133H18.2223C19.1422 46.2935 20.0759 46.4832 20.8762 46.9525C21.3846 47.2473 21.9324 47.4683 22.503 47.6088L17.1202 59.4507ZM42.4073 55.0283C42.4771 55.1974 42.5042 55.381 42.4862 55.5631C42.4682 55.7451 42.4057 55.92 42.3042 56.0722C42.2028 56.2244 42.0654 56.3493 41.9043 56.4359C41.7432 56.5225 41.5632 56.5682 41.3803 56.5688H36.967C36.3132 56.5697 35.6859 56.828 35.2211 57.2878L32.7181 59.7845C32.588 59.9134 32.4285 60.0086 32.2533 60.0617C32.0781 60.1149 31.8925 60.1245 31.7128 60.0897C31.533 60.0549 31.3645 59.9767 31.2218 59.8619C31.0791 59.7472 30.9666 59.5993 30.8941 59.4312L25.5154 47.5996C26.0919 47.4582 26.6453 47.2351 27.1587 46.9371C27.9544 46.472 28.8823 46.2848 29.7961 46.4051H29.8259C30.9197 46.5583 32.0345 46.4161 33.0549 45.9933C34.0752 45.5706 34.9639 44.8826 35.6288 44.0008C36.0147 43.4957 36.5121 43.0866 37.0821 42.8053L42.4073 55.0283ZM3.01571 22.066C3.71779 20.8628 3.99624 19.459 3.80654 18.0789V18.0533C3.70992 17.3248 3.80838 16.5838 4.09186 15.9059C4.37533 15.228 4.83366 14.6375 5.42004 14.1946C6.53379 13.3509 7.33144 12.1572 7.6847 10.8053C7.8718 10.0924 8.24523 9.44218 8.76667 8.92128C9.28811 8.40039 9.93876 8.02763 10.6519 7.84127C12.0005 7.48812 13.1914 6.69244 14.0339 5.58175C14.476 4.99614 15.0655 4.53833 15.7423 4.25504C16.4192 3.97175 17.159 3.87314 17.8864 3.96927H17.9183C19.3022 4.15785 20.7094 3.87764 21.9156 3.17331C22.5528 2.8008 23.2779 2.60491 24.0161 2.60582C24.7542 2.60672 25.4788 2.80438 26.1152 3.17844C27.3185 3.88015 28.7222 4.15857 30.1022 3.96927H30.1279C30.8562 3.87265 31.5971 3.971 32.275 4.25428C32.9529 4.53757 33.5435 4.99564 33.9865 5.58175C34.8302 6.6955 36.024 7.49314 37.3758 7.8464C38.0887 8.0335 38.739 8.40694 39.2599 8.92838C39.7808 9.44981 40.1535 10.1005 40.3399 10.8136C40.693 12.1622 41.4887 13.3532 42.5994 14.1957C43.1848 14.6378 43.6425 15.2274 43.9258 15.9042C44.2091 16.581 44.3078 17.3208 44.2119 18.0481V18.08C44.0225 19.4639 44.3028 20.8714 45.0078 22.0773C45.3801 22.7124 45.5764 23.4352 45.5764 24.1714C45.5764 24.9076 45.3801 25.6305 45.0078 26.2656L45.8952 26.7853L45.0027 26.2718C44.3006 27.4749 44.0222 28.8787 44.2119 30.2588V30.2845C44.3096 31.0136 44.2117 31.7556 43.9284 32.4345C43.6451 33.1134 43.1864 33.7048 42.5994 34.1482C41.4876 34.9927 40.6918 36.1864 40.3399 37.5375C40.1524 38.251 39.7781 38.9017 39.2557 39.4227C38.7334 39.9436 38.0816 40.316 37.3676 40.5016C36.019 40.8547 34.828 41.6504 33.9855 42.7611C33.5427 43.3458 32.953 43.803 32.2764 44.0862C31.5998 44.3694 30.8603 44.4685 30.133 44.3736H30.1012C28.7172 44.1844 27.3098 44.4646 26.1039 45.1696C25.4671 45.5428 24.7422 45.7396 24.0041 45.7396C23.2659 45.7396 22.5411 45.5428 21.9043 45.1696C20.9514 44.6132 19.8679 44.3201 18.7646 44.3202C18.4811 44.3202 18.198 44.3397 17.9172 44.3787H17.8916C17.1628 44.4738 16.4219 44.3742 15.7442 44.0901C15.0664 43.806 14.476 43.3474 14.0329 42.7611C13.1884 41.6493 11.9948 40.8535 10.6436 40.5016C9.93012 40.3141 9.27943 39.9398 8.75848 39.4175C8.23753 38.8951 7.86512 38.2433 7.67956 37.5293C7.32641 36.1807 6.53073 34.9897 5.42004 34.1472C4.8346 33.705 4.3769 33.1155 4.09363 32.4387C3.81036 31.7619 3.71165 31.0221 3.80757 30.2947V30.2629C3.99695 28.8789 3.71668 27.4714 3.0116 26.2656C2.63873 25.6285 2.44255 24.9034 2.44327 24.1652C2.44399 23.427 2.6416 22.7024 3.01571 22.066Z" stroke="#FFAD00" stroke-width="0.4" mask="url(#path-2-outside-1_380_391)"/>
<path d="M24.0096 41.7313H24.0097C27.4828 41.7313 30.8778 40.7015 33.7655 38.772C36.6532 36.8425 38.9039 34.1 40.233 30.8913C41.562 27.6827 41.9098 24.1519 41.2322 20.7456C40.5547 17.3394 38.8823 14.2105 36.4265 11.7547C33.9707 9.29888 30.8418 7.62646 27.4355 6.9489C24.0292 6.27135 20.4985 6.6191 17.2898 7.94816C14.0812 9.27723 11.3387 11.5279 9.40919 14.4156C7.47968 17.3034 6.4498 20.6984 6.4498 24.1714L6.4498 24.1715C6.455 28.8271 8.30671 33.2905 11.5987 36.5825C14.8907 39.8744 19.3541 41.7261 24.0096 41.7313ZM24.0098 8.8656C27.037 8.86563 29.9962 9.76329 32.5132 11.4451C35.0302 13.1269 36.992 15.5174 38.1505 18.3141C39.3089 21.1109 39.612 24.1884 39.0214 27.1574C38.4309 30.1265 36.9731 32.8537 34.8326 34.9943C32.692 37.1348 29.9648 38.5926 26.9957 39.1831C24.0267 39.7737 20.9492 39.4706 18.1524 38.3121C15.3557 37.1537 12.9652 35.1919 11.2834 32.6749C9.6016 30.1579 8.70394 27.1987 8.70391 24.1715C8.7085 20.1136 10.3226 16.2231 13.192 13.3537C16.0614 10.4843 19.9519 8.87019 24.0098 8.8656Z" fill="#FFAD00" stroke="#FFAD00" stroke-width="0.2"/>
<path d="M22.9827 29.2067C22.4645 29.2067 21.9674 29.0008 21.601 28.6344C21.2345 28.2679 21.0286 27.7709 21.0286 27.2526C21.0286 26.9537 20.9099 26.667 20.6985 26.4557C20.4872 26.2443 20.2005 26.1255 19.9016 26.1255C19.6027 26.1255 19.316 26.2443 19.1046 26.4557C18.8933 26.667 18.7745 26.9537 18.7745 27.2526C18.7745 28.0849 19.0213 28.8985 19.4837 29.5906C19.9461 30.2826 20.6034 30.822 21.3723 31.1405C22.1413 31.459 22.9874 31.5423 23.8037 31.38C24.62 31.2176 25.3699 30.8168 25.9584 30.2283C26.5469 29.6397 26.9477 28.8899 27.1101 28.0736C27.2725 27.2573 27.1891 26.4111 26.8706 25.6422C26.5521 24.8732 26.0127 24.216 25.3207 23.7536C24.6287 23.2912 23.815 23.0444 22.9827 23.0444C22.5962 23.0444 22.2184 22.9298 21.8971 22.7151C21.5757 22.5003 21.3253 22.1951 21.1774 21.8381C21.0295 21.481 20.9908 21.0881 21.0662 20.709C21.1416 20.33 21.3277 19.9818 21.601 19.7085C21.8743 19.4352 22.2224 19.2491 22.6015 19.1737C22.9806 19.0983 23.3735 19.137 23.7305 19.2849C24.0876 19.4328 24.3928 19.6833 24.6075 20.0046C24.8222 20.326 24.9368 20.7038 24.9368 21.0903C24.9368 21.3892 25.0556 21.6759 25.2669 21.8872C25.4783 22.0986 25.765 22.2173 26.0639 22.2173C26.3628 22.2173 26.6495 22.0986 26.8608 21.8872C27.0722 21.6759 27.1909 21.3892 27.1909 21.0903C27.1909 20.258 26.9441 19.4444 26.4817 18.7523C26.0193 18.0603 25.3621 17.5209 24.5931 17.2024C23.8242 16.8839 22.9781 16.8005 22.1617 16.9629C21.3454 17.1253 20.5956 17.5261 20.0071 18.1146C19.4185 18.7031 19.0177 19.453 18.8554 20.2693C18.693 21.0856 18.7763 21.9317 19.0948 22.7007C19.4134 23.4696 19.9527 24.1269 20.6448 24.5893C21.3368 25.0517 22.1504 25.2985 22.9827 25.2985C23.501 25.2985 23.998 25.5044 24.3645 25.8708C24.731 26.2373 24.9368 26.7343 24.9368 27.2526C24.9368 27.7709 24.731 28.2679 24.3645 28.6344C23.998 29.0008 23.501 29.2067 22.9827 29.2067Z" fill="#FFAD00" stroke="#FFAD00" stroke-width="0.2"/>
<path d="M32.2262 31.4608C33.0699 31.4608 33.879 31.1257 34.4756 30.5291C35.0722 29.9325 35.4073 29.1233 35.4073 28.2797V20.0632C35.4073 19.2195 35.0722 18.4104 34.4756 17.8138C33.879 17.2172 33.0699 16.8821 32.2262 16.8821C31.3825 16.8821 30.5733 17.2172 29.9768 17.8138C29.3802 18.4104 29.045 19.2195 29.045 20.0632V28.2797C29.045 29.1233 29.3802 29.9325 29.9768 30.5291C30.5733 31.1257 31.3825 31.4608 32.2262 31.4608ZM31.2991 20.0632C31.2991 19.8173 31.3968 19.5815 31.5707 19.4077C31.7445 19.2338 31.9803 19.1362 32.2262 19.1362C32.4721 19.1362 32.7079 19.2338 32.8817 19.4077C33.0556 19.5815 33.1532 19.8173 33.1532 20.0632V28.2797C33.1532 28.5255 33.0556 28.7613 32.8817 28.9352C32.7079 29.109 32.4721 29.2067 32.2262 29.2067C31.9803 29.2067 31.7445 29.109 31.5707 28.9352C31.3968 28.7613 31.2991 28.5255 31.2991 28.2797V20.0632Z" fill="#FFAD00" stroke="#FFAD00" stroke-width="0.2"/>
<path d="M15.7936 31.4608C16.0925 31.4608 16.3791 31.3421 16.5905 31.1307C16.8019 30.9193 16.9206 30.6327 16.9206 30.3338C16.9206 30.0348 16.8019 29.7482 16.5905 29.5368C16.4028 29.3491 16.1558 29.2345 15.8936 29.2111V19.1317C16.1558 19.1084 16.4028 18.9937 16.5905 18.8061C16.8019 18.5947 16.9206 18.308 16.9206 18.0091C16.9206 17.7102 16.8019 17.4235 16.5905 17.2122C16.3791 17.0008 16.0925 16.8821 15.7936 16.8821H13.7395C13.4405 16.8821 13.1539 17.0008 12.9425 17.2122C12.7311 17.4235 12.6124 17.7102 12.6124 18.0091C12.6124 18.308 12.7311 18.5947 12.9425 18.8061C13.1302 18.9937 13.3772 19.1084 13.6395 19.1317V29.2111C13.3772 29.2345 13.1302 29.3491 12.9425 29.5368C12.7311 29.7482 12.6124 30.0348 12.6124 30.3338C12.6124 30.6327 12.7311 30.9193 12.9425 31.1307C13.1539 31.3421 13.4405 31.4608 13.7395 31.4608H15.7936Z" fill="#FFAD00" stroke="#FFAD00" stroke-width="0.2"/>
</svg>
