<svg width="103" height="98" viewBox="0 0 103 98" fill="none" xmlns="http://www.w3.org/2000/svg">
<path d="M97.0281 0.532715H5.44067C4.01413 0.53431 2.64648 1.10171 1.63776 2.11042C0.629049 3.11913 0.0616536 4.48679 0.0600586 5.91332V72.7861C0.0614262 74.2127 0.628749 75.5805 1.63751 76.5892C2.64628 77.598 4.01406 78.1653 5.44067 78.1667H38.2116C37.7191 87.0753 35.2768 92.579 34.3177 94.4153H30.2948C29.8952 94.4153 29.512 94.574 29.2295 94.8565C28.9469 95.1391 28.7882 95.5223 28.7882 95.9218C28.7882 96.3214 28.9469 96.7046 29.2295 96.9872C29.512 97.2697 29.8952 97.4284 30.2948 97.4284H72.174C72.5735 97.4284 72.9567 97.2697 73.2393 96.9872C73.5218 96.7046 73.6805 96.3214 73.6805 95.9218C73.6805 95.5223 73.5218 95.1391 73.2393 94.8565C72.9567 94.574 72.5735 94.4153 72.174 94.4153H68.151C67.192 92.579 64.7496 87.0753 64.2572 78.1667H97.0281C98.4547 78.1653 99.8225 77.598 100.831 76.5892C101.84 75.5805 102.407 74.2127 102.409 72.7861V5.91332C102.407 4.48679 101.84 3.11913 100.831 2.11042C99.8223 1.10171 98.4546 0.53431 97.0281 0.532715ZM5.44067 3.54586H97.0281C97.6558 3.54654 98.2575 3.79619 98.7014 4.24003C99.1452 4.68386 99.3949 5.28564 99.3955 5.91332V58.3979H95.1152V9.3328C95.1149 8.93331 94.9561 8.55024 94.6736 8.26775C94.3912 7.98527 94.0081 7.82646 93.6086 7.82624H8.86015C8.46058 7.82624 8.07738 7.98496 7.79484 8.2675C7.51231 8.55004 7.35358 8.93324 7.35358 9.3328V58.3979H3.0732V5.91332C3.07388 5.28564 3.32353 4.68386 3.76737 4.24003C4.21121 3.79619 4.81298 3.54654 5.44067 3.54586ZM10.3667 58.3979V10.8428H92.102V58.3979H10.3667ZM64.8013 94.4153H37.6675C39.8382 89.2619 41.0448 83.7539 41.2273 78.165H61.2414C61.424 83.7539 62.6306 89.2619 64.8013 94.4153ZM97.0281 75.1518H5.44067C4.81298 75.1512 4.21121 74.9015 3.76737 74.4577C3.32353 74.0138 3.07388 73.4121 3.0732 72.7844V61.4111H99.3955V72.7861C99.3944 73.4135 99.1446 74.0148 98.7008 74.4583C98.257 74.9017 97.6555 75.1512 97.0281 75.1518Z" fill="#FFAD00"/>
<path d="M51.2343 63.0708C50.2035 63.0708 49.1959 63.3765 48.3388 63.9492C47.4817 64.5219 46.8137 65.3358 46.4192 66.2882C46.0247 67.2405 45.9215 68.2885 46.1226 69.2995C46.3237 70.3105 46.8201 71.2391 47.549 71.968C48.2779 72.6969 49.2065 73.1933 50.2176 73.3944C51.2286 73.5955 52.2765 73.4923 53.2288 73.0978C54.1812 72.7033 54.9952 72.0353 55.5678 71.1782C56.1405 70.3211 56.4462 69.3135 56.4462 68.2827C56.4446 66.9009 55.895 65.5762 54.9179 64.5991C53.9409 63.622 52.6161 63.0724 51.2343 63.0708ZM51.2343 70.4805C50.7994 70.4805 50.3743 70.3516 50.0127 70.1099C49.6511 69.8683 49.3693 69.5248 49.2029 69.123C49.0365 68.7212 48.993 68.2791 49.0779 67.8525C49.1628 67.426 49.3723 67.0342 49.6799 66.7268C49.9875 66.4193 50.3793 66.21 50.8059 66.1252C51.2325 66.0405 51.6746 66.0842 52.0763 66.2507C52.4781 66.4172 52.8214 66.6992 53.0629 67.0609C53.3044 67.4226 53.4332 67.8478 53.4331 68.2827C53.4324 68.8655 53.2005 69.4243 52.7883 69.8364C52.376 70.2484 51.8172 70.4801 51.2343 70.4805Z" fill="#FFAD00"/>
</svg>
