<svg width="72" height="72" viewBox="0 0 72 72" fill="none" xmlns="http://www.w3.org/2000/svg">
<path d="M61.5063 56.7803H37.7339C36.9137 56.7803 36.248 57.4459 36.248 58.2661C36.248 59.0863 36.9137 59.7519 37.7339 59.7519H61.5064C62.3266 59.7519 62.9922 59.0863 62.9922 58.2661C62.9922 57.4459 62.3264 56.7803 61.5063 56.7803Z" fill="#FFAD00"/>
<path d="M61.5063 62.7231H37.7339C36.9137 62.7231 36.248 63.3888 36.248 64.209C36.248 65.0291 36.9137 65.6948 37.7339 65.6948H61.5064C62.3266 65.6948 62.9922 65.0291 62.9922 64.209C62.9921 63.3888 62.3264 62.7231 61.5063 62.7231Z" fill="#FFAD00"/>
<path d="M10.9896 56.7803C8.53204 56.7803 6.53223 58.7801 6.53223 61.2376C6.53223 63.6951 8.53204 65.695 10.9896 65.695C13.4471 65.695 15.4469 63.6951 15.4469 61.2376C15.4469 58.7801 13.447 56.7803 10.9896 56.7803ZM10.9896 62.7233C10.1694 62.7233 9.50374 62.0576 9.50374 61.2375C9.50374 60.4173 10.1694 59.7516 10.9896 59.7516C11.8097 59.7516 12.4754 60.4173 12.4754 61.2375C12.4753 62.0578 11.8097 62.7233 10.9896 62.7233Z" fill="#FFAD00"/>
<path d="M10.9896 38.9507C8.53204 38.9507 6.53223 40.9505 6.53223 43.408C6.53223 45.8656 8.53204 47.8654 10.9896 47.8654C13.4471 47.8654 15.4469 45.8656 15.4469 43.408C15.4469 40.9505 13.447 38.9507 10.9896 38.9507ZM10.9896 44.8937C10.1694 44.8937 9.50374 44.228 9.50374 43.4079C9.50374 42.5877 10.1694 41.9221 10.9896 41.9221C11.8097 41.9221 12.4754 42.5877 12.4754 43.4079C12.4754 44.228 11.8097 44.8937 10.9896 44.8937Z" fill="#FFAD00"/>
<path d="M61.5063 27.0645H37.7339C36.9137 27.0645 36.248 27.7301 36.248 28.5503C36.248 29.3704 36.9137 30.0361 37.7339 30.0361H61.5064C62.3266 30.0361 62.9922 29.3704 62.9922 28.5503C62.9922 27.7301 62.3264 27.0645 61.5063 27.0645Z" fill="#FFAD00"/>
<path d="M71.9063 28.5505V22.6074C71.9063 21.181 71.4814 19.8587 70.7802 18.7235C70.7594 18.6819 70.7564 18.6344 70.7327 18.5958L61.5446 3.8272C60.1806 1.63419 57.8211 0.32373 55.2359 0.32373H17.2682C14.6801 0.32373 12.3235 1.63419 10.9596 3.8272L1.7716 18.5958C1.75669 18.6196 1.75669 18.6463 1.74193 18.6731C1.02276 19.8171 0.588867 21.1603 0.588867 22.6074V28.5505C0.588867 30.9872 1.78636 33.1387 3.60802 34.4937C1.78636 35.8517 0.588867 38.0001 0.588867 40.4367V46.3799C0.588867 48.8166 1.78636 50.9681 3.60802 52.3231C1.78636 53.681 0.588867 55.8295 0.588867 58.2661V64.2093C0.588867 68.3041 3.92296 71.6381 8.01772 71.6381H64.4773C68.5721 71.6381 71.9062 68.3041 71.9062 64.2093V58.2661C71.9062 55.8295 70.7087 53.678 68.8871 52.3229C70.7089 50.9681 71.9063 48.8166 71.9063 46.3799V40.4367C71.9063 38.0001 70.7089 35.8486 68.8872 34.4936C70.7089 33.1387 71.9063 30.9902 71.9063 28.5505ZM13.4824 5.39619C14.2997 4.07974 15.714 3.29232 17.2652 3.29232H55.2328C56.784 3.29232 58.1985 4.07974 59.0156 5.39619L65.146 15.2469C64.9231 15.2262 64.7062 15.1785 64.4773 15.1785H8.01772C7.78887 15.1785 7.57492 15.226 7.35205 15.2469L13.4824 5.39619ZM68.9348 58.2661V64.2093C68.9348 66.6668 66.935 68.6666 64.4775 68.6666H8.01772C5.5602 68.6666 3.56038 66.6668 3.56038 64.2093V58.2661C3.56038 55.8086 5.5602 53.8088 8.01772 53.8088H64.4773C66.9349 53.8088 68.9348 55.8087 68.9348 58.2661ZM68.9348 40.4367V46.3799C68.9348 48.8374 66.935 50.8373 64.4775 50.8373H8.01772C5.5602 50.8373 3.56038 48.8374 3.56038 46.3799V40.4367C3.56038 37.9792 5.5602 35.9794 8.01772 35.9794H64.4773C66.9349 35.9794 68.9348 37.9794 68.9348 40.4367ZM68.9348 28.5505C68.9348 31.0081 66.935 33.0079 64.4775 33.0079H8.01772C5.5602 33.0079 3.56038 31.0081 3.56038 28.5505V22.6074C3.56038 20.1498 5.5602 18.15 8.01772 18.15H64.4773C66.9349 18.15 68.9347 20.1498 68.9347 22.6074V28.5505H68.9348Z" fill="#FFAD00"/>
<path d="M61.5063 21.1216H37.7339C36.9137 21.1216 36.248 21.7873 36.248 22.6074C36.248 23.4276 36.9137 24.0932 37.7339 24.0932H61.5064C62.3266 24.0932 62.9922 23.4276 62.9922 22.6074C62.9922 21.7873 62.3264 21.1216 61.5063 21.1216Z" fill="#FFAD00"/>
<path d="M61.5063 44.894H37.7339C36.9137 44.894 36.248 45.5597 36.248 46.3799C36.248 47.2 36.9137 47.8657 37.7339 47.8657H61.5064C62.3266 47.8657 62.9922 47.2 62.9922 46.3799C62.9922 45.5597 62.3264 44.894 61.5063 44.894Z" fill="#FFAD00"/>
<path d="M61.5063 38.9507H37.7339C36.9137 38.9507 36.248 39.6164 36.248 40.4365C36.248 41.2567 36.9137 41.9223 37.7339 41.9223H61.5064C62.3266 41.9223 62.9922 41.2567 62.9922 40.4365C62.9922 39.6164 62.3264 38.9507 61.5063 38.9507Z" fill="#FFAD00"/>
<path d="M10.9896 21.1216C8.53204 21.1216 6.53223 23.1214 6.53223 25.5789C6.53223 28.0365 8.53204 30.0363 10.9896 30.0363C13.4471 30.0363 15.4469 28.0365 15.4469 25.5789C15.4469 23.1214 13.447 21.1216 10.9896 21.1216ZM10.9896 27.0646C10.1694 27.0646 9.50374 26.3989 9.50374 25.5788C9.50374 24.7586 10.1694 24.093 10.9896 24.093C11.8097 24.093 12.4754 24.7586 12.4754 25.5788C12.4754 26.3989 11.8097 27.0646 10.9896 27.0646Z" fill="#FFAD00"/>
</svg>
