<svg width="103" height="72" viewBox="0 0 103 72" fill="none" xmlns="http://www.w3.org/2000/svg">
<path d="M92.0424 56.2237V8.13401C92.0424 7.73444 91.8836 7.35124 91.6011 7.06871C91.3186 6.78617 90.9354 6.62744 90.5358 6.62744H12.969C12.5694 6.62744 12.1862 6.78617 11.9037 7.06871C11.6211 7.35124 11.4624 7.73444 11.4624 8.13401V56.2237C11.4624 56.6233 11.6211 57.0065 11.9037 57.289C12.1862 57.5716 12.5694 57.7303 12.969 57.7303H90.5358C90.9354 57.7303 91.3186 57.5716 91.6011 57.289C91.8836 57.0065 92.0424 56.6233 92.0424 56.2237ZM89.0292 54.7172H14.4755V9.63714H89.0292V54.7172Z" fill="#FFAD00"/>
<path d="M101.42 60.5048H97.832V6.22266C97.8306 4.7956 97.2631 3.42738 96.254 2.41829C95.2449 1.4092 93.8767 0.8417 92.4496 0.840332H11.0552C9.62818 0.8417 8.25996 1.4092 7.25087 2.41829C6.24179 3.42738 5.67428 4.7956 5.67291 6.22266V60.5048H2.0847C1.6852 60.505 1.30213 60.6638 1.01964 60.9463C0.737154 61.2288 0.578353 61.6119 0.578125 62.0114V65.7399C0.57972 67.1665 1.14712 68.5341 2.15583 69.5428C3.16454 70.5515 4.5322 71.1189 5.95873 71.1205H97.5461C98.9727 71.1192 100.341 70.5518 101.349 69.5431C102.358 68.5343 102.925 67.1665 102.927 65.7399V62.0114C102.927 61.6118 102.768 61.2286 102.485 60.9461C102.203 60.6635 101.82 60.5048 101.42 60.5048ZM8.68606 6.22266C8.68651 5.59445 8.93627 4.99211 9.38048 4.5479C9.82469 4.10368 10.427 3.85393 11.0552 3.85347H92.4496C93.0778 3.85393 93.6802 4.10368 94.1244 4.5479C94.5686 4.99211 94.8184 5.59445 94.8188 6.22266V60.5048H63.0681C62.6685 60.5048 62.2853 60.6635 62.0028 60.9461C61.7202 61.2286 61.5615 61.6118 61.5615 62.0114V62.8163H41.9434V62.0114C41.9431 61.6119 41.7843 61.2288 41.5019 60.9463C41.2194 60.6638 40.8363 60.505 40.4368 60.5048H8.68606V6.22266ZM99.9136 65.7399C99.9129 66.3676 99.6633 66.9694 99.2194 67.4132C98.7756 67.8571 98.1738 68.1067 97.5461 68.1074H5.95873C5.33112 68.1065 4.72947 67.8568 4.28569 67.413C3.8419 66.9692 3.59218 66.3675 3.59127 65.7399V63.518H38.9302V64.3229C38.9302 64.7225 39.089 65.1057 39.3715 65.3882C39.654 65.6707 40.0372 65.8295 40.4368 65.8295H63.0681C63.4676 65.8295 63.8508 65.6707 64.1334 65.3882C64.4159 65.1057 64.5746 64.7225 64.5746 64.3229V63.518H99.9136V65.7399Z" fill="#FFAD00"/>
</svg>
