<svg width="27" height="5" viewBox="0 0 27 5" fill="none" xmlns="http://www.w3.org/2000/svg">
<path d="M12.7653 4.08927L12.7653 4.0832L12.7658 4.0832H12.7671H12.7684L12.7698 4.0832L12.7711 4.0832H12.7724H12.7737H12.775H12.7763H12.7776H12.7788H12.7801H12.7814H12.7826H12.7839L12.7851 4.0832L12.7863 4.0832L12.7876 4.0832L12.7888 4.0832H12.79H12.7912H12.7924H12.7936L12.7948 4.0832L12.796 4.0832H12.7971H12.7983H12.7995H12.8006H12.8018H12.8029H12.8041H12.8052L12.8063 4.0832L12.8074 4.0832H12.8086H12.8097H12.8108L12.8119 4.0832L12.813 4.0832H12.8141H12.8152L12.8163 4.0832H12.8173H12.8184L12.8195 4.0832H12.8206H12.8216H12.8227H12.8238L12.8248 4.0832H12.8259L12.8269 4.0832L12.8279 4.0832L12.829 4.0832H12.83L12.831 4.0832L12.8321 4.0832L12.8331 4.0832L12.8341 4.0832H12.8351L12.8362 4.0832L12.8372 4.0832H12.8382L12.8392 4.0832H12.8402H12.8412L12.8422 4.0832L12.8432 4.0832H12.8442L12.8452 4.0832H12.8462H12.8472L12.8482 4.0832L12.8492 4.0832H12.8501H12.8511L12.8521 4.0832L12.8531 4.0832H12.8541L12.855 4.0832L12.856 4.0832L12.857 4.0832H12.858L12.8589 4.0832L12.8599 4.0832L12.8609 4.0832L12.8619 4.0832L12.8628 4.0832H12.8638H12.8648H12.8657H12.8667H12.8677L12.8687 4.0832L12.8696 4.0832H12.8706H12.8716H12.8725L12.8735 4.0832L12.8745 4.0832H12.8755H12.8764H12.8774H12.8784L12.8793 4.0832H12.8803L12.8813 4.0832H12.8823L12.8833 4.0832L12.8842 4.0832H12.8852L12.8862 4.0832L12.8872 4.0832H12.8882H12.8892H12.8902L12.8912 4.0832H12.8922L12.8932 4.0832H12.8941H12.8952L12.8962 4.0832L12.8972 4.0832H12.8982H12.8992H12.9002L12.9012 4.0832L12.9022 4.0832H12.9033H12.9043L12.9053 4.0832H12.9063L12.9074 4.0832H12.9084H12.9095L12.9105 4.0832H12.9116L12.9126 4.0832H12.9137H12.9147H12.9158L12.9169 4.0832L12.918 4.0832H12.919H12.9201L12.9212 4.0832H12.9223L12.9234 4.0832L12.9245 4.0832L12.9256 4.0832H12.9267L12.9278 4.0832L12.9289 4.0832H12.9301H12.9312L12.9323 4.0832H12.9335L12.9346 4.0832H12.9358H12.9369H12.9381H12.9393L12.9405 4.0832H12.9416L12.9428 4.0832H12.944H12.9452H12.9464H12.9476H12.9489L12.9501 4.0832H12.9513L12.9526 4.0832H12.9538L12.9551 4.0832L12.9563 4.0832H12.9576L12.9589 4.0832L12.9602 4.0832L12.9615 4.0832H12.9628L12.9641 4.0832H12.9654H12.9667H12.968H12.9694H12.9707H12.9721H12.9734H12.9748H12.9762H12.9776L12.979 4.0832H12.9804L12.9818 4.0832H12.9832H12.9846L12.9861 4.0832L12.9875 4.0832H12.989L12.9904 4.0832L12.9919 4.0832H12.9934H12.9949H12.9964H12.9979H12.9994H13.001H13.0025H13.0041H13.0056H13.0072H13.0088H13.0104H13.012L13.0136 4.0832L13.0152 4.0832H13.0169L13.0185 4.0832L13.0202 4.0832H13.0218H13.0235H13.0252H13.0269H13.0286H13.0304H13.0321H13.0338L13.0356 4.0832L13.0374 4.0832H13.0392H13.041L13.0428 4.0832L13.0446 4.0832H13.0464L13.0483 4.0832L13.0501 4.0832H13.052H13.0539H13.0558H13.0577H13.0596H13.0615H13.0635H13.0654H13.0674H13.0694H13.0714L13.0734 4.0832L13.0754 4.0832H13.0774H13.0795H13.0816H13.0836L13.0857 4.0832L13.0878 4.0832H13.09L13.0921 4.0832L13.0943 4.0832H13.0964H13.0986H13.1008H13.103H13.1052L13.1075 4.0832L13.1097 4.0832H13.112H13.1143L13.1166 4.0832L13.1189 4.0832H13.1212H13.1235H13.1259H13.1283H13.1307H13.1331H13.1355H13.1379H13.1404H13.1428L13.1453 4.0832L13.1478 4.0832H13.1504H13.1529H13.1554H13.158H13.1606H13.1632H13.1658H13.1684H13.1711H13.1738H13.1764H13.1791H13.1819H13.1846H13.1874H13.1901L13.1929 4.0832L13.1957 4.0832L13.1986 4.0832L13.2014 4.0832H13.2043L13.2071 4.0832L13.21 4.0832H13.213H13.2159H13.2189H13.2218H13.2248H13.2278H13.2309H13.2339H13.237H13.2401H13.2432H13.2463L13.2494 4.0832L13.2526 4.0832L13.2558 4.0832L13.259 4.0832L13.2622 4.0832L13.2654 4.0832H13.2686H13.2718H13.275H13.2781H13.2813L13.2844 4.0832L13.2875 4.0832H13.2905H13.2936H13.2966H13.2996H13.3026H13.3056L13.3086 4.0832H13.3115H13.3145H13.3174L13.3203 4.0832H13.3232H13.326H13.3289H13.3317H13.3345H13.3373H13.3401H13.3428H13.3456L13.3483 4.0832L13.351 4.0832H13.3537H13.3564L13.359 4.0832L13.3617 4.0832H13.3643H13.3669H13.3695H13.3721H13.3747L13.3772 4.0832L13.3797 4.0832L13.3823 4.0832L13.3848 4.0832L13.3872 4.0832H13.3897L13.3922 4.0832H13.3946H13.397H13.3994H13.4018H13.4042H13.4066H13.4089H13.4113H13.4136H13.4159L13.4182 4.0832L13.4205 4.0832L13.4227 4.0832L13.425 4.0832L13.4272 4.0832H13.4295L13.4317 4.0832H13.4339H13.436H13.4382L13.4404 4.0832L13.4425 4.0832H13.4446H13.4467H13.4488H13.4509H13.453H13.4551H13.4571L13.4591 4.0832H13.4612L13.4632 4.0832H13.4652H13.4672H13.4691H13.4711H13.473L13.475 4.0832L13.4769 4.0832H13.4788H13.4807H13.4826H13.4845H13.4864H13.4882L13.49 4.0832L13.4919 4.0832H13.4937L13.4955 4.0832L13.4973 4.0832H13.4991H13.5009H13.5026H13.5044L13.5061 4.0832L13.5079 4.0832H13.5096H13.5113H13.513H13.5147H13.5164H13.518H13.5197L13.5213 4.0832L13.523 4.0832H13.5246L13.5262 4.0832L13.5278 4.0832H13.5294L13.531 4.0832L13.5326 4.0832H13.5342L13.5357 4.0832L13.5373 4.0832H13.5388H13.5404H13.5419H13.5434L13.5449 4.0832L13.5464 4.0832H13.5479H13.5494L13.5509 4.0832L13.5523 4.0832H13.5538L13.5552 4.0832L13.5567 4.0832H13.5581H13.5595H13.561H13.5624H13.5638H13.5652H13.5665H13.5679L13.5693 4.0832H13.5707L13.572 4.0832H13.5734H13.5747H13.576L13.5774 4.0832L13.5787 4.0832L13.58 4.0832L13.5813 4.0832L13.5826 4.0832L13.5839 4.0832H13.5852L13.5865 4.0832L13.5877 4.0832H13.589L13.5903 4.0832H13.5915L13.5928 4.0832H13.594H13.5953L13.5965 4.0832L13.5977 4.0832H13.599L13.6002 4.0832L13.6014 4.0832H13.6026L13.6038 4.0832L13.605 4.0832H13.6062H13.6074L13.6085 4.0832H13.6097L13.6109 4.0832H13.6121H13.6132L13.6144 4.0832H13.6155L13.6167 4.0832H13.6178H13.619L13.6201 4.0832L13.6212 4.0832L13.6224 4.0832L13.6235 4.0832H13.6246H13.6257H13.6268L13.6279 4.0832L13.629 4.0832H13.6302H13.6313H13.6323H13.6334H13.6345L13.6356 4.0832L13.6367 4.0832H13.6378H13.6389H13.6399H13.641H13.6421H13.6432H13.6442H13.6453H13.6463H13.6474H13.6485H13.6495H13.6506L13.6516 4.0832L13.6527 4.0832H13.6537H13.6548H13.6558L13.6569 4.0832L13.6579 4.0832H13.659L13.66 4.0832L13.661 4.0832H13.6621H13.6631H13.6642H13.6652H13.6662H13.6673H13.6683H13.6693H13.6704L13.6714 4.0832L13.6724 4.0832H13.6735H13.6745H13.6756H13.6766H13.6776L13.6787 4.0832L13.6797 4.0832L13.6807 4.0832L13.6818 4.0832H13.6828H13.6839H13.6849H13.6859H13.687H13.688L13.6891 4.0832L13.6901 4.0832L13.6912 4.0832L13.6922 4.0832H13.6933H13.6943H13.6954H13.6964H13.6975H13.6985H13.6996L13.7007 4.0832L13.7017 4.0832H13.7028H13.7039H13.7049H13.706H13.7071H13.7082H13.7092H13.7103H13.7114L13.7125 4.0832L13.7136 4.0832H13.7147L13.7158 4.0832L13.7169 4.0832L13.718 4.0832H13.7191L13.7202 4.0832H13.7214H13.7225H13.7236H13.7247L13.7259 4.0832L13.727 4.0832H13.7282H13.7293H13.7305H13.7316L13.7328 4.0832H13.7339L13.7351 4.0832H13.7363H13.7375H13.7386H13.7398H13.741H13.7422H13.7434H13.7446H13.7458H13.7471H13.7483H13.7495H13.7507H13.752H13.7532H13.7545H13.7557H13.757H13.7583L13.7591 4.0832L13.7591 4.08927H14.2592L24.1747 4.08927C24.9883 4.08927 25.6647 3.41287 25.6647 2.59933C25.6647 1.77164 24.9953 1.1023 24.1676 1.1023L14.2596 1.09523L14.2592 1.09523L13.262 1.09523L12.9025 1.09523L12.2649 1.09523L2.34968 1.09523C1.52199 1.09523 0.852654 1.76457 0.852654 2.59225C0.852653 3.41994 1.52199 4.08927 2.34967 4.08927L12.2652 4.08927H12.7653Z" fill="#FFAD00" stroke="#FFAD00"/>
</svg>
