<svg width="77" height="84" viewBox="0 0 77 84" fill="none" xmlns="http://www.w3.org/2000/svg">
<path d="M47.6798 42.5944L41.4357 40.186L37.8517 36.6022C37.6186 36.3691 37.3136 36.2495 37.0062 36.2441V33.3153C38.7023 31.5133 39.9074 29.2257 40.3844 26.6464C40.3853 26.6453 40.3865 26.644 40.3876 26.643C40.6998 26.6614 41.015 26.6386 41.3265 26.5748C43.011 26.2299 44.2338 24.666 44.2338 22.8561V21.9174C44.2338 20.8565 43.7977 19.8841 43.0903 19.1955C44.2398 13.0055 43.3118 7.96367 40.3947 4.59512C37.5823 1.34752 33.0482 -0.203624 27.282 0.107423C21.9117 0.397711 18.4625 2.88494 17.4042 3.76185C15.9148 3.95538 11.6672 5.02876 11.6672 10.9682C11.6672 14.257 12.2016 16.9922 12.5768 18.5084C11.3129 19.0992 10.4628 20.4184 10.4628 21.9313V22.856C10.4628 24.6659 11.6854 26.2298 13.3702 26.5746C13.6814 26.6384 13.9971 26.6613 14.3089 26.6428C14.3101 26.644 14.3112 26.6453 14.3122 26.6464C14.7891 29.2255 15.9943 31.5131 17.6904 33.3152V36.2439C17.3829 36.2493 17.0779 36.3689 16.8449 36.602L13.261 40.1858L6.23773 42.8949C2.86019 44.1976 0.688423 47.503 0.83324 51.1202L1.83078 76.0266C1.85726 76.6865 2.4004 77.2035 3.05486 77.2035C3.07153 77.2035 3.0882 77.2031 3.10488 77.2025C3.7814 77.1754 4.30771 76.6051 4.28074 75.9286L3.2832 51.0224C3.25672 50.3605 3.34025 49.7134 3.5189 49.1012L7.50088 53.0832C8.63441 54.2168 9.25863 55.7239 9.25863 57.3269V75.9779C9.25863 76.6549 9.8075 77.2038 10.4845 77.2038C11.1615 77.2038 11.7104 76.6549 11.7104 75.9779V57.3269C11.7104 55.069 10.8312 52.9461 9.23444 51.3495L4.74134 46.8564C5.37096 46.1282 6.17922 45.5457 7.1202 45.1827L13.6731 42.6551L18.6757 50.1588C19.2821 51.0685 20.254 51.6521 21.342 51.7598C21.4632 51.7717 21.5839 51.7776 21.7042 51.7776C22.3729 51.7776 23.0202 51.5904 23.5847 51.2469L22.5104 75.9245C22.481 76.6008 23.0053 77.1731 23.6818 77.2025C23.7 77.2033 23.7181 77.2036 23.7361 77.2036C24.3886 77.2036 24.9313 76.6894 24.9599 76.031L25.9561 53.1498H28.7418L29.738 76.031C29.7666 76.6893 30.3093 77.2036 30.9618 77.2036C30.9797 77.2036 30.9979 77.2033 31.016 77.2025C31.6924 77.1731 32.2169 76.6008 32.1875 75.9245L31.1131 51.2469C31.6777 51.5904 32.3248 51.7776 32.9935 51.7776C33.1136 51.7776 33.2345 51.7717 33.3555 51.7598C34.4426 51.6524 35.4145 51.0687 36.021 50.1589L41.0236 42.6552L46.7972 44.8823C46.9423 44.9382 47.0914 44.9646 47.2382 44.9646C47.7302 44.9646 48.1945 44.6662 48.3822 44.1796C48.626 43.5478 48.3114 42.8383 47.6798 42.5944ZM16.7205 26.1873C16.4988 24.9815 15.3815 24.1069 14.1783 24.1945C14.075 24.2018 13.9685 24.1946 13.8617 24.1729C13.3217 24.0624 12.9145 23.4962 12.9145 22.8561V21.9315C12.9145 21.3052 13.3361 20.7406 13.8741 20.6461C14.3271 20.5667 14.7607 20.7331 15.0356 21.0915C15.264 21.3892 15.5683 21.602 15.9166 21.7073C16.4254 21.8607 16.9871 21.7707 17.4187 21.4658C18.4151 20.7625 19.2597 19.8704 19.9287 18.8145C20.2911 18.2426 20.1212 17.4852 19.5495 17.1228C18.9772 16.7601 18.2201 16.9302 17.8578 17.502C17.4763 18.104 17.0199 18.6329 16.4964 19.0803C16.0793 18.7128 15.5863 18.4498 15.0567 18.3049C14.7283 17.0684 14.119 14.3222 14.119 10.9681C14.119 8.97151 14.7378 7.56747 15.9585 6.79549C16.9086 6.19432 17.9119 6.17128 17.9122 6.17111C18.2257 6.17111 18.5307 6.04771 18.7584 5.83228C18.7898 5.80237 21.9689 2.8498 27.4142 2.55559C32.3959 2.28573 36.2433 3.54659 38.541 6.19988C40.8685 8.88783 41.6356 13.0177 40.7789 18.1846C40.4105 18.1674 40.0021 18.1942 39.5959 18.2655L38.3674 15.315C38.1322 14.7501 37.5161 14.4453 36.9244 14.6006C36.8048 14.632 24.8901 17.672 19.8662 11.4179C19.4424 10.8901 18.6708 10.8058 18.1428 11.2299C17.615 11.6539 17.5307 12.4254 17.9549 12.9533C23.0508 19.2977 33.1987 17.8753 36.5 17.2088L37.4548 19.502C37.8453 20.4395 38.844 20.9516 39.8291 20.7195C40.2154 20.6285 40.6356 20.612 40.819 20.6484C41.3678 20.7576 41.7817 21.303 41.7817 21.9173V22.856C41.7817 23.4962 41.3744 24.0622 40.8347 24.1727C40.7276 24.1946 40.6214 24.2018 40.5179 24.1943C39.3152 24.1064 38.1972 24.9813 37.9759 26.1873C37.0338 31.316 32.5642 35.0384 27.3482 35.0384C22.132 35.0384 17.6624 31.316 16.7205 26.1873ZM22.5365 48.9793C22.2847 49.231 21.937 49.3554 21.583 49.3201C21.2288 49.2851 20.9125 49.0952 20.715 48.799L15.6752 41.2391L17.7674 39.1469L25.5548 45.9609L22.5365 48.9793ZM26.062 50.6982L26.1429 48.8401L27.348 47.6348L28.5533 48.8401L28.6342 50.6982H26.062ZM27.348 44.2723L20.1418 37.9668V35.3603C22.2294 36.713 24.7104 37.4904 27.348 37.4904C29.9856 37.4904 32.4667 36.713 34.5541 35.3603V37.9668L27.348 44.2723ZM33.9813 48.7989C33.7837 49.0952 33.4675 49.2851 33.1133 49.3201C32.905 49.3412 32.5046 49.3237 32.16 48.9793L29.1417 45.9609L36.929 39.1469L39.0212 41.2391L33.9813 48.7989Z" fill="#FFAD00"/>
<path d="M76.6513 57.6344C76.6513 54.791 74.3382 52.4779 71.4948 52.4779H63.549V49.7731C63.549 47.6521 61.8234 45.9268 59.7027 45.9268H51.841C49.7201 45.9268 47.9947 47.6523 47.9947 49.7731V52.4779H40.0489C37.2055 52.4779 34.8923 54.791 34.8923 57.6344V61.2739C34.8923 62.6157 35.3441 63.9042 36.2026 65.0958V78.7314C36.2026 81.5013 38.456 83.7548 41.2259 83.7548H70.318C73.0878 83.7548 75.3413 81.5013 75.3413 78.7314V65.0958C76.1997 63.904 76.6515 62.6156 76.6515 61.2738L76.6513 57.6344ZM50.4463 49.7729C50.4465 49.0039 51.0721 48.3784 51.841 48.3784H59.7025C60.4715 48.3784 61.0971 49.004 61.0971 49.7729V52.4777H50.4463V49.7729ZM74.1994 61.2741C74.1994 63.3784 72.2083 65.4651 68.7897 67.024V66.8063C68.7897 66.1292 68.2408 65.5804 67.5638 65.5804H62.3229C61.6459 65.5804 61.0971 66.1292 61.0971 66.8063V70.7369C61.0971 72.8579 62.8226 74.5832 64.9434 74.5832C67.0641 74.5832 68.7897 72.8577 68.7897 70.7369V69.6885C70.3814 69.0517 71.7555 68.3107 72.8892 67.4874V78.7316C72.8894 80.1495 71.7359 81.303 70.3178 81.303H41.2259C39.8079 81.303 38.6543 80.1494 38.6543 78.7314V67.4872C39.788 68.3105 41.162 69.0516 42.7538 69.6885V70.7369C42.7538 72.8579 44.4794 74.5832 46.6001 74.5832C48.4218 74.5832 49.9507 73.3098 50.3461 71.6066C52.1063 71.8418 53.9248 71.9628 55.7718 71.9628C56.2197 71.9628 56.6736 71.9556 57.1208 71.9414C57.7975 71.92 58.3287 71.3539 58.3071 70.6773C58.2857 70.0006 57.7246 69.4676 57.043 69.4909C56.6215 69.5043 56.1939 69.511 55.7717 69.511C53.9543 69.511 52.1682 69.3873 50.4463 69.1462V66.8063C50.4463 66.1292 49.8974 65.5804 49.2204 65.5804H43.9795C43.3025 65.5804 42.7537 66.1292 42.7537 66.8063V67.024C39.3351 65.4651 37.3439 63.3782 37.3439 61.2741V57.6346C37.3439 56.1431 38.5572 54.9298 40.0487 54.9298H71.4946C72.9861 54.9298 74.1994 56.1431 74.1994 57.6346V61.2741ZM66.3383 68.032V70.7368C66.3383 71.5058 65.7126 72.1313 64.9437 72.1313C64.1748 72.1313 63.5491 71.5056 63.5491 70.7368V68.032H66.3383ZM45.2054 70.7368V68.032H47.9945V70.7368C47.9945 71.5058 47.3688 72.1313 46.6 72.1313C45.8311 72.1313 45.2054 71.5058 45.2054 70.7368Z" fill="#FFAD00"/>
</svg>
