<svg width="54" height="78" viewBox="0 0 54 78" fill="none" xmlns="http://www.w3.org/2000/svg">
<path d="M48.487 43.2302L41.3922 40.4934L37.7669 36.8681C37.5262 36.6274 37.2028 36.5169 36.886 36.5387V33.4462C38.5994 31.6365 39.8164 29.3338 40.2935 26.7356C40.2999 26.7123 40.3378 26.674 40.364 26.6634C40.6809 26.6852 41.0015 26.6635 41.3177 26.5989C42.9685 26.261 44.1668 24.7265 44.1668 22.9503V22.0046C44.1668 20.9442 43.7234 19.9736 43.0066 19.2965C44.1737 13.0679 43.2499 7.9988 40.3238 4.61963C37.5115 1.3726 32.9716 -0.178703 27.1952 0.133586C21.7729 0.426651 18.3095 2.95206 17.2809 3.81007C15.8359 3.99036 11.5598 5.02743 11.5598 10.9749C11.5598 14.3398 12.1163 17.1259 12.4935 18.6288C11.2138 19.1902 10.3464 20.5049 10.3464 22.019V22.9504C10.3464 24.7265 11.5447 26.261 13.1954 26.599C13.5117 26.6638 13.8326 26.6855 14.1491 26.6635C14.1752 26.6741 14.2133 26.7123 14.2194 26.7345C14.6966 29.3332 15.9137 31.6362 17.6271 33.4461V36.5387C17.3102 36.5169 16.9868 36.6276 16.7463 36.8681L13.1211 40.4933L6.02626 43.23C2.66373 44.527 0.501318 47.8179 0.645731 51.419L1.65057 76.5091C1.67509 77.1202 2.17811 77.599 2.78423 77.599C2.79967 77.599 2.81511 77.5987 2.83055 77.5981C3.45709 77.5729 3.94453 77.0448 3.91955 76.4182L2.91471 51.3282C2.88519 50.5924 2.98783 49.8744 3.20445 49.2009L7.33324 53.3297C8.49399 54.4904 9.13326 56.0337 9.13326 57.6753V76.4638C9.13326 77.0908 9.64158 77.5991 10.2686 77.5991C10.8956 77.5991 11.4039 77.0908 11.4039 76.4638V57.675C11.4039 55.427 10.5285 53.3135 8.93889 51.7239L4.34704 47.1322C5.00007 46.3535 5.85005 45.7318 6.84369 45.3485L13.5194 42.7736L18.6029 50.399C19.1972 51.2907 20.1497 51.8624 21.216 51.9679C21.3347 51.9797 21.453 51.9855 21.5708 51.9855C22.2892 51.9855 22.9844 51.7687 23.5729 51.3666L22.4824 76.4142C22.4551 77.0406 22.9408 77.5705 23.5673 77.5978C23.5841 77.5985 23.6009 77.5988 23.6176 77.5988C24.2219 77.5988 24.7244 77.1226 24.7509 76.5128L25.7586 53.3677H28.7556L29.7633 76.5128C29.7898 77.1224 30.2924 77.5988 30.8967 77.5988C30.9133 77.5988 30.9301 77.5985 30.9469 77.5978C31.5733 77.5704 32.0591 77.0406 32.0318 76.4142L30.9413 51.3669C31.5297 51.7692 32.2248 51.9858 32.9434 51.9858C33.0612 51.9858 33.1797 51.9799 33.2982 51.9682C34.3644 51.8627 35.3168 51.2908 35.9113 50.3993L40.9948 42.7739L47.6705 45.3488C48.6642 45.7321 49.5141 46.354 50.1672 47.1325L45.5753 51.7242C43.9857 53.3138 43.1103 55.4273 43.1103 57.6753V76.4638C43.1103 77.0908 43.6186 77.5991 44.2456 77.5991C44.8726 77.5991 45.381 77.0908 45.381 76.4638V57.6753C45.381 56.0337 46.0202 54.4904 47.181 53.3297L51.3098 49.2009C51.5264 49.8744 51.629 50.5924 51.5995 51.3282L50.5948 76.4182C50.5697 77.0448 51.0573 77.5729 51.6838 77.5981C51.6994 77.5987 51.7147 77.599 51.7301 77.599C52.3361 77.599 52.8393 77.1202 52.8638 76.5091L53.8686 51.4192C54.012 47.8181 51.8496 44.5272 48.487 43.2302ZM16.4519 26.324C16.2383 25.1585 15.1605 24.3128 13.9967 24.3979C13.8835 24.4062 13.767 24.3982 13.6505 24.3744C13.061 24.2538 12.6166 23.6416 12.6166 22.9504V22.019C12.6166 21.3299 13.0675 20.7311 13.6656 20.626C14.1585 20.5396 14.632 20.7211 14.9316 21.1116C15.149 21.3952 15.4384 21.5977 15.7687 21.6976C16.2525 21.8437 16.7861 21.758 17.196 21.4686C18.1891 20.7677 19.0309 19.8785 19.6978 18.8259C20.0334 18.2962 19.8763 17.5949 19.3466 17.2591C18.817 16.9235 18.1155 17.0808 17.7799 17.6103C17.374 18.2506 16.8851 18.8101 16.3223 19.2791C15.8863 18.8761 15.36 18.5938 14.7931 18.4483C14.4646 17.2243 13.83 14.4143 13.83 10.975C13.83 6.23814 17.3568 6.04892 17.7507 6.04302C18.044 6.04302 18.3259 5.92949 18.5374 5.72619C18.5689 5.69607 21.7446 2.70214 27.3172 2.4009C32.367 2.12812 36.271 3.40922 38.6066 6.1063C40.9845 8.85211 41.76 13.0725 40.8687 18.3484C40.46 18.3206 39.9932 18.3513 39.5328 18.4383L38.2643 15.3922C38.0466 14.8695 37.4759 14.5875 36.9287 14.7304C36.8074 14.762 24.7302 17.8257 19.6412 11.4905C19.2487 11.0017 18.5342 10.9235 18.0451 11.3162C17.5563 11.7089 17.4782 12.4235 17.871 12.9123C23.0125 19.3136 33.3135 17.8086 36.5356 17.1475L37.5291 19.5329C37.9034 20.4323 38.861 20.9235 39.8061 20.701C40.2236 20.6027 40.653 20.5905 40.8454 20.6286C41.4441 20.7477 41.8955 21.3392 41.8955 22.0045V22.9501C41.8955 23.6413 41.4511 24.2535 40.8616 24.3741C40.745 24.398 40.6288 24.4057 40.5156 24.3976C39.3547 24.3122 38.274 25.1582 38.0599 26.324C37.1023 31.5377 32.5586 35.322 27.2559 35.322C21.9533 35.322 17.4096 31.5377 16.4519 26.324ZM22.4797 49.3364C22.2051 49.6111 21.8262 49.7469 21.4391 49.7085C21.0525 49.6702 20.7072 49.4628 20.4916 49.1396L15.3694 41.456L17.6005 39.2249L25.5954 46.2205L22.4797 49.3364ZM25.8569 51.0972L25.9445 49.0827L27.2565 47.7707L28.5683 49.0827L28.656 51.0972H25.8569ZM27.2565 44.6567L19.8976 38.2178V35.3607C22.0165 36.7759 24.554 37.5931 27.2565 37.5931C29.959 37.5931 32.4965 36.7759 34.6154 35.3609V38.2178L27.2565 44.6567ZM34.0212 49.1396C33.8057 49.4628 33.4604 49.6702 33.0737 49.7085C32.6867 49.7471 32.3079 49.611 32.0332 49.3364L28.9174 46.2205L36.9123 39.2249L39.1435 41.456L34.0212 49.1396Z" fill="#FFAD00"/>
</svg>
