<svg width="27" height="27" viewBox="0 0 27 27" fill="none" xmlns="http://www.w3.org/2000/svg">
<path d="M25.6647 13.4343C25.6647 12.6066 24.9954 11.9373 24.1678 11.9373C24.1677 11.9373 24.1677 11.9373 24.1677 11.9373L14.7592 11.9305L14.7592 2.51468C14.7592 1.687 14.0899 1.01766 13.2622 1.01766C12.4345 1.01766 11.7652 1.687 11.7652 2.51468L11.7652 11.9302L2.34968 11.9302C1.522 11.9302 0.852662 12.5995 0.852662 13.4272C0.852664 14.2549 1.522 14.9242 2.34968 14.9242L11.7652 14.9242L11.7652 24.3397C11.7652 25.1674 12.4345 25.8367 13.2622 25.8368C14.0899 25.8367 14.7592 25.1674 14.7592 24.3397L14.7592 14.9242L24.1747 14.9242C24.9883 14.9242 25.6647 14.2478 25.6647 13.4343Z" fill="#FFAD00" stroke="#FFAD00"/>
</svg>
