<svg width="75" height="76" viewBox="0 0 75 76" fill="none" xmlns="http://www.w3.org/2000/svg">
<path fill-rule="evenodd" clip-rule="evenodd" d="M27.9004 62.3078L51.189 75.7536L74.4777 62.3078V35.4168L51.189 21.9705L27.9004 35.4168V62.3078Z" fill="#FFAD00" fill-opacity="0.1"/>
<path d="M56.5034 41.6331C56.1442 41.2739 51.3845 36.4244 50.3966 35.5264C50.0374 34.8978 49.1394 34.9876 48.7802 35.6162C48.0617 36.3346 46.4452 37.9511 42.7632 41.6331C42.2244 42.172 42.5836 43.1598 43.3918 43.1598H46.7146C46.2656 46.9316 43.0326 49.8952 39.0812 49.8952C34.8604 49.8952 31.4478 46.4826 31.4478 42.2618C31.4478 38.5798 34.0521 35.4366 37.6443 34.7181C38.9914 34.4487 40.6079 34.5385 41.8652 35.0774C42.2244 35.1672 42.5836 35.1672 42.853 34.8978L46.6248 31.1259C47.0739 30.6769 46.9841 30.0483 46.4452 29.6891C44.0205 28.342 41.2365 27.6235 38.4526 27.8032V9.93195C38.273 4.63345 30.1007 0.592224 19.5935 0.592224C9.17613 0.592224 0.914062 4.63345 0.914062 9.93195V48.7277C0.914062 53.9364 9.08632 58.0675 19.5935 58.0675C24.6226 58.0675 29.3823 57.0796 32.8847 55.3733C34.7706 56.2714 36.8361 56.8102 39.0812 56.8102C46.8044 56.8102 53.0908 50.7932 53.5398 43.2496H55.6951C56.5932 43.3394 57.132 42.2618 56.5034 41.6331ZM36.4769 27.9828C31.6274 28.8808 27.4964 32.2036 25.6105 36.8735C17.7974 38.2205 8.7271 36.6939 4.59607 33.3711C1.5427 30.8565 2.97958 29.0604 2.62036 24.66C6.30237 28.5216 14.2052 29.5993 19.5037 29.5993C26.1493 29.5993 33.2439 27.9828 36.3871 24.66V27.9828H36.4769ZM2.71016 13.9732C5.67373 17.1164 12.0499 19.2717 19.5935 19.2717C27.1371 19.2717 33.5133 17.1164 36.4769 13.9732V20.4391C36.4769 26.1867 25.341 27.893 19.5935 27.893C11.1518 27.893 2.71016 25.2886 2.71016 20.4391V13.9732ZM19.5935 2.38833C28.7536 2.38833 36.4769 5.80092 36.4769 9.93195C36.4769 14.063 28.7536 17.4756 19.5935 17.4756C10.4334 17.4756 2.71016 13.9732 2.71016 9.93195C2.71016 5.89072 10.4334 2.38833 19.5935 2.38833ZM19.6833 39.2084C21.4794 39.2084 23.2755 39.1186 25.0716 38.8492C24.8022 40.0166 24.6226 41.1841 24.6226 42.3516C24.6226 43.7885 24.8022 45.1355 25.2512 46.4826C23.4551 46.752 21.5692 46.9316 19.6833 46.9316C10.5232 46.9316 2.79997 43.519 2.79997 39.388V33.9997C6.39217 37.8613 14.2052 39.2084 19.6833 39.2084ZM19.5935 56.2714C10.4334 56.2714 2.71016 52.8588 2.71016 48.7277V43.3394C5.67373 46.4826 12.0499 48.6379 19.5935 48.6379C21.7488 48.6379 23.8144 48.4583 25.7901 48.0991C26.8677 50.6136 28.7536 52.769 30.9089 54.2956C27.8556 55.5529 23.8144 56.2714 19.5935 56.2714ZM52.6418 41.3637C52.1029 41.3637 51.7437 41.7229 51.7437 42.2618C51.7437 49.2666 46.086 54.9243 39.0812 54.9243C32.1662 54.9243 26.4187 49.3564 26.4187 42.2618C26.4187 40.8249 26.6881 39.2982 27.1371 37.9511C28.7536 33.4609 32.7949 30.2279 37.5545 29.6891C39.7098 29.4196 42.1346 29.6891 44.3797 30.7667L41.8652 33.2813C40.4283 32.8322 38.722 32.7424 37.1953 33.0118C32.7949 33.9099 29.5619 37.7715 29.5619 42.2618C29.5619 47.4705 33.7827 51.6913 38.9914 51.6913C44.2001 51.6913 48.4209 47.4705 48.4209 42.2618C48.4209 41.7229 48.0617 41.3637 47.5229 41.3637H45.4574C46.7146 40.0166 48.6005 38.2205 49.4986 37.2327C50.4864 38.2205 52.2826 40.0166 53.5398 41.3637H52.6418Z" fill="#FFAD00" stroke="#FFAD00" stroke-width="0.5"/>
</svg>
