<svg width="75" height="76" viewBox="0 0 75 76" fill="none" xmlns="http://www.w3.org/2000/svg">
<path fill-rule="evenodd" clip-rule="evenodd" d="M27.9004 62.3078L51.189 75.7536L74.4777 62.3078V35.4168L51.189 21.9705L27.9004 35.4168V62.3078Z" fill="#FFAD00" fill-opacity="0.1"/>
<path d="M52.9909 0.694275H4.63992C2.23314 0.694275 0.275391 2.65202 0.275391 5.0588V41.7801C0.275391 44.1869 2.23314 46.1446 4.63992 46.1446H20.7599L18.5956 51.488H15.4794C13.7012 51.488 12.2554 52.9339 12.2554 54.712C12.2554 56.4901 13.7012 57.936 15.4794 57.936H42.1335C43.9117 57.936 45.3575 56.4901 45.3575 54.712C45.3575 52.9339 43.9117 51.488 42.1335 51.488H39.0173L36.853 46.1446H52.973C55.3798 46.1446 57.3375 44.1869 57.3375 41.7801V5.0588C57.3555 2.65202 55.3977 0.694275 52.9909 0.694275ZM43.8039 54.712C43.8039 55.628 43.0585 56.3644 42.1515 56.3644H15.4884C14.5724 56.3644 13.836 55.619 13.836 54.712C13.836 53.805 14.5813 53.0596 15.4884 53.0596H42.1425C43.0585 53.0596 43.8039 53.805 43.8039 54.712ZM37.3379 51.488H20.2929L22.4572 46.1446H35.1646L37.3379 51.488ZM55.7839 41.7801C55.7839 43.3247 54.5266 44.573 52.9909 44.573H4.63992C3.09527 44.573 1.84698 43.3157 1.84698 41.7801V5.0588C1.84698 3.51415 3.10425 2.26586 4.63992 2.26586H52.982C54.5266 2.26586 55.7749 3.52313 55.7749 5.0588V41.7801H55.7839Z" fill="#FFAD00" stroke="#FFAD00" stroke-width="0.5"/>
<path d="M52.9914 4.26836H4.64038C4.20932 4.26836 3.8501 4.6186 3.8501 5.05864V36.4006C3.8501 36.8317 4.20034 37.1909 4.64038 37.1909H52.9824C53.4135 37.1909 53.7727 36.8406 53.7727 36.4006V5.05864C53.7727 4.6186 53.4225 4.26836 52.9914 4.26836ZM52.2011 35.6193H5.43067V5.83995H52.2011V35.6193Z" fill="#FFAD00" stroke="#FFAD00" stroke-width="0.5"/>
<path d="M28.816 41.2591C29.312 41.2591 29.7141 40.857 29.7141 40.361C29.7141 39.865 29.312 39.463 28.816 39.463C28.32 39.463 27.918 39.865 27.918 40.361C27.918 40.857 28.32 41.2591 28.816 41.2591Z" fill="#FFAD00" stroke="#FFAD00" stroke-width="0.5"/>
<path d="M16.6552 26.2706C21.7292 26.2706 25.8602 22.1396 25.8602 17.0656C25.8602 11.9916 21.7292 7.86056 16.6552 7.86056C11.5812 7.86056 7.4502 11.9916 7.4502 17.0746C7.4502 22.1485 11.5812 26.2706 16.6552 26.2706ZM16.6552 24.699C14.8322 24.699 13.1618 24.0524 11.8506 22.9837L16.9875 17.8469H24.2527C23.8576 21.6995 20.5977 24.699 16.6552 24.699ZM24.2527 16.2843H17.4455V9.47705C21.0287 9.84525 23.8845 12.701 24.2527 16.2843ZM15.8739 9.47705V16.7423L10.7371 21.8791C9.66838 20.568 9.02178 18.8886 9.02178 17.0746C9.02178 13.1231 12.0303 9.87219 15.8739 9.47705Z" fill="#FFAD00" stroke="#FFAD00" stroke-width="0.5"/>
<path d="M28.3762 33.5897H32.6869C33.1179 33.5897 33.4771 33.2395 33.4771 32.7994V24.5822C33.4771 24.1512 33.1269 23.792 32.6869 23.792H28.3762C27.9452 23.792 27.5859 24.1422 27.5859 24.5822V32.7994C27.5859 33.2395 27.9362 33.5897 28.3762 33.5897ZM29.1575 25.3725H31.8966V32.0181H29.1575V25.3725Z" fill="#FFAD00" stroke="#FFAD00" stroke-width="0.5"/>
<path d="M40.5892 18.4126H36.2786C35.8475 18.4126 35.4883 18.7629 35.4883 19.2029V32.8084C35.4883 33.2395 35.8385 33.5987 36.2786 33.5987H40.5892C41.0203 33.5987 41.3795 33.2484 41.3795 32.8084V19.1939C41.3705 18.7629 41.0203 18.4126 40.5892 18.4126ZM39.7989 32.0181H37.0599V19.9842H39.7989V32.0181Z" fill="#FFAD00" stroke="#FFAD00" stroke-width="0.5"/>
<path d="M48.4916 26.5041H44.1809C43.7498 26.5041 43.3906 26.8543 43.3906 27.2944V32.8174C43.3906 33.2484 43.7409 33.6077 44.1809 33.6077H48.4916C48.9226 33.6077 49.2818 33.2574 49.2818 32.8174V27.2944C49.2818 26.8543 48.9316 26.5041 48.4916 26.5041ZM47.7102 32.0181H44.9712V28.0667H47.7102V32.0181Z" fill="#FFAD00" stroke="#FFAD00" stroke-width="0.5"/>
<path d="M8.24048 29.8179H22.5285C22.9595 29.8179 23.3187 29.4677 23.3187 29.0276C23.3187 28.5876 22.9685 28.2373 22.5285 28.2373H8.24048C7.80942 28.2373 7.4502 28.5876 7.4502 29.0276C7.4502 29.4677 7.80044 29.8179 8.24048 29.8179Z" fill="#FFAD00" stroke="#FFAD00" stroke-width="0.5"/>
<path d="M8.24048 33.5897H16.6552C17.0863 33.5897 17.4455 33.2395 17.4455 32.7994C17.4455 32.3594 17.0953 32.0091 16.6552 32.0091H8.24048C7.80942 32.0091 7.4502 32.3594 7.4502 32.7994C7.4502 33.2395 7.80044 33.5897 8.24048 33.5897Z" fill="#FFAD00" stroke="#FFAD00" stroke-width="0.5"/>
<path d="M28.3759 19.9842C28.5735 19.9842 28.7801 19.9124 28.9327 19.7507L36.4853 12.1981L43.6248 19.3376C43.9302 19.643 44.4331 19.643 44.7384 19.3376L48.9592 15.1168V15.7005C48.9592 16.1316 49.3095 16.4908 49.7495 16.4908C50.1896 16.4908 50.5398 16.1406 50.5398 15.7005V13.0872C50.5398 12.6561 50.1896 12.2969 49.7495 12.2969H47.1362C46.7051 12.2969 46.3459 12.6472 46.3459 13.0872C46.3459 13.5273 46.6962 13.8775 47.1362 13.8775H47.9894L44.1906 17.6762L37.0511 10.5367C36.7458 10.2314 36.2429 10.2314 35.9375 10.5367L27.8281 18.6461C27.5228 18.9515 27.5228 19.4544 27.8281 19.7597C27.9718 19.9034 28.1694 19.9842 28.3759 19.9842Z" fill="#FFAD00" stroke="#FFAD00" stroke-width="0.5"/>
</svg>
