<svg width="72" height="72" viewBox="0 0 72 72" fill="none" xmlns="http://www.w3.org/2000/svg">
<path fill-rule="evenodd" clip-rule="evenodd" d="M24.9001 57.6407L48.1888 71.0864L71.4774 57.6407V30.7496L48.1888 17.3033L24.9001 30.7496V57.6407Z" fill="#FFAD00" fill-opacity="0.1"/>
<path d="M19.0891 17.8473H30.2025V19.6995H19.0891V17.8473Z" fill="#FFAD00" stroke="#FFAD00" stroke-width="0.5"/>
<path d="M32.0549 17.8473H33.9072V19.6995H32.0549V17.8473Z" fill="#FFAD00" stroke="#FFAD00" stroke-width="0.5"/>
<path d="M35.7585 17.8473H37.6108V19.6995H35.7585V17.8473Z" fill="#FFAD00" stroke="#FFAD00" stroke-width="0.5"/>
<path d="M19.0891 25.2562H30.2025V27.1084H19.0891V25.2562Z" fill="#FFAD00" stroke="#FFAD00" stroke-width="0.5"/>
<path d="M32.0549 25.2562H33.9072V27.1084H32.0549V25.2562Z" fill="#FFAD00" stroke="#FFAD00" stroke-width="0.5"/>
<path d="M35.7585 25.2562H37.6108V27.1084H35.7585V25.2562Z" fill="#FFAD00" stroke="#FFAD00" stroke-width="0.5"/>
<path d="M19.0891 32.6651H30.2025V34.5174H19.0891V32.6651Z" fill="#FFAD00" stroke="#FFAD00" stroke-width="0.5"/>
<path d="M32.0549 32.6651H33.9072V34.5174H32.0549V32.6651Z" fill="#FFAD00" stroke="#FFAD00" stroke-width="0.5"/>
<path d="M35.7585 32.6651H37.6108V34.5174H35.7585V32.6651Z" fill="#FFAD00" stroke="#FFAD00" stroke-width="0.5"/>
<path d="M52.4291 39.1479C51.608 39.1489 50.8105 39.4222 50.1614 39.9249C49.5123 40.4277 49.0482 41.1315 48.8419 41.9262H38.5373V38.2217C39.2739 38.2209 39.9801 37.9279 40.501 37.407C41.0218 36.8862 41.3148 36.18 41.3157 35.4434V32.6651H46.8724C48.1518 32.6641 49.4172 32.3981 50.5888 31.8837C51.7603 31.3694 52.8125 30.6178 53.6791 29.6765C54.5457 28.7352 55.2078 27.6246 55.6238 26.4146C56.0397 25.2046 56.2004 23.9216 56.0958 22.6464C55.9911 21.3712 55.6234 20.1316 55.0157 19.0056C54.4081 17.8796 53.5737 16.8918 52.5652 16.1044C51.5568 15.3169 50.3961 14.747 49.1564 14.4305C47.9167 14.1141 46.6248 14.0579 45.3623 14.2656C44.4564 10.848 42.5421 7.78243 39.8688 5.46842C37.1956 3.1544 33.8873 1.69919 30.3752 1.29238C26.863 0.885567 23.3097 1.54602 20.1783 3.1877C17.0468 4.82937 14.4825 7.37614 12.8193 10.4962C12.4407 10.4577 12.0605 10.4383 11.68 10.4383C8.73257 10.4383 5.90584 11.6092 3.82168 13.6933C1.73752 15.7775 0.56665 18.6042 0.56665 21.5517C0.56665 24.4991 1.73752 27.3259 3.82168 29.41C5.90584 31.4942 8.73257 32.6651 11.68 32.6651H15.3845V35.4434C15.3853 36.18 15.6783 36.8862 16.1992 37.407C16.72 37.9279 17.4262 38.2209 18.1628 38.2217V41.9262H7.8583C7.63289 41.0532 7.09682 40.2924 6.35058 39.7863C5.60433 39.2803 4.69915 39.0638 3.80469 39.1774C2.91024 39.291 2.08792 39.7269 1.49189 40.4034C0.895851 41.08 0.567013 41.9507 0.567013 42.8523C0.567013 43.754 0.895851 44.6246 1.49189 45.3012C2.08792 45.9777 2.91024 46.4136 3.80469 46.5272C4.69915 46.6409 5.60433 46.4243 6.35058 45.9183C7.09682 45.4123 7.63289 44.6514 7.8583 43.7784H19.0889C19.3346 43.7784 19.5701 43.6809 19.7438 43.5072C19.9175 43.3335 20.0151 43.0979 20.0151 42.8523V38.2217H21.8673V45.6307H14.4584C14.2127 45.6307 13.9772 45.7282 13.8035 45.9019C13.6298 46.0756 13.5323 46.3111 13.5323 46.5568V49.4524C12.6592 49.6778 11.8984 50.2139 11.3924 50.9601C10.8863 51.7063 10.6698 52.6115 10.7834 53.506C10.897 54.4004 11.333 55.2228 12.0095 55.8188C12.686 56.4148 13.5567 56.7437 14.4584 56.7437C15.36 56.7437 16.2307 56.4148 16.9072 55.8188C17.5838 55.2228 18.0197 54.4004 18.1333 53.506C18.2469 52.6115 18.0304 51.7063 17.5244 50.9601C17.0183 50.2139 16.2575 49.6778 15.3845 49.4524V47.4829H22.7934C23.039 47.4829 23.2746 47.3853 23.4483 47.2116C23.6219 47.038 23.7195 46.8024 23.7195 46.5568V38.2217H27.424V47.6002C26.551 47.8256 25.7901 48.3616 25.2841 49.1079C24.778 49.8541 24.5615 50.7593 24.6752 51.6538C24.7888 52.5482 25.2247 53.3705 25.9012 53.9666C26.5778 54.5626 27.4484 54.8914 28.3501 54.8914C29.2517 54.8914 30.1224 54.5626 30.7989 53.9666C31.4755 53.3705 31.9114 52.5482 32.025 51.6538C32.1386 50.7593 31.9221 49.8541 31.4161 49.1079C30.91 48.3616 30.1492 47.8256 29.2762 47.6002V38.2217H32.9807V46.5568C32.9807 46.8024 33.0782 47.038 33.2519 47.2116C33.4256 47.3853 33.6612 47.4829 33.9068 47.4829H41.3157V49.4524C40.4427 49.6778 39.6818 50.2139 39.1758 50.9601C38.6698 51.7063 38.4533 52.6115 38.5669 53.506C38.6805 54.4004 39.1164 55.2228 39.7929 55.8188C40.4695 56.4148 41.3402 56.7437 42.2418 56.7437C43.1434 56.7437 44.0141 56.4148 44.6907 55.8188C45.3672 55.2228 45.8031 54.4004 45.9167 53.506C46.0303 52.6115 45.8138 51.7063 45.3078 50.9601C44.8018 50.2139 44.0409 49.6778 43.1679 49.4524V46.5568C43.1679 46.3111 43.0703 46.0756 42.8967 45.9019C42.723 45.7282 42.4874 45.6307 42.2418 45.6307H34.8329V38.2217H36.6851V42.8523C36.6851 43.0979 36.7827 43.3335 36.9564 43.5072C37.13 43.6809 37.3656 43.7784 37.6112 43.7784H48.8419C49.0151 44.4493 49.373 45.0581 49.8748 45.5357C50.3767 46.0134 51.0025 46.3407 51.6811 46.4805C52.3597 46.6204 53.0639 46.5671 53.7137 46.3268C54.3635 46.0864 54.9329 45.6687 55.3572 45.121C55.7815 44.5732 56.0437 43.9175 56.114 43.2282C56.1843 42.539 56.0599 41.8438 55.755 41.2217C55.45 40.5996 54.9767 40.0755 54.3888 39.7089C53.8008 39.3423 53.1219 39.1479 52.4291 39.1479ZM4.27111 44.7045C3.90477 44.7045 3.54666 44.5959 3.24207 44.3924C2.93747 44.1889 2.70006 43.8996 2.55987 43.5611C2.41968 43.2227 2.383 42.8503 2.45447 42.491C2.52594 42.1317 2.70235 41.8016 2.96138 41.5426C3.22042 41.2835 3.55046 41.1071 3.90976 41.0357C4.26905 40.9642 4.64148 41.0009 4.97993 41.1411C5.31838 41.2813 5.60765 41.5187 5.81118 41.8233C6.01471 42.1279 6.12334 42.486 6.12334 42.8523C6.12276 43.3434 5.92742 43.8142 5.58019 44.1614C5.23295 44.5086 4.76217 44.704 4.27111 44.7045ZM16.3106 53.0396C16.3106 53.4059 16.202 53.764 15.9984 54.0686C15.7949 54.3732 15.5056 54.6106 15.1672 54.7508C14.8287 54.891 14.4563 54.9277 14.097 54.8562C13.7377 54.7847 13.4077 54.6083 13.1486 54.3493C12.8896 54.0903 12.7132 53.7602 12.6417 53.4009C12.5703 53.0416 12.6069 52.6692 12.7471 52.3308C12.8873 51.9923 13.1247 51.703 13.4293 51.4995C13.7339 51.296 14.092 51.1873 14.4584 51.1873C14.9494 51.1879 15.4202 51.3833 15.7674 51.7305C16.1147 52.0777 16.31 52.5485 16.3106 53.0396ZM30.2023 51.1873C30.2023 51.5537 30.0937 51.9118 29.8902 52.2164C29.6866 52.521 29.3974 52.7584 29.0589 52.8986C28.7205 53.0388 28.348 53.0754 27.9887 53.004C27.6294 52.9325 27.2994 52.7561 27.0404 52.4971C26.7813 52.238 26.6049 51.908 26.5334 51.5487C26.462 51.1894 26.4987 50.817 26.6388 50.4785C26.779 50.1401 27.0164 49.8508 27.321 49.6473C27.6256 49.4437 27.9837 49.3351 28.3501 49.3351C28.8411 49.3357 29.3119 49.531 29.6592 49.8783C30.0064 50.2255 30.2017 50.6963 30.2023 51.1873ZM44.094 53.0396C44.094 53.4059 43.9854 53.764 43.7819 54.0686C43.5784 54.3732 43.2891 54.6106 42.9506 54.7508C42.6122 54.891 42.2397 54.9277 41.8804 54.8562C41.5212 54.7847 41.1911 54.6083 40.9321 54.3493C40.673 54.0903 40.4966 53.7602 40.4252 53.4009C40.3537 53.0416 40.3904 52.6692 40.5306 52.3308C40.6708 51.9923 40.9082 51.703 41.2128 51.4995C41.5174 51.296 41.8755 51.1873 42.2418 51.1873C42.7329 51.1879 43.2037 51.3833 43.5509 51.7305C43.8981 52.0777 44.0934 52.5485 44.094 53.0396ZM17.2367 20.6256V16.9211C17.237 16.6756 17.3346 16.4402 17.5083 16.2665C17.6819 16.0929 17.9173 15.9953 18.1628 15.995H38.5373C38.7829 15.9953 39.0183 16.0929 39.1919 16.2665C39.3655 16.4402 39.4632 16.6756 39.4635 16.9211V20.6256C39.4632 20.8711 39.3655 21.1065 39.1919 21.2801C39.0183 21.4537 38.7829 21.5514 38.5373 21.5517H18.1628C17.9173 21.5514 17.6819 21.4537 17.5083 21.2801C17.3346 21.1065 17.237 20.8711 17.2367 20.6256ZM17.2367 28.0345V24.33C17.237 24.0845 17.3346 23.8491 17.5083 23.6755C17.6819 23.5018 17.9173 23.4042 18.1628 23.4039H38.5373C38.7829 23.4042 39.0183 23.5018 39.1919 23.6755C39.3655 23.8491 39.4632 24.0845 39.4635 24.33V28.0345C39.4632 28.28 39.3655 28.5154 39.1919 28.689C39.0183 28.8627 38.7829 28.9603 38.5373 28.9606H18.1628C17.9173 28.9603 17.6819 28.8627 17.5083 28.689C17.3346 28.5154 17.237 28.28 17.2367 28.0345ZM2.41888 21.5517C2.42167 19.0963 3.39829 16.7423 5.13449 15.0061C6.87068 13.2699 9.22467 12.2933 11.68 12.2905C12.188 12.2904 12.6952 12.3316 13.1965 12.4137C13.3936 12.4463 13.5958 12.4144 13.7732 12.3226C13.9505 12.2308 14.0934 12.084 14.1805 11.9043C15.6146 8.94786 17.9376 6.51401 20.8241 4.94374C23.7105 3.37347 27.0159 2.74543 30.2771 3.1476C33.5384 3.54977 36.5921 4.96201 39.0106 7.18648C41.4291 9.41095 43.0912 12.3362 43.7641 15.5525C43.7899 15.6765 43.8408 15.7939 43.9137 15.8974C43.9866 16.0009 44.0799 16.0884 44.188 16.1544C44.296 16.2205 44.4165 16.2636 44.5419 16.2812C44.6673 16.2989 44.7949 16.2906 44.917 16.257C45.9357 15.9786 47.0021 15.9213 48.0448 16.0888C49.0875 16.2563 50.0823 16.6447 50.9626 17.2281C51.8429 17.8115 52.5883 18.5763 53.1488 19.4713C53.7094 20.3663 54.0721 21.3708 54.2127 22.4175C54.3533 23.4641 54.2685 24.5287 53.9641 25.5399C53.6596 26.5512 53.1425 27.4856 52.4474 28.2806C51.7523 29.0756 50.8952 29.7129 49.9337 30.1496C48.9722 30.5863 47.9284 30.8124 46.8724 30.8128H41.1564C41.0351 30.4712 40.8481 30.1566 40.6059 29.8867C41.0633 29.3782 41.3162 28.7184 41.3157 28.0345V24.33C41.3162 23.6461 41.0633 22.9863 40.6059 22.4778C41.0633 21.9693 41.3162 21.3095 41.3157 20.6256V16.9211C41.3148 16.1845 41.0218 15.4783 40.501 14.9575C39.9801 14.4366 39.2739 14.1436 38.5373 14.1428H18.1628C17.4262 14.1436 16.72 14.4366 16.1992 14.9575C15.6783 15.4783 15.3853 16.1845 15.3845 16.9211V20.6256C15.384 21.3095 15.6369 21.9693 16.0942 22.4778C15.6369 22.9863 15.384 23.6461 15.3845 24.33V28.0345C15.384 28.7184 15.6369 29.3782 16.0942 29.8867C15.8521 30.1566 15.6651 30.4712 15.5438 30.8128H11.68C9.22467 30.81 6.87068 29.8334 5.13449 28.0972C3.39829 26.361 2.42167 24.007 2.41888 21.5517ZM17.2367 35.4434V31.7389C17.237 31.4934 17.3346 31.258 17.5083 31.0844C17.6819 30.9108 17.9173 30.8131 18.1628 30.8128H38.5373C38.7829 30.8131 39.0183 30.9108 39.1919 31.0844C39.3655 31.258 39.4632 31.4934 39.4635 31.7389V35.4434C39.4632 35.6889 39.3655 35.9243 39.1919 36.098C39.0183 36.2716 38.7829 36.3692 38.5373 36.3695H18.1628C17.9173 36.3692 17.6819 36.2716 17.5083 36.098C17.3346 35.9243 17.237 35.6889 17.2367 35.4434ZM52.4291 44.7045C52.0627 44.7045 51.7046 44.5959 51.4 44.3924C51.0954 44.1889 50.858 43.8996 50.7178 43.5611C50.5776 43.2227 50.541 42.8503 50.6124 42.491C50.6839 42.1317 50.8603 41.8016 51.1193 41.5426C51.3784 41.2835 51.7084 41.1071 52.0677 41.0357C52.427 40.9642 52.7994 41.0009 53.1379 41.1411C53.4763 41.2813 53.7656 41.5187 53.9691 41.8233C54.1727 42.1279 54.2813 42.486 54.2813 42.8523C54.2807 43.3434 54.0854 43.8142 53.7381 44.1614C53.3909 44.5086 52.9201 44.704 52.4291 44.7045Z" fill="#FFAD00" stroke="#FFAD00" stroke-width="0.5"/>
</svg>
