<svg width="69" height="69" viewBox="0 0 69 69" fill="none" xmlns="http://www.w3.org/2000/svg">
<path d="M3.90576 54.0717C4.00635 54.6464 4.55366 55.0307 5.1283 54.9301L13.7537 53.4213C14.3283 53.3207 14.7126 52.7734 14.612 52.1987L14.4439 51.2356L16.4556 49.602C17.2438 48.9453 18.257 48.6219 19.2794 48.6987L33.3453 49.7268C33.369 49.7289 33.3922 49.7294 33.416 49.7299H33.5026C36.6064 49.7232 39.6282 48.7343 42.1347 46.9036C42.1749 46.8742 42.2131 46.8417 42.2492 46.8066L59.0027 30.4024C59.4025 30.0114 59.4277 29.3769 59.0615 28.9549C57.1281 26.7234 53.7834 26.4046 51.4637 28.2302L43.7684 33.9844C42.1682 32.0371 39.6447 31.1008 37.162 31.5331L29.2959 32.9089C28.0425 33.1265 26.7565 33.0595 25.5324 32.7128L24.6529 32.4616C20.1326 31.1633 15.2625 32.1743 11.632 35.1646L11.3008 33.2705C11.2003 32.6958 10.653 32.3115 10.0783 32.4121L1.45346 33.9209C0.878809 34.022 0.494508 34.5694 0.595097 35.144L3.90576 54.0717ZM24.0751 34.4946L24.9546 34.7453C26.4851 35.1791 28.093 35.2626 29.6601 34.9908L37.5262 33.6151C39.7799 33.2235 42.0037 34.4471 42.8791 36.5605L31.1035 38.6203C30.5628 38.7141 30.1842 39.2057 30.2317 39.752C30.2786 40.2983 30.7357 40.7177 31.284 40.7177C31.3454 40.7177 31.4068 40.7125 31.4676 40.7017L44.3972 38.4402C44.9718 38.3391 45.3561 37.7918 45.2555 37.2172C45.1715 36.7359 45.0368 36.2644 44.8542 35.811L52.7393 29.9149C52.7466 29.9093 52.7538 29.9036 52.761 29.8979C53.9 28.9972 55.4836 28.9137 56.7108 29.69L40.8255 45.2483C38.693 46.7876 36.1319 47.6196 33.5021 47.6263H33.4624L19.4326 46.5967C17.8696 46.4781 16.3215 46.9707 15.115 47.9714L14.0266 48.854L12.0627 37.6262C15.1944 34.4672 19.7993 33.2669 24.0751 34.4946ZM9.40204 34.6756L12.349 51.5219L5.80509 52.6671L2.85809 35.8208L9.40204 34.6756Z" fill="#FFAD00" stroke="#FFAD00" stroke-width="0.5"/>
<path d="M32.5906 29.9093C40.5134 29.9093 46.9362 23.487 46.9362 15.5642C46.9362 7.64145 40.514 1.21872 32.5912 1.2182C24.6684 1.2182 18.2456 7.64093 18.2451 15.5637C18.2539 23.4829 24.6715 29.9005 32.5906 29.9093ZM32.5906 3.33108C39.3466 3.33108 44.8233 8.80828 44.8233 15.5642C44.8233 22.3202 39.3466 27.7969 32.5906 27.7964C25.8347 27.7964 20.358 22.3197 20.358 15.5637C20.3657 8.81086 25.8383 3.33882 32.5906 3.33108Z" fill="#FFAD00" stroke="#FFAD00" stroke-width="0.5"/>
<path d="M31.8513 17.7818H37.7618C38.3452 17.7818 38.8182 17.3088 38.8182 16.7254C38.8182 16.142 38.3452 15.669 37.7618 15.669H32.8546V8.91505C32.8546 8.33112 32.3816 7.85861 31.7981 7.85861C31.2147 7.85861 30.7417 8.33112 30.7417 8.91505V16.6728C30.7628 17.2763 31.2472 17.7612 31.8513 17.7818Z" fill="#FFAD00" stroke="#FFAD00" stroke-width="0.5"/>
<path fill-rule="evenodd" clip-rule="evenodd" d="M21.9004 54.7726L45.189 68.2183L68.4777 54.7726V27.8815L45.189 14.4352L21.9004 27.8815V54.7726Z" fill="#FFAD00" fill-opacity="0.1"/>
</svg>
