<svg width="74" height="71" viewBox="0 0 74 71" fill="none" xmlns="http://www.w3.org/2000/svg">
<path fill-rule="evenodd" clip-rule="evenodd" d="M27.0381 57.4195L50.3267 70.8652L73.6154 57.4195V30.5285L50.3267 17.0822L27.0381 30.5285V57.4195Z" fill="#FFAD00" fill-opacity="0.1"/>
<path d="M23.5286 7.85254H7.70979C7.14072 7.85254 6.67969 8.3136 6.67969 8.88272C6.67969 9.45178 7.14074 9.91283 7.70979 9.91283H23.5286C24.0976 9.91283 24.5587 9.45177 24.5587 8.88272C24.5587 8.31361 24.0976 7.85254 23.5286 7.85254Z" fill="#FFAD00" stroke="#FFAD00" stroke-width="0.5"/>
<path d="M43.3008 11.5041C44.749 11.5041 45.9229 10.3301 45.9229 8.88199C45.9229 7.43384 44.749 6.25989 43.3008 6.25989C41.8527 6.25989 40.6787 7.43384 40.6787 8.88199C40.6787 10.3301 41.8527 11.5041 43.3008 11.5041Z" fill="#FFAD00" stroke="#FFAD00" stroke-width="0.5"/>
<path d="M48.8387 0.723389H4.54608C2.66067 0.723389 1.13232 2.25173 1.13232 4.13715V13.6284C1.13232 15.5138 2.66066 17.0422 4.54608 17.0422H48.8387C50.724 17.0422 52.2524 15.5138 52.2524 13.6284V4.13715C52.2524 2.25173 50.724 0.723389 48.8387 0.723389ZM50.1706 13.6284C50.1706 14.3625 49.5728 14.9603 48.8387 14.9603H4.54608C3.81191 14.9603 3.2142 14.3625 3.2142 13.6284V4.13715C3.2142 3.4029 3.8119 2.80527 4.54608 2.80527H48.8387C49.5729 2.80527 50.1706 3.4029 50.1706 4.13715V13.6284Z" fill="#FFAD00" stroke="#FFAD00" stroke-width="0.5"/>
<path d="M23.5286 25.2534H7.70979C7.14072 25.2534 6.67969 25.7145 6.67969 26.2836C6.67969 26.8527 7.14074 27.3137 7.70979 27.3137H23.5286C24.0976 27.3137 24.5587 26.8527 24.5587 26.2836C24.5587 25.7145 24.0976 25.2534 23.5286 25.2534Z" fill="#FFAD00" stroke="#FFAD00" stroke-width="0.5"/>
<path d="M43.3008 28.905C44.749 28.905 45.9229 27.731 45.9229 26.2829C45.9229 24.8347 44.749 23.6608 43.3008 23.6608C41.8527 23.6608 40.6787 24.8347 40.6787 26.2829C40.6787 27.731 41.8527 28.905 43.3008 28.905Z" fill="#FFAD00" stroke="#FFAD00" stroke-width="0.5"/>
<path d="M48.8387 18.1239H4.54608C2.66067 18.1239 1.13232 19.6522 1.13232 21.5377V31.0289C1.13232 32.9143 2.66066 34.4427 4.54608 34.4427H48.8387C50.724 34.4427 52.2524 32.9143 52.2524 31.0289V21.5377C52.2524 19.6522 50.724 18.1239 48.8387 18.1239ZM50.1706 31.0289C50.1706 31.763 49.5728 32.3608 48.8387 32.3608H4.54608C3.81191 32.3608 3.2142 31.763 3.2142 31.0289V21.5377C3.2142 20.8034 3.8119 20.2058 4.54608 20.2058H48.8387C49.5729 20.2058 50.1706 20.8034 50.1706 21.5377V31.0289Z" fill="#FFAD00" stroke="#FFAD00" stroke-width="0.5"/>
<path d="M23.5286 42.6539H7.70979C7.14072 42.6539 6.67969 43.115 6.67969 43.6841C6.67969 44.2532 7.14074 44.7142 7.70979 44.7142H23.5286C24.0976 44.7142 24.5587 44.2532 24.5587 43.6841C24.5587 43.115 24.0976 42.6539 23.5286 42.6539Z" fill="#FFAD00" stroke="#FFAD00" stroke-width="0.5"/>
<path d="M43.3008 46.3055C44.749 46.3055 45.9229 45.1315 45.9229 43.6834C45.9229 42.2352 44.749 41.0613 43.3008 41.0613C41.8527 41.0613 40.6787 42.2352 40.6787 43.6834C40.6787 45.1315 41.8527 46.3055 43.3008 46.3055Z" fill="#FFAD00" stroke="#FFAD00" stroke-width="0.5"/>
<path d="M48.8387 35.5248H4.54608C2.66067 35.5248 1.13232 37.0531 1.13232 38.9385V48.4298C1.13232 50.3151 2.66066 51.8436 4.54608 51.8436H48.8387C50.724 51.8436 52.2524 50.3151 52.2524 48.4298V38.9385C52.2524 37.0531 50.724 35.5248 48.8387 35.5248ZM50.1706 48.4298C50.1706 49.1639 49.5728 49.7617 48.8387 49.7617H4.54608C3.81191 49.7617 3.2142 49.1639 3.2142 48.4298V38.9385C3.2142 38.2043 3.8119 37.6067 4.54608 37.6067H48.8387C49.5729 37.6067 50.1706 38.2043 50.1706 38.9385V48.4298Z" fill="#FFAD00" stroke="#FFAD00" stroke-width="0.5"/>
</svg>
