<svg width="382" height="400" viewBox="0 0 382 400" fill="none" xmlns="http://www.w3.org/2000/svg">
<path fill-rule="evenodd" clip-rule="evenodd" d="M103.756 248.813L209.683 309.97L315.61 248.813L315.61 126.5L209.683 65.3406L103.756 126.5L103.756 248.813Z" fill="#FFAD00" fill-opacity="0.1"/>
<path d="M218.18 130.93L214.151 116.261L137.795 111.62L24.5293 251.178L35.9182 260.42L118.977 327.837L121.143 329.589L221.307 206.163L234.411 190.025L218.18 130.93ZM198.187 151.982C194.67 156.316 188.3 156.98 183.967 153.457C179.622 149.937 178.963 143.568 182.48 139.234C185.999 134.894 192.369 134.23 196.715 137.751C201.047 141.273 201.705 147.642 198.187 151.982Z" fill="#05164D"/>
<path d="M218.181 130.929L146.006 127.018L35.9178 260.419L24.5295 251.178L137.796 111.62L214.151 116.262L218.181 130.929Z" fill="#05164D"/>
<path d="M221.31 206.166L121.142 329.59L118.98 327.836C111.844 309.783 110.444 289.305 116.333 269.23C129.678 223.73 175.673 196.694 221.31 206.166Z" fill="#05164D"/>
<path d="M201.424 192.232L190.987 205.093L120.061 292.483L113.014 286.761L61.0591 244.598L142.421 144.346L201.424 192.232Z" fill="white"/>
<path d="M182.76 363.81C220.947 375.01 260.983 353.133 272.184 314.946C283.385 276.759 261.508 236.723 223.321 225.522C185.134 214.321 145.097 236.198 133.896 274.385C122.696 312.572 144.573 352.609 182.76 363.81Z" fill="#FFAD00"/>
<path d="M189.222 341.772C215.238 349.403 242.515 334.498 250.145 308.482C257.776 282.466 242.872 255.189 216.856 247.559C190.839 239.928 163.563 254.832 155.932 280.848C148.301 306.865 163.206 334.141 189.222 341.772Z" fill="#FFAD00"/>
<path d="M192.62 330.188C212.239 335.942 232.808 324.703 238.562 305.084C244.316 285.466 233.077 264.897 213.459 259.143C193.84 253.388 173.271 264.628 167.517 284.246C161.763 303.865 173.002 324.433 192.62 330.188Z" fill="#FFAD00"/>
<path d="M45.0349 225.917C45.5234 226.313 46.0686 226.592 46.6372 226.759C48.3636 227.266 50.3017 226.727 51.5062 225.243L139.881 116.352L187.626 119.256C186.267 124.757 185.315 129.262 184.771 131.986C182.507 132.908 180.496 134.383 178.914 136.332C176.436 139.385 175.296 143.219 175.702 147.127C176.109 151.035 178.014 154.553 181.066 157.03C182.625 158.295 184.364 159.187 186.179 159.719C191.702 161.339 197.915 159.619 201.764 154.877C204.239 151.827 205.379 147.995 204.973 144.086C204.568 140.175 202.664 136.657 199.611 134.18C198.016 132.885 196.207 131.96 194.285 131.426C194.903 128.5 195.803 124.474 196.978 119.825L210.589 120.653L214.503 134.905C214.505 134.913 214.507 134.921 214.51 134.929L222.611 164.43C223.284 166.88 225.815 168.321 228.266 167.648C230.716 166.975 232.157 164.443 231.484 161.993L224.116 135.164C250.277 109.534 254.33 82.9482 246.527 67.6633C241.892 58.584 233.386 54.0302 224.329 55.7813C212.548 58.0583 202.529 71.9389 193.695 98.2175C192.32 102.309 191.095 106.356 190.019 110.185L138.079 107.025C136.597 106.935 135.162 107.565 134.227 108.718L44.3619 219.445C42.7612 221.418 43.0627 224.315 45.0349 225.917ZM195.82 145.036C195.972 146.501 195.545 147.937 194.619 149.079C192.702 151.439 189.225 151.799 186.865 149.885C185.72 148.957 185.006 147.639 184.854 146.175C184.702 144.712 185.129 143.275 186.058 142.131C186.985 140.989 188.302 140.276 189.767 140.123C190.494 140.047 191.213 140.114 191.893 140.313C192.585 140.516 193.236 140.857 193.812 141.325C194.955 142.253 195.668 143.57 195.82 145.036ZM202.447 101.059C209.802 79.2106 218.194 66.3387 226.075 64.8154C231.089 63.8459 235.556 66.4099 238.332 71.8471C241.485 78.0234 241.734 86.7909 239.014 95.9023C236.13 105.567 230.047 115.476 221.292 124.884L218.589 115.043C218.068 113.145 216.396 111.788 214.432 111.669L199.427 110.756C200.336 107.605 201.344 104.337 202.447 101.059Z" fill="black"/>
<path d="M138.008 216.044L132.174 211.309C131.086 210.426 130.407 209.172 130.262 207.779C130.117 206.385 130.524 205.018 131.407 203.93C132.29 202.842 133.543 202.164 134.937 202.019C136.33 201.874 137.697 202.281 138.785 203.163L141.702 205.531L141.702 205.531L148.241 210.838C148.365 210.939 148.437 211.07 148.453 211.229C148.47 211.388 148.427 211.531 148.327 211.655C146.725 213.628 147.027 216.526 148.999 218.126C150.972 219.728 153.869 219.427 155.47 217.454C157.118 215.425 157.876 212.876 157.605 210.277C157.334 207.677 156.068 205.339 154.039 203.693L151.073 201.285L155.575 195.738C157.175 193.764 156.874 190.867 154.901 189.266C152.929 187.666 150.032 187.967 148.43 189.939L143.903 195.519C141.025 193.445 137.541 192.496 133.985 192.866C130.147 193.266 126.694 195.136 124.263 198.132C121.831 201.128 120.711 204.892 121.111 208.73C121.51 212.568 123.38 216.021 126.376 218.452L132.211 223.187C133.298 224.07 133.978 225.324 134.123 226.718C134.267 228.111 133.861 229.478 132.979 230.566C131.156 232.812 127.846 233.156 125.6 231.333L122.684 228.967C122.683 228.966 122.683 228.966 122.683 228.966C122.683 228.966 122.682 228.965 122.682 228.965L116.144 223.659C116.02 223.558 115.949 223.427 115.932 223.268C115.916 223.109 115.959 222.965 116.059 222.841C117.66 220.868 117.359 217.971 115.387 216.37C113.416 214.768 110.517 215.069 108.916 217.042C107.269 219.072 106.511 221.62 106.781 224.219C107.052 226.818 108.318 229.157 110.347 230.804L113.313 233.211L108.812 238.758C107.211 240.731 107.512 243.629 109.485 245.229C109.973 245.626 110.518 245.905 111.087 246.072C112.813 246.578 114.751 246.04 115.956 244.556L120.475 238.988C121.826 239.961 123.296 240.67 124.822 241.117C130.245 242.708 136.345 241.019 140.124 236.364C145.141 230.18 144.193 221.064 138.008 216.044Z" fill="black"/>
<path d="M224.617 221.107C221.964 220.328 219.301 219.704 216.638 219.223L237.981 192.927C238.917 191.775 239.239 190.242 238.845 188.81L236.2 179.174C235.527 176.724 232.995 175.283 230.545 175.956C228.095 176.629 226.654 179.16 227.327 181.61L229.346 188.966L205.74 218.049C198.534 217.796 191.423 218.576 184.592 220.283L205 195.138C206.601 193.165 206.3 190.268 204.327 188.667L145.326 140.78C144.378 140.011 143.165 139.65 141.951 139.776C140.737 139.902 139.623 140.506 138.854 141.452L57.4936 241.698C55.8921 243.671 56.1936 246.568 58.1661 248.169L117.167 296.056C117.655 296.453 118.201 296.733 118.77 296.9C120.496 297.406 122.434 296.868 123.638 295.384L126.425 291.95C126.172 299.14 126.946 306.234 128.642 313.05L120.47 323.118L31.0019 250.512L41.0147 238.176C42.6162 236.203 42.3147 233.306 40.3422 231.705C38.3713 230.104 35.472 230.405 33.8713 232.378L20.9589 248.286C20.1894 249.233 19.8288 250.448 19.9549 251.661C20.0809 252.875 20.6842 253.989 21.6318 254.758L118.245 333.161C118.733 333.557 119.278 333.837 119.847 334.004C121.573 334.51 123.512 333.972 124.716 332.488L132.038 323.466C140.549 344.387 158.16 361.387 181.466 368.223C222.027 380.12 264.703 356.8 276.6 316.24C288.497 275.679 265.177 233.003 224.617 221.107ZM119.394 286.013L67.5368 243.924L143.1 150.823L194.957 192.911L167.431 226.826C149.673 236.152 135.561 252.369 129.483 273.09C129.41 273.341 129.344 273.592 129.272 273.844L119.394 286.013ZM184.056 359.394C148.917 349.088 128.484 312.529 137.848 277.34C137.863 277.289 137.877 277.238 137.891 277.187C138.026 276.684 138.165 276.182 138.313 275.679C148.781 239.987 186.336 219.467 222.027 229.936C257.719 240.404 278.24 277.959 267.771 313.651C257.302 349.343 219.748 369.863 184.056 359.394Z" fill="black"/>
<path d="M218.153 243.141C189.743 234.808 159.85 251.142 151.517 279.552C143.184 307.963 159.518 337.855 187.928 346.188C202.202 350.375 217.147 348.565 230.014 341.092C232.212 339.817 232.958 337.001 231.682 334.803C230.406 332.607 227.59 331.859 225.393 333.136C214.73 339.328 202.346 340.828 190.518 337.359C166.976 330.454 153.441 305.684 160.346 282.142C167.251 258.6 192.021 245.065 215.564 251.97C239.106 258.875 252.64 283.645 245.735 307.188C243.898 313.452 240.804 319.097 236.54 323.964C234.865 325.875 235.058 328.782 236.969 330.456C238.88 332.13 241.786 331.937 243.461 330.027C248.612 324.146 252.347 317.333 254.564 309.778C262.897 281.366 246.563 251.474 218.153 243.141Z" fill="#DA9400"/>
<path d="M203.435 283.08L213.086 285.91C212.514 288.281 213.899 290.707 216.264 291.4C218.702 292.115 221.259 290.719 221.974 288.281C223.366 283.532 220.636 278.536 215.887 277.143L213.482 276.438L214.977 271.339C215.692 268.901 214.295 266.345 211.857 265.63C209.419 264.915 206.863 266.312 206.148 268.75L204.629 273.928C198.24 272.798 191.868 276.638 190.001 283.005C187.997 289.836 191.925 297.024 198.756 299.028L204.842 300.813C206.805 301.389 207.934 303.454 207.358 305.417C206.782 307.38 204.717 308.509 202.754 307.933L193.104 305.103C193.676 302.732 192.291 300.306 189.926 299.612C187.487 298.897 184.931 300.294 184.216 302.732C182.823 307.481 185.553 312.477 190.302 313.869L192.707 314.575L191.212 319.673C190.497 322.111 191.894 324.667 194.332 325.383C196.77 326.098 199.326 324.701 200.041 322.263L201.56 317.085C207.949 318.214 214.321 314.375 216.188 308.008C218.192 301.176 214.264 293.988 207.433 291.985L201.347 290.2C199.384 289.624 198.255 287.559 198.831 285.595C199.407 283.632 201.472 282.504 203.435 283.08Z" fill="black"/>
</svg>
