<svg width="77" height="81" viewBox="0 0 77 81" fill="none" xmlns="http://www.w3.org/2000/svg">
<path fill-rule="evenodd" clip-rule="evenodd" d="M30.1094 67.4195L53.398 80.8652L76.6867 67.4195V40.5285L53.398 27.0822L30.1094 40.5285V67.4195Z" fill="#FFAD00" fill-opacity="0.1"/>
<path d="M22.9733 34.4216V18.3807C22.9741 18.0149 22.9003 17.6671 22.7665 17.3502C22.3664 16.4027 21.4282 15.7358 20.3343 15.7354C18.8742 15.7331 17.6903 16.9146 17.689 18.3744V34.374" stroke="#FFAD00" stroke-width="2.09133" stroke-miterlimit="10" stroke-linecap="round" stroke-linejoin="round"/>
<path d="M28.258 34.3267V21.4216C28.2588 21.0558 28.185 20.708 28.0512 20.3911C27.6511 19.4435 26.7129 18.7767 25.619 18.7762C24.1589 18.774 22.9749 19.9555 22.9736 21.4152V34.4217" stroke="#FFAD00" stroke-width="2.09133" stroke-miterlimit="10" stroke-linecap="round" stroke-linejoin="round"/>
<path d="M44.5914 27.9677C46.6394 26.7983 48.5956 26.381 48.5956 26.381V8.50142C48.5944 7.04232 47.4095 5.8598 45.9504 5.86219C44.8561 5.86338 43.9179 6.52972 43.5173 7.47743C43.385 7.7921 43.311 8.13542 43.311 8.49903V18.41" stroke="#FFAD00" stroke-width="2.09133" stroke-miterlimit="10" stroke-linecap="round" stroke-linejoin="round"/>
<path d="M38.0264 18.4576V4.35199C38.0255 3.98623 38.0993 3.63837 38.2331 3.32156C38.6333 2.37397 39.5714 1.70715 40.6654 1.70667C42.1254 1.7044 43.3094 2.88596 43.3107 4.34566V18.41" stroke="#FFAD00" stroke-width="2.09133" stroke-miterlimit="10" stroke-linecap="round" stroke-linejoin="round"/>
<path d="M32.7422 18.4575V7.39288C32.7414 7.02712 32.8151 6.67927 32.9489 6.36245C33.3491 5.41486 34.2872 4.74804 35.3812 4.74756C36.8413 4.74529 38.0252 5.92686 38.0265 7.38656V18.4576" stroke="#FFAD00" stroke-width="2.09133" stroke-miterlimit="10" stroke-linecap="round" stroke-linejoin="round"/>
<path d="M33.5378 40.7519L33.5366 44.4149C33.8288 49.0304 28.4883 54.3864 28.2772 54.5494L28.266 60.3185L14.5226 60.3191C13.8633 60.3191 13.3291 59.7838 13.3305 59.1245L13.3388 55.2551C12.2778 54.3992 7.27113 51.4249 6.52003 46.0713L4.33608 34.2852C3.71976 30.8377 8.62041 29.1414 9.82561 32.838L12.3945 40.409H12.4041V40.4097V22.5301C12.4053 21.071 13.5902 19.8885 15.0493 19.8909C16.1436 19.8921 17.0817 20.5584 17.4824 21.5061C17.6146 21.8208 17.6886 22.1641 17.6886 22.5277V34.3741" stroke="#FFAD00" stroke-width="2.09133" stroke-miterlimit="10" stroke-linecap="round" stroke-linejoin="round"/>
<path d="M28.2578 34.3268V26.4C28.259 24.9397 29.4427 23.7584 30.903 23.7607C31.9973 23.7607 32.9343 24.4283 33.3349 25.376C33.4684 25.693 33.5424 26.04 33.5424 26.406L33.5413 29.8746" stroke="#FFAD00" stroke-width="2.09133" stroke-miterlimit="10" stroke-linecap="round" stroke-linejoin="round"/>
<path d="M48.5949 26.3796H48.6045L51.174 18.8098C52.3792 15.1128 57.2801 16.8087 56.6637 20.2567L54.4796 32.043C53.728 37.3963 48.7217 40.3704 47.6601 41.2262L47.6684 45.0954C47.6696 45.7548 47.1359 46.2911 46.4764 46.2911L34.0283 46.2899" stroke="#FFAD00" stroke-width="2.09133" stroke-miterlimit="10" stroke-linecap="round" stroke-linejoin="round"/>
<path d="M27.4577 19.1123L27.4565 12.3774C27.4565 12.0112 27.5308 11.6641 27.6647 11.347C28.0645 10.3991 29.0016 9.73243 30.0966 9.73243C31.5567 9.73004 32.7404 10.9112 32.7416 12.3714V18.4576" stroke="#FFAD00" stroke-width="2.09133" stroke-miterlimit="10" stroke-linecap="round" stroke-linejoin="round"/>
<path d="M20.6909 5.43774L21.6527 6.54124" stroke="#FFAD00" stroke-width="2.09133" stroke-miterlimit="10" stroke-linecap="round" stroke-linejoin="round"/>
<path d="M17.2837 10.8221L18.6683 11.2969" stroke="#FFAD00" stroke-width="2.09133" stroke-miterlimit="10" stroke-linecap="round" stroke-linejoin="round"/>
<path d="M26.4902 2.79761L26.7714 4.23415" stroke="#FFAD00" stroke-width="2.09133" stroke-miterlimit="10" stroke-linecap="round" stroke-linejoin="round"/>
</svg>
